%TF.GenerationSoftware,KiCad,Pcbnew,9.0.7*%
%TF.CreationDate,2026-02-11T09:18:12+01:00*%
%TF.ProjectId,przetwornik,70727a65-7477-46f7-926e-696b2e6b6963,rev?*%
%TF.SameCoordinates,Original*%
%TF.FileFunction,Legend,Bot*%
%TF.FilePolarity,Positive*%
%FSLAX46Y46*%
G04 Gerber Fmt 4.6, Leading zero omitted, Abs format (unit mm)*
G04 Created by KiCad (PCBNEW 9.0.7) date 2026-02-11 09:18:12*
%MOMM*%
%LPD*%
G01*
G04 APERTURE LIST*
%ADD10C,0.150000*%
%ADD11C,0.120000*%
%ADD12C,0.100000*%
G04 APERTURE END LIST*
D10*
X230373333Y-83954819D02*
X230373333Y-84669104D01*
X230373333Y-84669104D02*
X230420952Y-84811961D01*
X230420952Y-84811961D02*
X230516190Y-84907200D01*
X230516190Y-84907200D02*
X230659047Y-84954819D01*
X230659047Y-84954819D02*
X230754285Y-84954819D01*
X229373333Y-84954819D02*
X229944761Y-84954819D01*
X229659047Y-84954819D02*
X229659047Y-83954819D01*
X229659047Y-83954819D02*
X229754285Y-84097676D01*
X229754285Y-84097676D02*
X229849523Y-84192914D01*
X229849523Y-84192914D02*
X229944761Y-84240533D01*
X221562295Y-93390476D02*
X222209914Y-93390476D01*
X222209914Y-93390476D02*
X222286104Y-93428571D01*
X222286104Y-93428571D02*
X222324200Y-93466666D01*
X222324200Y-93466666D02*
X222362295Y-93542857D01*
X222362295Y-93542857D02*
X222362295Y-93695238D01*
X222362295Y-93695238D02*
X222324200Y-93771428D01*
X222324200Y-93771428D02*
X222286104Y-93809523D01*
X222286104Y-93809523D02*
X222209914Y-93847619D01*
X222209914Y-93847619D02*
X221562295Y-93847619D01*
X221828961Y-94571428D02*
X222362295Y-94571428D01*
X221524200Y-94380952D02*
X222095628Y-94190475D01*
X222095628Y-94190475D02*
X222095628Y-94685714D01*
X221633332Y-89286104D02*
X221671428Y-89324200D01*
X221671428Y-89324200D02*
X221785713Y-89362295D01*
X221785713Y-89362295D02*
X221861904Y-89362295D01*
X221861904Y-89362295D02*
X221976190Y-89324200D01*
X221976190Y-89324200D02*
X222052380Y-89248009D01*
X222052380Y-89248009D02*
X222090475Y-89171819D01*
X222090475Y-89171819D02*
X222128571Y-89019438D01*
X222128571Y-89019438D02*
X222128571Y-88905152D01*
X222128571Y-88905152D02*
X222090475Y-88752771D01*
X222090475Y-88752771D02*
X222052380Y-88676580D01*
X222052380Y-88676580D02*
X221976190Y-88600390D01*
X221976190Y-88600390D02*
X221861904Y-88562295D01*
X221861904Y-88562295D02*
X221785713Y-88562295D01*
X221785713Y-88562295D02*
X221671428Y-88600390D01*
X221671428Y-88600390D02*
X221633332Y-88638485D01*
X221176190Y-88905152D02*
X221252380Y-88867057D01*
X221252380Y-88867057D02*
X221290475Y-88828961D01*
X221290475Y-88828961D02*
X221328571Y-88752771D01*
X221328571Y-88752771D02*
X221328571Y-88714676D01*
X221328571Y-88714676D02*
X221290475Y-88638485D01*
X221290475Y-88638485D02*
X221252380Y-88600390D01*
X221252380Y-88600390D02*
X221176190Y-88562295D01*
X221176190Y-88562295D02*
X221023809Y-88562295D01*
X221023809Y-88562295D02*
X220947618Y-88600390D01*
X220947618Y-88600390D02*
X220909523Y-88638485D01*
X220909523Y-88638485D02*
X220871428Y-88714676D01*
X220871428Y-88714676D02*
X220871428Y-88752771D01*
X220871428Y-88752771D02*
X220909523Y-88828961D01*
X220909523Y-88828961D02*
X220947618Y-88867057D01*
X220947618Y-88867057D02*
X221023809Y-88905152D01*
X221023809Y-88905152D02*
X221176190Y-88905152D01*
X221176190Y-88905152D02*
X221252380Y-88943247D01*
X221252380Y-88943247D02*
X221290475Y-88981342D01*
X221290475Y-88981342D02*
X221328571Y-89057533D01*
X221328571Y-89057533D02*
X221328571Y-89209914D01*
X221328571Y-89209914D02*
X221290475Y-89286104D01*
X221290475Y-89286104D02*
X221252380Y-89324200D01*
X221252380Y-89324200D02*
X221176190Y-89362295D01*
X221176190Y-89362295D02*
X221023809Y-89362295D01*
X221023809Y-89362295D02*
X220947618Y-89324200D01*
X220947618Y-89324200D02*
X220909523Y-89286104D01*
X220909523Y-89286104D02*
X220871428Y-89209914D01*
X220871428Y-89209914D02*
X220871428Y-89057533D01*
X220871428Y-89057533D02*
X220909523Y-88981342D01*
X220909523Y-88981342D02*
X220947618Y-88943247D01*
X220947618Y-88943247D02*
X221023809Y-88905152D01*
X232994285Y-89286104D02*
X233032381Y-89324200D01*
X233032381Y-89324200D02*
X233146666Y-89362295D01*
X233146666Y-89362295D02*
X233222857Y-89362295D01*
X233222857Y-89362295D02*
X233337143Y-89324200D01*
X233337143Y-89324200D02*
X233413333Y-89248009D01*
X233413333Y-89248009D02*
X233451428Y-89171819D01*
X233451428Y-89171819D02*
X233489524Y-89019438D01*
X233489524Y-89019438D02*
X233489524Y-88905152D01*
X233489524Y-88905152D02*
X233451428Y-88752771D01*
X233451428Y-88752771D02*
X233413333Y-88676580D01*
X233413333Y-88676580D02*
X233337143Y-88600390D01*
X233337143Y-88600390D02*
X233222857Y-88562295D01*
X233222857Y-88562295D02*
X233146666Y-88562295D01*
X233146666Y-88562295D02*
X233032381Y-88600390D01*
X233032381Y-88600390D02*
X232994285Y-88638485D01*
X232232381Y-89362295D02*
X232689524Y-89362295D01*
X232460952Y-89362295D02*
X232460952Y-88562295D01*
X232460952Y-88562295D02*
X232537143Y-88676580D01*
X232537143Y-88676580D02*
X232613333Y-88752771D01*
X232613333Y-88752771D02*
X232689524Y-88790866D01*
X231546666Y-88562295D02*
X231699047Y-88562295D01*
X231699047Y-88562295D02*
X231775238Y-88600390D01*
X231775238Y-88600390D02*
X231813333Y-88638485D01*
X231813333Y-88638485D02*
X231889523Y-88752771D01*
X231889523Y-88752771D02*
X231927619Y-88905152D01*
X231927619Y-88905152D02*
X231927619Y-89209914D01*
X231927619Y-89209914D02*
X231889523Y-89286104D01*
X231889523Y-89286104D02*
X231851428Y-89324200D01*
X231851428Y-89324200D02*
X231775238Y-89362295D01*
X231775238Y-89362295D02*
X231622857Y-89362295D01*
X231622857Y-89362295D02*
X231546666Y-89324200D01*
X231546666Y-89324200D02*
X231508571Y-89286104D01*
X231508571Y-89286104D02*
X231470476Y-89209914D01*
X231470476Y-89209914D02*
X231470476Y-89019438D01*
X231470476Y-89019438D02*
X231508571Y-88943247D01*
X231508571Y-88943247D02*
X231546666Y-88905152D01*
X231546666Y-88905152D02*
X231622857Y-88867057D01*
X231622857Y-88867057D02*
X231775238Y-88867057D01*
X231775238Y-88867057D02*
X231851428Y-88905152D01*
X231851428Y-88905152D02*
X231889523Y-88943247D01*
X231889523Y-88943247D02*
X231927619Y-89019438D01*
X217133332Y-91362295D02*
X217399999Y-90981342D01*
X217590475Y-91362295D02*
X217590475Y-90562295D01*
X217590475Y-90562295D02*
X217285713Y-90562295D01*
X217285713Y-90562295D02*
X217209523Y-90600390D01*
X217209523Y-90600390D02*
X217171428Y-90638485D01*
X217171428Y-90638485D02*
X217133332Y-90714676D01*
X217133332Y-90714676D02*
X217133332Y-90828961D01*
X217133332Y-90828961D02*
X217171428Y-90905152D01*
X217171428Y-90905152D02*
X217209523Y-90943247D01*
X217209523Y-90943247D02*
X217285713Y-90981342D01*
X217285713Y-90981342D02*
X217590475Y-90981342D01*
X216371428Y-91362295D02*
X216828571Y-91362295D01*
X216599999Y-91362295D02*
X216599999Y-90562295D01*
X216599999Y-90562295D02*
X216676190Y-90676580D01*
X216676190Y-90676580D02*
X216752380Y-90752771D01*
X216752380Y-90752771D02*
X216828571Y-90790866D01*
X224983621Y-94629115D02*
X225021717Y-94591019D01*
X225021717Y-94591019D02*
X225059812Y-94476734D01*
X225059812Y-94476734D02*
X225059812Y-94400543D01*
X225059812Y-94400543D02*
X225021717Y-94286257D01*
X225021717Y-94286257D02*
X224945526Y-94210067D01*
X224945526Y-94210067D02*
X224869336Y-94171972D01*
X224869336Y-94171972D02*
X224716955Y-94133876D01*
X224716955Y-94133876D02*
X224602669Y-94133876D01*
X224602669Y-94133876D02*
X224450288Y-94171972D01*
X224450288Y-94171972D02*
X224374097Y-94210067D01*
X224374097Y-94210067D02*
X224297907Y-94286257D01*
X224297907Y-94286257D02*
X224259812Y-94400543D01*
X224259812Y-94400543D02*
X224259812Y-94476734D01*
X224259812Y-94476734D02*
X224297907Y-94591019D01*
X224297907Y-94591019D02*
X224336002Y-94629115D01*
X225059812Y-95391019D02*
X225059812Y-94933876D01*
X225059812Y-95162448D02*
X224259812Y-95162448D01*
X224259812Y-95162448D02*
X224374097Y-95086257D01*
X224374097Y-95086257D02*
X224450288Y-95010067D01*
X224450288Y-95010067D02*
X224488383Y-94933876D01*
X224526478Y-96076734D02*
X225059812Y-96076734D01*
X224221717Y-95886258D02*
X224793145Y-95695781D01*
X224793145Y-95695781D02*
X224793145Y-96191020D01*
X227761904Y-90954819D02*
X227761904Y-91764342D01*
X227761904Y-91764342D02*
X227714285Y-91859580D01*
X227714285Y-91859580D02*
X227666666Y-91907200D01*
X227666666Y-91907200D02*
X227571428Y-91954819D01*
X227571428Y-91954819D02*
X227380952Y-91954819D01*
X227380952Y-91954819D02*
X227285714Y-91907200D01*
X227285714Y-91907200D02*
X227238095Y-91859580D01*
X227238095Y-91859580D02*
X227190476Y-91764342D01*
X227190476Y-91764342D02*
X227190476Y-90954819D01*
X226238095Y-90954819D02*
X226714285Y-90954819D01*
X226714285Y-90954819D02*
X226761904Y-91431009D01*
X226761904Y-91431009D02*
X226714285Y-91383390D01*
X226714285Y-91383390D02*
X226619047Y-91335771D01*
X226619047Y-91335771D02*
X226380952Y-91335771D01*
X226380952Y-91335771D02*
X226285714Y-91383390D01*
X226285714Y-91383390D02*
X226238095Y-91431009D01*
X226238095Y-91431009D02*
X226190476Y-91526247D01*
X226190476Y-91526247D02*
X226190476Y-91764342D01*
X226190476Y-91764342D02*
X226238095Y-91859580D01*
X226238095Y-91859580D02*
X226285714Y-91907200D01*
X226285714Y-91907200D02*
X226380952Y-91954819D01*
X226380952Y-91954819D02*
X226619047Y-91954819D01*
X226619047Y-91954819D02*
X226714285Y-91907200D01*
X226714285Y-91907200D02*
X226761904Y-91859580D01*
X235090475Y-87192295D02*
X235090475Y-86392295D01*
X235090475Y-86392295D02*
X234899999Y-86392295D01*
X234899999Y-86392295D02*
X234785713Y-86430390D01*
X234785713Y-86430390D02*
X234709523Y-86506580D01*
X234709523Y-86506580D02*
X234671428Y-86582771D01*
X234671428Y-86582771D02*
X234633332Y-86735152D01*
X234633332Y-86735152D02*
X234633332Y-86849438D01*
X234633332Y-86849438D02*
X234671428Y-87001819D01*
X234671428Y-87001819D02*
X234709523Y-87078009D01*
X234709523Y-87078009D02*
X234785713Y-87154200D01*
X234785713Y-87154200D02*
X234899999Y-87192295D01*
X234899999Y-87192295D02*
X235090475Y-87192295D01*
X233871428Y-87192295D02*
X234328571Y-87192295D01*
X234099999Y-87192295D02*
X234099999Y-86392295D01*
X234099999Y-86392295D02*
X234176190Y-86506580D01*
X234176190Y-86506580D02*
X234252380Y-86582771D01*
X234252380Y-86582771D02*
X234328571Y-86620866D01*
X229786104Y-98985714D02*
X229824200Y-98947618D01*
X229824200Y-98947618D02*
X229862295Y-98833333D01*
X229862295Y-98833333D02*
X229862295Y-98757142D01*
X229862295Y-98757142D02*
X229824200Y-98642856D01*
X229824200Y-98642856D02*
X229748009Y-98566666D01*
X229748009Y-98566666D02*
X229671819Y-98528571D01*
X229671819Y-98528571D02*
X229519438Y-98490475D01*
X229519438Y-98490475D02*
X229405152Y-98490475D01*
X229405152Y-98490475D02*
X229252771Y-98528571D01*
X229252771Y-98528571D02*
X229176580Y-98566666D01*
X229176580Y-98566666D02*
X229100390Y-98642856D01*
X229100390Y-98642856D02*
X229062295Y-98757142D01*
X229062295Y-98757142D02*
X229062295Y-98833333D01*
X229062295Y-98833333D02*
X229100390Y-98947618D01*
X229100390Y-98947618D02*
X229138485Y-98985714D01*
X229862295Y-99747618D02*
X229862295Y-99290475D01*
X229862295Y-99519047D02*
X229062295Y-99519047D01*
X229062295Y-99519047D02*
X229176580Y-99442856D01*
X229176580Y-99442856D02*
X229252771Y-99366666D01*
X229252771Y-99366666D02*
X229290866Y-99290475D01*
X229405152Y-100204761D02*
X229367057Y-100128571D01*
X229367057Y-100128571D02*
X229328961Y-100090476D01*
X229328961Y-100090476D02*
X229252771Y-100052380D01*
X229252771Y-100052380D02*
X229214676Y-100052380D01*
X229214676Y-100052380D02*
X229138485Y-100090476D01*
X229138485Y-100090476D02*
X229100390Y-100128571D01*
X229100390Y-100128571D02*
X229062295Y-100204761D01*
X229062295Y-100204761D02*
X229062295Y-100357142D01*
X229062295Y-100357142D02*
X229100390Y-100433333D01*
X229100390Y-100433333D02*
X229138485Y-100471428D01*
X229138485Y-100471428D02*
X229214676Y-100509523D01*
X229214676Y-100509523D02*
X229252771Y-100509523D01*
X229252771Y-100509523D02*
X229328961Y-100471428D01*
X229328961Y-100471428D02*
X229367057Y-100433333D01*
X229367057Y-100433333D02*
X229405152Y-100357142D01*
X229405152Y-100357142D02*
X229405152Y-100204761D01*
X229405152Y-100204761D02*
X229443247Y-100128571D01*
X229443247Y-100128571D02*
X229481342Y-100090476D01*
X229481342Y-100090476D02*
X229557533Y-100052380D01*
X229557533Y-100052380D02*
X229709914Y-100052380D01*
X229709914Y-100052380D02*
X229786104Y-100090476D01*
X229786104Y-100090476D02*
X229824200Y-100128571D01*
X229824200Y-100128571D02*
X229862295Y-100204761D01*
X229862295Y-100204761D02*
X229862295Y-100357142D01*
X229862295Y-100357142D02*
X229824200Y-100433333D01*
X229824200Y-100433333D02*
X229786104Y-100471428D01*
X229786104Y-100471428D02*
X229709914Y-100509523D01*
X229709914Y-100509523D02*
X229557533Y-100509523D01*
X229557533Y-100509523D02*
X229481342Y-100471428D01*
X229481342Y-100471428D02*
X229443247Y-100433333D01*
X229443247Y-100433333D02*
X229405152Y-100357142D01*
X229860939Y-96381137D02*
X229860939Y-95581137D01*
X229860939Y-95581137D02*
X229670463Y-95581137D01*
X229670463Y-95581137D02*
X229556177Y-95619232D01*
X229556177Y-95619232D02*
X229479987Y-95695422D01*
X229479987Y-95695422D02*
X229441892Y-95771613D01*
X229441892Y-95771613D02*
X229403796Y-95923994D01*
X229403796Y-95923994D02*
X229403796Y-96038280D01*
X229403796Y-96038280D02*
X229441892Y-96190661D01*
X229441892Y-96190661D02*
X229479987Y-96266851D01*
X229479987Y-96266851D02*
X229556177Y-96343042D01*
X229556177Y-96343042D02*
X229670463Y-96381137D01*
X229670463Y-96381137D02*
X229860939Y-96381137D01*
X229137130Y-95581137D02*
X228641892Y-95581137D01*
X228641892Y-95581137D02*
X228908558Y-95885899D01*
X228908558Y-95885899D02*
X228794273Y-95885899D01*
X228794273Y-95885899D02*
X228718082Y-95923994D01*
X228718082Y-95923994D02*
X228679987Y-95962089D01*
X228679987Y-95962089D02*
X228641892Y-96038280D01*
X228641892Y-96038280D02*
X228641892Y-96228756D01*
X228641892Y-96228756D02*
X228679987Y-96304946D01*
X228679987Y-96304946D02*
X228718082Y-96343042D01*
X228718082Y-96343042D02*
X228794273Y-96381137D01*
X228794273Y-96381137D02*
X229022844Y-96381137D01*
X229022844Y-96381137D02*
X229099035Y-96343042D01*
X229099035Y-96343042D02*
X229137130Y-96304946D01*
X232362295Y-98909524D02*
X231562295Y-98909524D01*
X231562295Y-98909524D02*
X231562295Y-99100000D01*
X231562295Y-99100000D02*
X231600390Y-99214286D01*
X231600390Y-99214286D02*
X231676580Y-99290476D01*
X231676580Y-99290476D02*
X231752771Y-99328571D01*
X231752771Y-99328571D02*
X231905152Y-99366667D01*
X231905152Y-99366667D02*
X232019438Y-99366667D01*
X232019438Y-99366667D02*
X232171819Y-99328571D01*
X232171819Y-99328571D02*
X232248009Y-99290476D01*
X232248009Y-99290476D02*
X232324200Y-99214286D01*
X232324200Y-99214286D02*
X232362295Y-99100000D01*
X232362295Y-99100000D02*
X232362295Y-98909524D01*
X231562295Y-100090476D02*
X231562295Y-99709524D01*
X231562295Y-99709524D02*
X231943247Y-99671428D01*
X231943247Y-99671428D02*
X231905152Y-99709524D01*
X231905152Y-99709524D02*
X231867057Y-99785714D01*
X231867057Y-99785714D02*
X231867057Y-99976190D01*
X231867057Y-99976190D02*
X231905152Y-100052381D01*
X231905152Y-100052381D02*
X231943247Y-100090476D01*
X231943247Y-100090476D02*
X232019438Y-100128571D01*
X232019438Y-100128571D02*
X232209914Y-100128571D01*
X232209914Y-100128571D02*
X232286104Y-100090476D01*
X232286104Y-100090476D02*
X232324200Y-100052381D01*
X232324200Y-100052381D02*
X232362295Y-99976190D01*
X232362295Y-99976190D02*
X232362295Y-99785714D01*
X232362295Y-99785714D02*
X232324200Y-99709524D01*
X232324200Y-99709524D02*
X232286104Y-99671428D01*
X229786104Y-101485714D02*
X229824200Y-101447618D01*
X229824200Y-101447618D02*
X229862295Y-101333333D01*
X229862295Y-101333333D02*
X229862295Y-101257142D01*
X229862295Y-101257142D02*
X229824200Y-101142856D01*
X229824200Y-101142856D02*
X229748009Y-101066666D01*
X229748009Y-101066666D02*
X229671819Y-101028571D01*
X229671819Y-101028571D02*
X229519438Y-100990475D01*
X229519438Y-100990475D02*
X229405152Y-100990475D01*
X229405152Y-100990475D02*
X229252771Y-101028571D01*
X229252771Y-101028571D02*
X229176580Y-101066666D01*
X229176580Y-101066666D02*
X229100390Y-101142856D01*
X229100390Y-101142856D02*
X229062295Y-101257142D01*
X229062295Y-101257142D02*
X229062295Y-101333333D01*
X229062295Y-101333333D02*
X229100390Y-101447618D01*
X229100390Y-101447618D02*
X229138485Y-101485714D01*
X229862295Y-102247618D02*
X229862295Y-101790475D01*
X229862295Y-102019047D02*
X229062295Y-102019047D01*
X229062295Y-102019047D02*
X229176580Y-101942856D01*
X229176580Y-101942856D02*
X229252771Y-101866666D01*
X229252771Y-101866666D02*
X229290866Y-101790475D01*
X229862295Y-102628571D02*
X229862295Y-102780952D01*
X229862295Y-102780952D02*
X229824200Y-102857142D01*
X229824200Y-102857142D02*
X229786104Y-102895238D01*
X229786104Y-102895238D02*
X229671819Y-102971428D01*
X229671819Y-102971428D02*
X229519438Y-103009523D01*
X229519438Y-103009523D02*
X229214676Y-103009523D01*
X229214676Y-103009523D02*
X229138485Y-102971428D01*
X229138485Y-102971428D02*
X229100390Y-102933333D01*
X229100390Y-102933333D02*
X229062295Y-102857142D01*
X229062295Y-102857142D02*
X229062295Y-102704761D01*
X229062295Y-102704761D02*
X229100390Y-102628571D01*
X229100390Y-102628571D02*
X229138485Y-102590476D01*
X229138485Y-102590476D02*
X229214676Y-102552380D01*
X229214676Y-102552380D02*
X229405152Y-102552380D01*
X229405152Y-102552380D02*
X229481342Y-102590476D01*
X229481342Y-102590476D02*
X229519438Y-102628571D01*
X229519438Y-102628571D02*
X229557533Y-102704761D01*
X229557533Y-102704761D02*
X229557533Y-102857142D01*
X229557533Y-102857142D02*
X229519438Y-102933333D01*
X229519438Y-102933333D02*
X229481342Y-102971428D01*
X229481342Y-102971428D02*
X229405152Y-103009523D01*
X222705215Y-98588727D02*
X222743311Y-98550631D01*
X222743311Y-98550631D02*
X222781406Y-98436346D01*
X222781406Y-98436346D02*
X222781406Y-98360155D01*
X222781406Y-98360155D02*
X222743311Y-98245869D01*
X222743311Y-98245869D02*
X222667120Y-98169679D01*
X222667120Y-98169679D02*
X222590930Y-98131584D01*
X222590930Y-98131584D02*
X222438549Y-98093488D01*
X222438549Y-98093488D02*
X222324263Y-98093488D01*
X222324263Y-98093488D02*
X222171882Y-98131584D01*
X222171882Y-98131584D02*
X222095691Y-98169679D01*
X222095691Y-98169679D02*
X222019501Y-98245869D01*
X222019501Y-98245869D02*
X221981406Y-98360155D01*
X221981406Y-98360155D02*
X221981406Y-98436346D01*
X221981406Y-98436346D02*
X222019501Y-98550631D01*
X222019501Y-98550631D02*
X222057596Y-98588727D01*
X222781406Y-99350631D02*
X222781406Y-98893488D01*
X222781406Y-99122060D02*
X221981406Y-99122060D01*
X221981406Y-99122060D02*
X222095691Y-99045869D01*
X222095691Y-99045869D02*
X222171882Y-98969679D01*
X222171882Y-98969679D02*
X222209977Y-98893488D01*
X221981406Y-99617298D02*
X221981406Y-100112536D01*
X221981406Y-100112536D02*
X222286168Y-99845870D01*
X222286168Y-99845870D02*
X222286168Y-99960155D01*
X222286168Y-99960155D02*
X222324263Y-100036346D01*
X222324263Y-100036346D02*
X222362358Y-100074441D01*
X222362358Y-100074441D02*
X222438549Y-100112536D01*
X222438549Y-100112536D02*
X222629025Y-100112536D01*
X222629025Y-100112536D02*
X222705215Y-100074441D01*
X222705215Y-100074441D02*
X222743311Y-100036346D01*
X222743311Y-100036346D02*
X222781406Y-99960155D01*
X222781406Y-99960155D02*
X222781406Y-99731584D01*
X222781406Y-99731584D02*
X222743311Y-99655393D01*
X222743311Y-99655393D02*
X222705215Y-99617298D01*
X231014285Y-91286104D02*
X231052381Y-91324200D01*
X231052381Y-91324200D02*
X231166666Y-91362295D01*
X231166666Y-91362295D02*
X231242857Y-91362295D01*
X231242857Y-91362295D02*
X231357143Y-91324200D01*
X231357143Y-91324200D02*
X231433333Y-91248009D01*
X231433333Y-91248009D02*
X231471428Y-91171819D01*
X231471428Y-91171819D02*
X231509524Y-91019438D01*
X231509524Y-91019438D02*
X231509524Y-90905152D01*
X231509524Y-90905152D02*
X231471428Y-90752771D01*
X231471428Y-90752771D02*
X231433333Y-90676580D01*
X231433333Y-90676580D02*
X231357143Y-90600390D01*
X231357143Y-90600390D02*
X231242857Y-90562295D01*
X231242857Y-90562295D02*
X231166666Y-90562295D01*
X231166666Y-90562295D02*
X231052381Y-90600390D01*
X231052381Y-90600390D02*
X231014285Y-90638485D01*
X230252381Y-91362295D02*
X230709524Y-91362295D01*
X230480952Y-91362295D02*
X230480952Y-90562295D01*
X230480952Y-90562295D02*
X230557143Y-90676580D01*
X230557143Y-90676580D02*
X230633333Y-90752771D01*
X230633333Y-90752771D02*
X230709524Y-90790866D01*
X229528571Y-90562295D02*
X229909523Y-90562295D01*
X229909523Y-90562295D02*
X229947619Y-90943247D01*
X229947619Y-90943247D02*
X229909523Y-90905152D01*
X229909523Y-90905152D02*
X229833333Y-90867057D01*
X229833333Y-90867057D02*
X229642857Y-90867057D01*
X229642857Y-90867057D02*
X229566666Y-90905152D01*
X229566666Y-90905152D02*
X229528571Y-90943247D01*
X229528571Y-90943247D02*
X229490476Y-91019438D01*
X229490476Y-91019438D02*
X229490476Y-91209914D01*
X229490476Y-91209914D02*
X229528571Y-91286104D01*
X229528571Y-91286104D02*
X229566666Y-91324200D01*
X229566666Y-91324200D02*
X229642857Y-91362295D01*
X229642857Y-91362295D02*
X229833333Y-91362295D01*
X229833333Y-91362295D02*
X229909523Y-91324200D01*
X229909523Y-91324200D02*
X229947619Y-91286104D01*
X223859049Y-103550178D02*
X223478096Y-103283511D01*
X223859049Y-103093035D02*
X223059049Y-103093035D01*
X223059049Y-103093035D02*
X223059049Y-103397797D01*
X223059049Y-103397797D02*
X223097144Y-103473987D01*
X223097144Y-103473987D02*
X223135239Y-103512082D01*
X223135239Y-103512082D02*
X223211430Y-103550178D01*
X223211430Y-103550178D02*
X223325715Y-103550178D01*
X223325715Y-103550178D02*
X223401906Y-103512082D01*
X223401906Y-103512082D02*
X223440001Y-103473987D01*
X223440001Y-103473987D02*
X223478096Y-103397797D01*
X223478096Y-103397797D02*
X223478096Y-103093035D01*
X223059049Y-103816844D02*
X223059049Y-104350178D01*
X223059049Y-104350178D02*
X223859049Y-104007320D01*
X217133332Y-89192295D02*
X217399999Y-88811342D01*
X217590475Y-89192295D02*
X217590475Y-88392295D01*
X217590475Y-88392295D02*
X217285713Y-88392295D01*
X217285713Y-88392295D02*
X217209523Y-88430390D01*
X217209523Y-88430390D02*
X217171428Y-88468485D01*
X217171428Y-88468485D02*
X217133332Y-88544676D01*
X217133332Y-88544676D02*
X217133332Y-88658961D01*
X217133332Y-88658961D02*
X217171428Y-88735152D01*
X217171428Y-88735152D02*
X217209523Y-88773247D01*
X217209523Y-88773247D02*
X217285713Y-88811342D01*
X217285713Y-88811342D02*
X217590475Y-88811342D01*
X216828571Y-88468485D02*
X216790475Y-88430390D01*
X216790475Y-88430390D02*
X216714285Y-88392295D01*
X216714285Y-88392295D02*
X216523809Y-88392295D01*
X216523809Y-88392295D02*
X216447618Y-88430390D01*
X216447618Y-88430390D02*
X216409523Y-88468485D01*
X216409523Y-88468485D02*
X216371428Y-88544676D01*
X216371428Y-88544676D02*
X216371428Y-88620866D01*
X216371428Y-88620866D02*
X216409523Y-88735152D01*
X216409523Y-88735152D02*
X216866666Y-89192295D01*
X216866666Y-89192295D02*
X216371428Y-89192295D01*
X235833332Y-106907200D02*
X235690475Y-106954819D01*
X235690475Y-106954819D02*
X235452380Y-106954819D01*
X235452380Y-106954819D02*
X235357142Y-106907200D01*
X235357142Y-106907200D02*
X235309523Y-106859580D01*
X235309523Y-106859580D02*
X235261904Y-106764342D01*
X235261904Y-106764342D02*
X235261904Y-106669104D01*
X235261904Y-106669104D02*
X235309523Y-106573866D01*
X235309523Y-106573866D02*
X235357142Y-106526247D01*
X235357142Y-106526247D02*
X235452380Y-106478628D01*
X235452380Y-106478628D02*
X235642856Y-106431009D01*
X235642856Y-106431009D02*
X235738094Y-106383390D01*
X235738094Y-106383390D02*
X235785713Y-106335771D01*
X235785713Y-106335771D02*
X235833332Y-106240533D01*
X235833332Y-106240533D02*
X235833332Y-106145295D01*
X235833332Y-106145295D02*
X235785713Y-106050057D01*
X235785713Y-106050057D02*
X235738094Y-106002438D01*
X235738094Y-106002438D02*
X235642856Y-105954819D01*
X235642856Y-105954819D02*
X235404761Y-105954819D01*
X235404761Y-105954819D02*
X235261904Y-106002438D01*
X234928570Y-105954819D02*
X234690475Y-106954819D01*
X234690475Y-106954819D02*
X234499999Y-106240533D01*
X234499999Y-106240533D02*
X234309523Y-106954819D01*
X234309523Y-106954819D02*
X234071428Y-105954819D01*
X233166666Y-106954819D02*
X233738094Y-106954819D01*
X233452380Y-106954819D02*
X233452380Y-105954819D01*
X233452380Y-105954819D02*
X233547618Y-106097676D01*
X233547618Y-106097676D02*
X233642856Y-106192914D01*
X233642856Y-106192914D02*
X233738094Y-106240533D01*
X223072980Y-95848651D02*
X223453932Y-95848651D01*
X223453932Y-95848651D02*
X223453932Y-95048651D01*
X222844409Y-95124841D02*
X222806313Y-95086746D01*
X222806313Y-95086746D02*
X222730123Y-95048651D01*
X222730123Y-95048651D02*
X222539647Y-95048651D01*
X222539647Y-95048651D02*
X222463456Y-95086746D01*
X222463456Y-95086746D02*
X222425361Y-95124841D01*
X222425361Y-95124841D02*
X222387266Y-95201032D01*
X222387266Y-95201032D02*
X222387266Y-95277222D01*
X222387266Y-95277222D02*
X222425361Y-95391508D01*
X222425361Y-95391508D02*
X222882504Y-95848651D01*
X222882504Y-95848651D02*
X222387266Y-95848651D01*
X225133332Y-99862295D02*
X225399999Y-99481342D01*
X225590475Y-99862295D02*
X225590475Y-99062295D01*
X225590475Y-99062295D02*
X225285713Y-99062295D01*
X225285713Y-99062295D02*
X225209523Y-99100390D01*
X225209523Y-99100390D02*
X225171428Y-99138485D01*
X225171428Y-99138485D02*
X225133332Y-99214676D01*
X225133332Y-99214676D02*
X225133332Y-99328961D01*
X225133332Y-99328961D02*
X225171428Y-99405152D01*
X225171428Y-99405152D02*
X225209523Y-99443247D01*
X225209523Y-99443247D02*
X225285713Y-99481342D01*
X225285713Y-99481342D02*
X225590475Y-99481342D01*
X224676190Y-99405152D02*
X224752380Y-99367057D01*
X224752380Y-99367057D02*
X224790475Y-99328961D01*
X224790475Y-99328961D02*
X224828571Y-99252771D01*
X224828571Y-99252771D02*
X224828571Y-99214676D01*
X224828571Y-99214676D02*
X224790475Y-99138485D01*
X224790475Y-99138485D02*
X224752380Y-99100390D01*
X224752380Y-99100390D02*
X224676190Y-99062295D01*
X224676190Y-99062295D02*
X224523809Y-99062295D01*
X224523809Y-99062295D02*
X224447618Y-99100390D01*
X224447618Y-99100390D02*
X224409523Y-99138485D01*
X224409523Y-99138485D02*
X224371428Y-99214676D01*
X224371428Y-99214676D02*
X224371428Y-99252771D01*
X224371428Y-99252771D02*
X224409523Y-99328961D01*
X224409523Y-99328961D02*
X224447618Y-99367057D01*
X224447618Y-99367057D02*
X224523809Y-99405152D01*
X224523809Y-99405152D02*
X224676190Y-99405152D01*
X224676190Y-99405152D02*
X224752380Y-99443247D01*
X224752380Y-99443247D02*
X224790475Y-99481342D01*
X224790475Y-99481342D02*
X224828571Y-99557533D01*
X224828571Y-99557533D02*
X224828571Y-99709914D01*
X224828571Y-99709914D02*
X224790475Y-99786104D01*
X224790475Y-99786104D02*
X224752380Y-99824200D01*
X224752380Y-99824200D02*
X224676190Y-99862295D01*
X224676190Y-99862295D02*
X224523809Y-99862295D01*
X224523809Y-99862295D02*
X224447618Y-99824200D01*
X224447618Y-99824200D02*
X224409523Y-99786104D01*
X224409523Y-99786104D02*
X224371428Y-99709914D01*
X224371428Y-99709914D02*
X224371428Y-99557533D01*
X224371428Y-99557533D02*
X224409523Y-99481342D01*
X224409523Y-99481342D02*
X224447618Y-99443247D01*
X224447618Y-99443247D02*
X224523809Y-99405152D01*
X233014285Y-86286104D02*
X233052381Y-86324200D01*
X233052381Y-86324200D02*
X233166666Y-86362295D01*
X233166666Y-86362295D02*
X233242857Y-86362295D01*
X233242857Y-86362295D02*
X233357143Y-86324200D01*
X233357143Y-86324200D02*
X233433333Y-86248009D01*
X233433333Y-86248009D02*
X233471428Y-86171819D01*
X233471428Y-86171819D02*
X233509524Y-86019438D01*
X233509524Y-86019438D02*
X233509524Y-85905152D01*
X233509524Y-85905152D02*
X233471428Y-85752771D01*
X233471428Y-85752771D02*
X233433333Y-85676580D01*
X233433333Y-85676580D02*
X233357143Y-85600390D01*
X233357143Y-85600390D02*
X233242857Y-85562295D01*
X233242857Y-85562295D02*
X233166666Y-85562295D01*
X233166666Y-85562295D02*
X233052381Y-85600390D01*
X233052381Y-85600390D02*
X233014285Y-85638485D01*
X232252381Y-86362295D02*
X232709524Y-86362295D01*
X232480952Y-86362295D02*
X232480952Y-85562295D01*
X232480952Y-85562295D02*
X232557143Y-85676580D01*
X232557143Y-85676580D02*
X232633333Y-85752771D01*
X232633333Y-85752771D02*
X232709524Y-85790866D01*
X231985714Y-85562295D02*
X231452380Y-85562295D01*
X231452380Y-85562295D02*
X231795238Y-86362295D01*
X221133332Y-98362295D02*
X221399999Y-97981342D01*
X221590475Y-98362295D02*
X221590475Y-97562295D01*
X221590475Y-97562295D02*
X221285713Y-97562295D01*
X221285713Y-97562295D02*
X221209523Y-97600390D01*
X221209523Y-97600390D02*
X221171428Y-97638485D01*
X221171428Y-97638485D02*
X221133332Y-97714676D01*
X221133332Y-97714676D02*
X221133332Y-97828961D01*
X221133332Y-97828961D02*
X221171428Y-97905152D01*
X221171428Y-97905152D02*
X221209523Y-97943247D01*
X221209523Y-97943247D02*
X221285713Y-97981342D01*
X221285713Y-97981342D02*
X221590475Y-97981342D01*
X220409523Y-97562295D02*
X220790475Y-97562295D01*
X220790475Y-97562295D02*
X220828571Y-97943247D01*
X220828571Y-97943247D02*
X220790475Y-97905152D01*
X220790475Y-97905152D02*
X220714285Y-97867057D01*
X220714285Y-97867057D02*
X220523809Y-97867057D01*
X220523809Y-97867057D02*
X220447618Y-97905152D01*
X220447618Y-97905152D02*
X220409523Y-97943247D01*
X220409523Y-97943247D02*
X220371428Y-98019438D01*
X220371428Y-98019438D02*
X220371428Y-98209914D01*
X220371428Y-98209914D02*
X220409523Y-98286104D01*
X220409523Y-98286104D02*
X220447618Y-98324200D01*
X220447618Y-98324200D02*
X220523809Y-98362295D01*
X220523809Y-98362295D02*
X220714285Y-98362295D01*
X220714285Y-98362295D02*
X220790475Y-98324200D01*
X220790475Y-98324200D02*
X220828571Y-98286104D01*
X213676666Y-97784819D02*
X214009999Y-97308628D01*
X214248094Y-97784819D02*
X214248094Y-96784819D01*
X214248094Y-96784819D02*
X213867142Y-96784819D01*
X213867142Y-96784819D02*
X213771904Y-96832438D01*
X213771904Y-96832438D02*
X213724285Y-96880057D01*
X213724285Y-96880057D02*
X213676666Y-96975295D01*
X213676666Y-96975295D02*
X213676666Y-97118152D01*
X213676666Y-97118152D02*
X213724285Y-97213390D01*
X213724285Y-97213390D02*
X213771904Y-97261009D01*
X213771904Y-97261009D02*
X213867142Y-97308628D01*
X213867142Y-97308628D02*
X214248094Y-97308628D01*
X212819523Y-97118152D02*
X212819523Y-97784819D01*
X213057618Y-96737200D02*
X213295713Y-97451485D01*
X213295713Y-97451485D02*
X212676666Y-97451485D01*
X227609523Y-102562295D02*
X227609523Y-103209914D01*
X227609523Y-103209914D02*
X227571428Y-103286104D01*
X227571428Y-103286104D02*
X227533333Y-103324200D01*
X227533333Y-103324200D02*
X227457142Y-103362295D01*
X227457142Y-103362295D02*
X227304761Y-103362295D01*
X227304761Y-103362295D02*
X227228571Y-103324200D01*
X227228571Y-103324200D02*
X227190476Y-103286104D01*
X227190476Y-103286104D02*
X227152380Y-103209914D01*
X227152380Y-103209914D02*
X227152380Y-102562295D01*
X226428571Y-102562295D02*
X226580952Y-102562295D01*
X226580952Y-102562295D02*
X226657143Y-102600390D01*
X226657143Y-102600390D02*
X226695238Y-102638485D01*
X226695238Y-102638485D02*
X226771428Y-102752771D01*
X226771428Y-102752771D02*
X226809524Y-102905152D01*
X226809524Y-102905152D02*
X226809524Y-103209914D01*
X226809524Y-103209914D02*
X226771428Y-103286104D01*
X226771428Y-103286104D02*
X226733333Y-103324200D01*
X226733333Y-103324200D02*
X226657143Y-103362295D01*
X226657143Y-103362295D02*
X226504762Y-103362295D01*
X226504762Y-103362295D02*
X226428571Y-103324200D01*
X226428571Y-103324200D02*
X226390476Y-103286104D01*
X226390476Y-103286104D02*
X226352381Y-103209914D01*
X226352381Y-103209914D02*
X226352381Y-103019438D01*
X226352381Y-103019438D02*
X226390476Y-102943247D01*
X226390476Y-102943247D02*
X226428571Y-102905152D01*
X226428571Y-102905152D02*
X226504762Y-102867057D01*
X226504762Y-102867057D02*
X226657143Y-102867057D01*
X226657143Y-102867057D02*
X226733333Y-102905152D01*
X226733333Y-102905152D02*
X226771428Y-102943247D01*
X226771428Y-102943247D02*
X226809524Y-103019438D01*
X234633332Y-89362295D02*
X234899999Y-88981342D01*
X235090475Y-89362295D02*
X235090475Y-88562295D01*
X235090475Y-88562295D02*
X234785713Y-88562295D01*
X234785713Y-88562295D02*
X234709523Y-88600390D01*
X234709523Y-88600390D02*
X234671428Y-88638485D01*
X234671428Y-88638485D02*
X234633332Y-88714676D01*
X234633332Y-88714676D02*
X234633332Y-88828961D01*
X234633332Y-88828961D02*
X234671428Y-88905152D01*
X234671428Y-88905152D02*
X234709523Y-88943247D01*
X234709523Y-88943247D02*
X234785713Y-88981342D01*
X234785713Y-88981342D02*
X235090475Y-88981342D01*
X233947618Y-88562295D02*
X234099999Y-88562295D01*
X234099999Y-88562295D02*
X234176190Y-88600390D01*
X234176190Y-88600390D02*
X234214285Y-88638485D01*
X234214285Y-88638485D02*
X234290475Y-88752771D01*
X234290475Y-88752771D02*
X234328571Y-88905152D01*
X234328571Y-88905152D02*
X234328571Y-89209914D01*
X234328571Y-89209914D02*
X234290475Y-89286104D01*
X234290475Y-89286104D02*
X234252380Y-89324200D01*
X234252380Y-89324200D02*
X234176190Y-89362295D01*
X234176190Y-89362295D02*
X234023809Y-89362295D01*
X234023809Y-89362295D02*
X233947618Y-89324200D01*
X233947618Y-89324200D02*
X233909523Y-89286104D01*
X233909523Y-89286104D02*
X233871428Y-89209914D01*
X233871428Y-89209914D02*
X233871428Y-89019438D01*
X233871428Y-89019438D02*
X233909523Y-88943247D01*
X233909523Y-88943247D02*
X233947618Y-88905152D01*
X233947618Y-88905152D02*
X234023809Y-88867057D01*
X234023809Y-88867057D02*
X234176190Y-88867057D01*
X234176190Y-88867057D02*
X234252380Y-88905152D01*
X234252380Y-88905152D02*
X234290475Y-88943247D01*
X234290475Y-88943247D02*
X234328571Y-89019438D01*
X261114346Y-92695679D02*
X261114346Y-93343298D01*
X261114346Y-93343298D02*
X261076251Y-93419488D01*
X261076251Y-93419488D02*
X261038156Y-93457584D01*
X261038156Y-93457584D02*
X260961965Y-93495679D01*
X260961965Y-93495679D02*
X260809584Y-93495679D01*
X260809584Y-93495679D02*
X260733394Y-93457584D01*
X260733394Y-93457584D02*
X260695299Y-93419488D01*
X260695299Y-93419488D02*
X260657203Y-93343298D01*
X260657203Y-93343298D02*
X260657203Y-92695679D01*
X260352442Y-92695679D02*
X259857204Y-92695679D01*
X259857204Y-92695679D02*
X260123870Y-93000441D01*
X260123870Y-93000441D02*
X260009585Y-93000441D01*
X260009585Y-93000441D02*
X259933394Y-93038536D01*
X259933394Y-93038536D02*
X259895299Y-93076631D01*
X259895299Y-93076631D02*
X259857204Y-93152822D01*
X259857204Y-93152822D02*
X259857204Y-93343298D01*
X259857204Y-93343298D02*
X259895299Y-93419488D01*
X259895299Y-93419488D02*
X259933394Y-93457584D01*
X259933394Y-93457584D02*
X260009585Y-93495679D01*
X260009585Y-93495679D02*
X260238156Y-93495679D01*
X260238156Y-93495679D02*
X260314347Y-93457584D01*
X260314347Y-93457584D02*
X260352442Y-93419488D01*
X230590475Y-104362295D02*
X230590475Y-103562295D01*
X230590475Y-103562295D02*
X230399999Y-103562295D01*
X230399999Y-103562295D02*
X230285713Y-103600390D01*
X230285713Y-103600390D02*
X230209523Y-103676580D01*
X230209523Y-103676580D02*
X230171428Y-103752771D01*
X230171428Y-103752771D02*
X230133332Y-103905152D01*
X230133332Y-103905152D02*
X230133332Y-104019438D01*
X230133332Y-104019438D02*
X230171428Y-104171819D01*
X230171428Y-104171819D02*
X230209523Y-104248009D01*
X230209523Y-104248009D02*
X230285713Y-104324200D01*
X230285713Y-104324200D02*
X230399999Y-104362295D01*
X230399999Y-104362295D02*
X230590475Y-104362295D01*
X229828571Y-103638485D02*
X229790475Y-103600390D01*
X229790475Y-103600390D02*
X229714285Y-103562295D01*
X229714285Y-103562295D02*
X229523809Y-103562295D01*
X229523809Y-103562295D02*
X229447618Y-103600390D01*
X229447618Y-103600390D02*
X229409523Y-103638485D01*
X229409523Y-103638485D02*
X229371428Y-103714676D01*
X229371428Y-103714676D02*
X229371428Y-103790866D01*
X229371428Y-103790866D02*
X229409523Y-103905152D01*
X229409523Y-103905152D02*
X229866666Y-104362295D01*
X229866666Y-104362295D02*
X229371428Y-104362295D01*
X224266666Y-106562295D02*
X224266666Y-107133723D01*
X224266666Y-107133723D02*
X224304761Y-107248009D01*
X224304761Y-107248009D02*
X224380952Y-107324200D01*
X224380952Y-107324200D02*
X224495237Y-107362295D01*
X224495237Y-107362295D02*
X224571428Y-107362295D01*
X223923809Y-106638485D02*
X223885713Y-106600390D01*
X223885713Y-106600390D02*
X223809523Y-106562295D01*
X223809523Y-106562295D02*
X223619047Y-106562295D01*
X223619047Y-106562295D02*
X223542856Y-106600390D01*
X223542856Y-106600390D02*
X223504761Y-106638485D01*
X223504761Y-106638485D02*
X223466666Y-106714676D01*
X223466666Y-106714676D02*
X223466666Y-106790866D01*
X223466666Y-106790866D02*
X223504761Y-106905152D01*
X223504761Y-106905152D02*
X223961904Y-107362295D01*
X223961904Y-107362295D02*
X223466666Y-107362295D01*
D11*
X228270000Y-88330000D02*
X220590000Y-88330000D01*
X228270000Y-88330000D02*
X228270000Y-85670000D01*
X220590000Y-88330000D02*
X220590000Y-85670000D01*
X230870000Y-87000000D02*
X230870000Y-85670000D01*
X230870000Y-85670000D02*
X229540000Y-85670000D01*
X228270000Y-85670000D02*
X220590000Y-85670000D01*
X221340000Y-96690000D02*
X221010000Y-96450000D01*
X221340000Y-96210000D01*
X221340000Y-96690000D01*
G36*
X221340000Y-96690000D02*
G01*
X221010000Y-96450000D01*
X221340000Y-96210000D01*
X221340000Y-96690000D01*
G37*
X221060000Y-94090000D02*
X221010000Y-94090000D01*
X217990000Y-94090000D02*
X217940000Y-94090000D01*
X217940000Y-94090000D02*
X217940000Y-95910000D01*
X221060000Y-95910000D02*
X221060000Y-94090000D01*
X221010000Y-95910000D02*
X221060000Y-95910000D01*
X217940000Y-95910000D02*
X217990000Y-95910000D01*
X221107836Y-89640000D02*
X220892164Y-89640000D01*
X221107836Y-90360000D02*
X220892164Y-90360000D01*
X232587836Y-89640000D02*
X232372164Y-89640000D01*
X232587836Y-90360000D02*
X232372164Y-90360000D01*
X217153641Y-91620000D02*
X216846359Y-91620000D01*
X217153641Y-92380000D02*
X216846359Y-92380000D01*
X225305353Y-96431394D02*
X225089681Y-96431394D01*
X225305353Y-97151394D02*
X225089681Y-97151394D01*
X226590000Y-92440000D02*
X226590000Y-92490000D01*
X226590000Y-93610000D02*
X226590000Y-94390000D01*
X226590000Y-95510000D02*
X226590000Y-95560000D01*
X226590000Y-95560000D02*
X228410000Y-95560000D01*
X228410000Y-92440000D02*
X226590000Y-92440000D01*
X228410000Y-92490000D02*
X228410000Y-92440000D01*
X228410000Y-95560000D02*
X228410000Y-95510000D01*
X228950000Y-92490000D02*
X228710000Y-92160000D01*
X229190000Y-92160000D01*
X228950000Y-92490000D01*
G36*
X228950000Y-92490000D02*
G01*
X228710000Y-92160000D01*
X229190000Y-92160000D01*
X228950000Y-92490000D01*
G37*
D12*
X235640000Y-88000000D02*
G75*
G02*
X235540000Y-88000000I-50000J0D01*
G01*
X235540000Y-88000000D02*
G75*
G02*
X235640000Y-88000000I50000J0D01*
G01*
D11*
X230140000Y-100392164D02*
X230140000Y-100607836D01*
X230860000Y-100392164D02*
X230860000Y-100607836D01*
X229610000Y-96650000D02*
X226950000Y-96650000D01*
X229610000Y-96650000D02*
X229610000Y-98350000D01*
X229610000Y-98350000D02*
X226950000Y-98350000D01*
X230150000Y-95390000D02*
X230150000Y-98050000D01*
X230150000Y-95390000D02*
X231850000Y-95390000D01*
X231850000Y-95390000D02*
X231850000Y-98050000D01*
X230140000Y-102607836D02*
X230140000Y-102392164D01*
X230860000Y-102607836D02*
X230860000Y-102392164D01*
X222892164Y-97140000D02*
X223107836Y-97140000D01*
X222892164Y-97860000D02*
X223107836Y-97860000D01*
X230392164Y-91640000D02*
X230607836Y-91640000D01*
X230392164Y-92360000D02*
X230607836Y-92360000D01*
X225153641Y-103120000D02*
X224846359Y-103120000D01*
X225153641Y-103880000D02*
X224846359Y-103880000D01*
X217153641Y-89620000D02*
X216846359Y-89620000D01*
X217153641Y-90380000D02*
X216846359Y-90380000D01*
X234000000Y-99400000D02*
X234000000Y-101100000D01*
X234000000Y-102400000D02*
X234000000Y-102600000D01*
X235100000Y-97550000D02*
X235900000Y-97550000D01*
X235100000Y-104450000D02*
X235900000Y-104450000D01*
X225153641Y-97833989D02*
X224846359Y-97833989D01*
X225153641Y-98593989D02*
X224846359Y-98593989D01*
X232607836Y-87640000D02*
X232392164Y-87640000D01*
X232607836Y-88360000D02*
X232392164Y-88360000D01*
X218846359Y-97620000D02*
X219153641Y-97620000D01*
X218846359Y-98380000D02*
X219153641Y-98380000D01*
X213663641Y-98120000D02*
X213356359Y-98120000D01*
X213663641Y-98880000D02*
X213356359Y-98880000D01*
X225315000Y-102285000D02*
X228535000Y-102285000D01*
X228110568Y-100015000D02*
X225315000Y-100015000D01*
X228405000Y-100010000D02*
X228265000Y-99820000D01*
X228545000Y-99820000D01*
X228405000Y-100010000D01*
G36*
X228405000Y-100010000D02*
G01*
X228265000Y-99820000D01*
X228545000Y-99820000D01*
X228405000Y-100010000D01*
G37*
X234653641Y-89620000D02*
X234346359Y-89620000D01*
X234653641Y-90380000D02*
X234346359Y-90380000D01*
X261254823Y-93973384D02*
X259754823Y-93973384D01*
X261254823Y-95693384D02*
X259754823Y-95693384D01*
X261984823Y-94233384D02*
X261704823Y-94233384D01*
X261704823Y-93953384D01*
X261984823Y-94233384D01*
G36*
X261984823Y-94233384D02*
G01*
X261704823Y-94233384D01*
X261704823Y-93953384D01*
X261984823Y-94233384D01*
G37*
D12*
X227460000Y-103500000D02*
G75*
G02*
X227360000Y-103500000I-50000J0D01*
G01*
X227360000Y-103500000D02*
G75*
G02*
X227460000Y-103500000I50000J0D01*
G01*
D11*
X213277745Y-106465150D02*
X213277745Y-107000000D01*
X213338632Y-102625043D02*
X213338632Y-104625043D01*
X222677745Y-106465150D02*
X222677745Y-107000000D01*
X222677745Y-107000000D02*
X213277745Y-107000000D01*
X222692863Y-102609295D02*
X222692863Y-104609295D01*
%LPC*%
G36*
X229600000Y-106375000D02*
G01*
X227900000Y-106375000D01*
X227900000Y-104675000D01*
X229600000Y-104675000D01*
X229600000Y-106375000D01*
G37*
G36*
X226456742Y-104711601D02*
G01*
X226610687Y-104775367D01*
X226749234Y-104867941D01*
X226867059Y-104985766D01*
X226959633Y-105124313D01*
X227023399Y-105278258D01*
X227055907Y-105441685D01*
X227055907Y-105608315D01*
X227023399Y-105771742D01*
X226959633Y-105925687D01*
X226867059Y-106064234D01*
X226749234Y-106182059D01*
X226610687Y-106274633D01*
X226456742Y-106338399D01*
X226293315Y-106370907D01*
X226126685Y-106370907D01*
X225963258Y-106338399D01*
X225809313Y-106274633D01*
X225670766Y-106182059D01*
X225552941Y-106064234D01*
X225460367Y-105925687D01*
X225396601Y-105771742D01*
X225364093Y-105608315D01*
X225364093Y-105441685D01*
X225396601Y-105278258D01*
X225460367Y-105124313D01*
X225552941Y-104985766D01*
X225670766Y-104867941D01*
X225809313Y-104775367D01*
X225963258Y-104711601D01*
X226126685Y-104679093D01*
X226293315Y-104679093D01*
X226456742Y-104711601D01*
G37*
G36*
X213871342Y-104788060D02*
G01*
X213984381Y-104853323D01*
X214076677Y-104945619D01*
X214141940Y-105058658D01*
X214175722Y-105184737D01*
X214180000Y-105250000D01*
X214180000Y-105850000D01*
X214175722Y-105915263D01*
X214141940Y-106041342D01*
X214076677Y-106154381D01*
X213984381Y-106246677D01*
X213871342Y-106311940D01*
X213745263Y-106345722D01*
X213614737Y-106345722D01*
X213488658Y-106311940D01*
X213375619Y-106246677D01*
X213283323Y-106154381D01*
X213218060Y-106041342D01*
X213184278Y-105915263D01*
X213180000Y-105850000D01*
X213180000Y-105250000D01*
X213184278Y-105184737D01*
X213218060Y-105058658D01*
X213283323Y-104945619D01*
X213375619Y-104853323D01*
X213488658Y-104788060D01*
X213614737Y-104754278D01*
X213745263Y-104754278D01*
X213871342Y-104788060D01*
G37*
G36*
X222511342Y-104788060D02*
G01*
X222624381Y-104853323D01*
X222716677Y-104945619D01*
X222781940Y-105058658D01*
X222815722Y-105184737D01*
X222820000Y-105250000D01*
X222820000Y-105850000D01*
X222815722Y-105915263D01*
X222781940Y-106041342D01*
X222716677Y-106154381D01*
X222624381Y-106246677D01*
X222511342Y-106311940D01*
X222385263Y-106345722D01*
X222254737Y-106345722D01*
X222128658Y-106311940D01*
X222015619Y-106246677D01*
X221923323Y-106154381D01*
X221858060Y-106041342D01*
X221824278Y-105915263D01*
X221820000Y-105850000D01*
X221820000Y-105250000D01*
X221824278Y-105184737D01*
X221858060Y-105058658D01*
X221923323Y-104945619D01*
X222015619Y-104853323D01*
X222128658Y-104788060D01*
X222254737Y-104754278D01*
X222385263Y-104754278D01*
X222511342Y-104788060D01*
G37*
G36*
X234641970Y-104163321D02*
G01*
X234698744Y-104201256D01*
X234736679Y-104258030D01*
X234750000Y-104325000D01*
X234750000Y-105025000D01*
X234736679Y-105091970D01*
X234698744Y-105148744D01*
X234641970Y-105186679D01*
X234575000Y-105200000D01*
X234225000Y-105200000D01*
X234158030Y-105186679D01*
X234101256Y-105148744D01*
X234063321Y-105091970D01*
X234050000Y-105025000D01*
X234050000Y-104325000D01*
X234063321Y-104258030D01*
X234101256Y-104201256D01*
X234158030Y-104163321D01*
X234225000Y-104150000D01*
X234575000Y-104150000D01*
X234641970Y-104163321D01*
G37*
G36*
X236841970Y-104163321D02*
G01*
X236898744Y-104201256D01*
X236936679Y-104258030D01*
X236950000Y-104325000D01*
X236950000Y-105025000D01*
X236936679Y-105091970D01*
X236898744Y-105148744D01*
X236841970Y-105186679D01*
X236775000Y-105200000D01*
X236425000Y-105200000D01*
X236358030Y-105186679D01*
X236301256Y-105148744D01*
X236263321Y-105091970D01*
X236250000Y-105025000D01*
X236250000Y-104325000D01*
X236263321Y-104258030D01*
X236301256Y-104201256D01*
X236358030Y-104163321D01*
X236425000Y-104150000D01*
X236775000Y-104150000D01*
X236841970Y-104163321D01*
G37*
G36*
X224676662Y-103190276D02*
G01*
X224720459Y-103219541D01*
X224749724Y-103263338D01*
X224760000Y-103315000D01*
X224760000Y-103685000D01*
X224749724Y-103736662D01*
X224720459Y-103780459D01*
X224676662Y-103809724D01*
X224625000Y-103820000D01*
X224355000Y-103820000D01*
X224303338Y-103809724D01*
X224259541Y-103780459D01*
X224230276Y-103736662D01*
X224220000Y-103685000D01*
X224220000Y-103315000D01*
X224230276Y-103263338D01*
X224259541Y-103219541D01*
X224303338Y-103190276D01*
X224355000Y-103180000D01*
X224625000Y-103180000D01*
X224676662Y-103190276D01*
G37*
G36*
X225696662Y-103190276D02*
G01*
X225740459Y-103219541D01*
X225769724Y-103263338D01*
X225780000Y-103315000D01*
X225780000Y-103685000D01*
X225769724Y-103736662D01*
X225740459Y-103780459D01*
X225696662Y-103809724D01*
X225645000Y-103820000D01*
X225375000Y-103820000D01*
X225323338Y-103809724D01*
X225279541Y-103780459D01*
X225250276Y-103736662D01*
X225240000Y-103685000D01*
X225240000Y-103315000D01*
X225250276Y-103263338D01*
X225279541Y-103219541D01*
X225323338Y-103190276D01*
X225375000Y-103180000D01*
X225645000Y-103180000D01*
X225696662Y-103190276D01*
G37*
G36*
X228218946Y-103191228D02*
G01*
X228266798Y-103223202D01*
X228298772Y-103271054D01*
X228310000Y-103327500D01*
X228310000Y-103672500D01*
X228298772Y-103728946D01*
X228266798Y-103776798D01*
X228218946Y-103808772D01*
X228162500Y-103820000D01*
X227867500Y-103820000D01*
X227811054Y-103808772D01*
X227763202Y-103776798D01*
X227731228Y-103728946D01*
X227720000Y-103672500D01*
X227720000Y-103327500D01*
X227731228Y-103271054D01*
X227763202Y-103223202D01*
X227811054Y-103191228D01*
X227867500Y-103180000D01*
X228162500Y-103180000D01*
X228218946Y-103191228D01*
G37*
G36*
X229188946Y-103191228D02*
G01*
X229236798Y-103223202D01*
X229268772Y-103271054D01*
X229280000Y-103327500D01*
X229280000Y-103672500D01*
X229268772Y-103728946D01*
X229236798Y-103776798D01*
X229188946Y-103808772D01*
X229132500Y-103820000D01*
X228837500Y-103820000D01*
X228781054Y-103808772D01*
X228733202Y-103776798D01*
X228701228Y-103728946D01*
X228690000Y-103672500D01*
X228690000Y-103327500D01*
X228701228Y-103271054D01*
X228733202Y-103223202D01*
X228781054Y-103191228D01*
X228837500Y-103180000D01*
X229132500Y-103180000D01*
X229188946Y-103191228D01*
G37*
G36*
X234107403Y-102961418D02*
G01*
X234156066Y-102993934D01*
X234188582Y-103042597D01*
X234200000Y-103100000D01*
X234200000Y-103400000D01*
X234188582Y-103457403D01*
X234156066Y-103506066D01*
X234107403Y-103538582D01*
X234050000Y-103550000D01*
X233050000Y-103550000D01*
X232992597Y-103538582D01*
X232943934Y-103506066D01*
X232911418Y-103457403D01*
X232900000Y-103400000D01*
X232900000Y-103100000D01*
X232911418Y-103042597D01*
X232943934Y-102993934D01*
X232992597Y-102961418D01*
X233050000Y-102950000D01*
X234050000Y-102950000D01*
X234107403Y-102961418D01*
G37*
G36*
X230723576Y-102710657D02*
G01*
X230768995Y-102741005D01*
X230799343Y-102786424D01*
X230810000Y-102840000D01*
X230810000Y-103120000D01*
X230799343Y-103173576D01*
X230768995Y-103218995D01*
X230723576Y-103249343D01*
X230670000Y-103260000D01*
X230330000Y-103260000D01*
X230276424Y-103249343D01*
X230231005Y-103218995D01*
X230200657Y-103173576D01*
X230190000Y-103120000D01*
X230190000Y-102840000D01*
X230200657Y-102786424D01*
X230231005Y-102741005D01*
X230276424Y-102710657D01*
X230330000Y-102700000D01*
X230670000Y-102700000D01*
X230723576Y-102710657D01*
G37*
G36*
X235662640Y-102107351D02*
G01*
X235758724Y-102162825D01*
X235837175Y-102241276D01*
X235892649Y-102337360D01*
X235921364Y-102444526D01*
X235921364Y-102555474D01*
X235892649Y-102662640D01*
X235837175Y-102758724D01*
X235758724Y-102837175D01*
X235662640Y-102892649D01*
X235555474Y-102921364D01*
X235444526Y-102921364D01*
X235337360Y-102892649D01*
X235241276Y-102837175D01*
X235162825Y-102758724D01*
X235107351Y-102662640D01*
X235078636Y-102555474D01*
X235078636Y-102444526D01*
X235107351Y-102337360D01*
X235162825Y-102241276D01*
X235241276Y-102162825D01*
X235337360Y-102107351D01*
X235444526Y-102078636D01*
X235555474Y-102078636D01*
X235662640Y-102107351D01*
G37*
G36*
X213871342Y-100358060D02*
G01*
X213984381Y-100423323D01*
X214076677Y-100515619D01*
X214141940Y-100628658D01*
X214175722Y-100754737D01*
X214180000Y-100820000D01*
X214180000Y-101920000D01*
X214175722Y-101985263D01*
X214141940Y-102111342D01*
X214076677Y-102224381D01*
X213984381Y-102316677D01*
X213871342Y-102381940D01*
X213745263Y-102415722D01*
X213614737Y-102415722D01*
X213488658Y-102381940D01*
X213375619Y-102316677D01*
X213283323Y-102224381D01*
X213218060Y-102111342D01*
X213184278Y-101985263D01*
X213180000Y-101920000D01*
X213180000Y-100820000D01*
X213184278Y-100754737D01*
X213218060Y-100628658D01*
X213283323Y-100515619D01*
X213375619Y-100423323D01*
X213488658Y-100358060D01*
X213614737Y-100324278D01*
X213745263Y-100324278D01*
X213871342Y-100358060D01*
G37*
G36*
X222511342Y-100358060D02*
G01*
X222624381Y-100423323D01*
X222716677Y-100515619D01*
X222781940Y-100628658D01*
X222815722Y-100754737D01*
X222820000Y-100820000D01*
X222820000Y-101920000D01*
X222815722Y-101985263D01*
X222781940Y-102111342D01*
X222716677Y-102224381D01*
X222624381Y-102316677D01*
X222511342Y-102381940D01*
X222385263Y-102415722D01*
X222254737Y-102415722D01*
X222128658Y-102381940D01*
X222015619Y-102316677D01*
X221923323Y-102224381D01*
X221858060Y-102111342D01*
X221824278Y-101985263D01*
X221820000Y-101920000D01*
X221820000Y-100820000D01*
X221824278Y-100754737D01*
X221858060Y-100628658D01*
X221923323Y-100515619D01*
X222015619Y-100423323D01*
X222128658Y-100358060D01*
X222254737Y-100324278D01*
X222385263Y-100324278D01*
X222511342Y-100358060D01*
G37*
G36*
X230723576Y-101750657D02*
G01*
X230768995Y-101781005D01*
X230799343Y-101826424D01*
X230810000Y-101880000D01*
X230810000Y-102160000D01*
X230799343Y-102213576D01*
X230768995Y-102258995D01*
X230723576Y-102289343D01*
X230670000Y-102300000D01*
X230330000Y-102300000D01*
X230276424Y-102289343D01*
X230231005Y-102258995D01*
X230200657Y-102213576D01*
X230190000Y-102160000D01*
X230190000Y-101880000D01*
X230200657Y-101826424D01*
X230231005Y-101781005D01*
X230276424Y-101750657D01*
X230330000Y-101740000D01*
X230670000Y-101740000D01*
X230723576Y-101750657D01*
G37*
G36*
X215234372Y-101599739D02*
G01*
X215307847Y-101642160D01*
X215367840Y-101702153D01*
X215410261Y-101775628D01*
X215432220Y-101857579D01*
X215432220Y-101942421D01*
X215410261Y-102024372D01*
X215367840Y-102097847D01*
X215307847Y-102157840D01*
X215234372Y-102200261D01*
X215152421Y-102222220D01*
X215067579Y-102222220D01*
X214985628Y-102200261D01*
X214912153Y-102157840D01*
X214852160Y-102097847D01*
X214809739Y-102024372D01*
X214787780Y-101942421D01*
X214787780Y-101857579D01*
X214809739Y-101775628D01*
X214852160Y-101702153D01*
X214912153Y-101642160D01*
X214985628Y-101599739D01*
X215067579Y-101577780D01*
X215152421Y-101577780D01*
X215234372Y-101599739D01*
G37*
G36*
X221014372Y-101599739D02*
G01*
X221087847Y-101642160D01*
X221147840Y-101702153D01*
X221190261Y-101775628D01*
X221212220Y-101857579D01*
X221212220Y-101942421D01*
X221190261Y-102024372D01*
X221147840Y-102097847D01*
X221087847Y-102157840D01*
X221014372Y-102200261D01*
X220932421Y-102222220D01*
X220847579Y-102222220D01*
X220765628Y-102200261D01*
X220692153Y-102157840D01*
X220632160Y-102097847D01*
X220589739Y-102024372D01*
X220567780Y-101942421D01*
X220567780Y-101857579D01*
X220589739Y-101775628D01*
X220632160Y-101702153D01*
X220692153Y-101642160D01*
X220765628Y-101599739D01*
X220847579Y-101577780D01*
X220932421Y-101577780D01*
X221014372Y-101599739D01*
G37*
G36*
X234107403Y-101461418D02*
G01*
X234156066Y-101493934D01*
X234188582Y-101542597D01*
X234200000Y-101600000D01*
X234200000Y-101900000D01*
X234188582Y-101957403D01*
X234156066Y-102006066D01*
X234107403Y-102038582D01*
X234050000Y-102050000D01*
X233050000Y-102050000D01*
X232992597Y-102038582D01*
X232943934Y-102006066D01*
X232911418Y-101957403D01*
X232900000Y-101900000D01*
X232900000Y-101600000D01*
X232911418Y-101542597D01*
X232943934Y-101493934D01*
X232992597Y-101461418D01*
X233050000Y-101450000D01*
X234050000Y-101450000D01*
X234107403Y-101461418D01*
G37*
G36*
X225836418Y-101779758D02*
G01*
X225856694Y-101793306D01*
X225870242Y-101813582D01*
X225875000Y-101837500D01*
X225875000Y-101962500D01*
X225870242Y-101986418D01*
X225856694Y-102006694D01*
X225836418Y-102020242D01*
X225812500Y-102025000D01*
X225137500Y-102025000D01*
X225113582Y-102020242D01*
X225093306Y-102006694D01*
X225079758Y-101986418D01*
X225075000Y-101962500D01*
X225075000Y-101837500D01*
X225079758Y-101813582D01*
X225093306Y-101793306D01*
X225113582Y-101779758D01*
X225137500Y-101775000D01*
X225812500Y-101775000D01*
X225836418Y-101779758D01*
G37*
G36*
X228736418Y-101779758D02*
G01*
X228756694Y-101793306D01*
X228770242Y-101813582D01*
X228775000Y-101837500D01*
X228775000Y-101962500D01*
X228770242Y-101986418D01*
X228756694Y-102006694D01*
X228736418Y-102020242D01*
X228712500Y-102025000D01*
X228037500Y-102025000D01*
X228013582Y-102020242D01*
X227993306Y-102006694D01*
X227979758Y-101986418D01*
X227975000Y-101962500D01*
X227975000Y-101837500D01*
X227979758Y-101813582D01*
X227993306Y-101793306D01*
X228013582Y-101779758D01*
X228037500Y-101775000D01*
X228712500Y-101775000D01*
X228736418Y-101779758D01*
G37*
G36*
X227775000Y-101850000D02*
G01*
X226075000Y-101850000D01*
X226075000Y-100450000D01*
X227775000Y-100450000D01*
X227775000Y-101850000D01*
G37*
G36*
X225836418Y-101279758D02*
G01*
X225856694Y-101293306D01*
X225870242Y-101313582D01*
X225875000Y-101337500D01*
X225875000Y-101462500D01*
X225870242Y-101486418D01*
X225856694Y-101506694D01*
X225836418Y-101520242D01*
X225812500Y-101525000D01*
X225137500Y-101525000D01*
X225113582Y-101520242D01*
X225093306Y-101506694D01*
X225079758Y-101486418D01*
X225075000Y-101462500D01*
X225075000Y-101337500D01*
X225079758Y-101313582D01*
X225093306Y-101293306D01*
X225113582Y-101279758D01*
X225137500Y-101275000D01*
X225812500Y-101275000D01*
X225836418Y-101279758D01*
G37*
G36*
X228736418Y-101279758D02*
G01*
X228756694Y-101293306D01*
X228770242Y-101313582D01*
X228775000Y-101337500D01*
X228775000Y-101462500D01*
X228770242Y-101486418D01*
X228756694Y-101506694D01*
X228736418Y-101520242D01*
X228712500Y-101525000D01*
X228037500Y-101525000D01*
X228013582Y-101520242D01*
X227993306Y-101506694D01*
X227979758Y-101486418D01*
X227975000Y-101462500D01*
X227975000Y-101337500D01*
X227979758Y-101313582D01*
X227993306Y-101293306D01*
X228013582Y-101279758D01*
X228037500Y-101275000D01*
X228712500Y-101275000D01*
X228736418Y-101279758D01*
G37*
G36*
X230723576Y-100710657D02*
G01*
X230768995Y-100741005D01*
X230799343Y-100786424D01*
X230810000Y-100840000D01*
X230810000Y-101120000D01*
X230799343Y-101173576D01*
X230768995Y-101218995D01*
X230723576Y-101249343D01*
X230670000Y-101260000D01*
X230330000Y-101260000D01*
X230276424Y-101249343D01*
X230231005Y-101218995D01*
X230200657Y-101173576D01*
X230190000Y-101120000D01*
X230190000Y-100840000D01*
X230200657Y-100786424D01*
X230231005Y-100741005D01*
X230276424Y-100710657D01*
X230330000Y-100700000D01*
X230670000Y-100700000D01*
X230723576Y-100710657D01*
G37*
G36*
X215050000Y-101180000D02*
G01*
X214450000Y-101180000D01*
X214450000Y-99730000D01*
X215050000Y-99730000D01*
X215050000Y-101180000D01*
G37*
G36*
X215850000Y-101180000D02*
G01*
X215250000Y-101180000D01*
X215250000Y-99730000D01*
X215850000Y-99730000D01*
X215850000Y-101180000D01*
G37*
G36*
X216400000Y-101180000D02*
G01*
X216100000Y-101180000D01*
X216100000Y-99730000D01*
X216400000Y-99730000D01*
X216400000Y-101180000D01*
G37*
G36*
X216900000Y-101180000D02*
G01*
X216600000Y-101180000D01*
X216600000Y-99730000D01*
X216900000Y-99730000D01*
X216900000Y-101180000D01*
G37*
G36*
X217400000Y-101180000D02*
G01*
X217100000Y-101180000D01*
X217100000Y-99730000D01*
X217400000Y-99730000D01*
X217400000Y-101180000D01*
G37*
G36*
X217900000Y-101180000D02*
G01*
X217600000Y-101180000D01*
X217600000Y-99730000D01*
X217900000Y-99730000D01*
X217900000Y-101180000D01*
G37*
G36*
X218400000Y-101180000D02*
G01*
X218100000Y-101180000D01*
X218100000Y-99730000D01*
X218400000Y-99730000D01*
X218400000Y-101180000D01*
G37*
G36*
X218900000Y-101180000D02*
G01*
X218600000Y-101180000D01*
X218600000Y-99730000D01*
X218900000Y-99730000D01*
X218900000Y-101180000D01*
G37*
G36*
X219400000Y-101180000D02*
G01*
X219100000Y-101180000D01*
X219100000Y-99730000D01*
X219400000Y-99730000D01*
X219400000Y-101180000D01*
G37*
G36*
X219900000Y-101180000D02*
G01*
X219600000Y-101180000D01*
X219600000Y-99730000D01*
X219900000Y-99730000D01*
X219900000Y-101180000D01*
G37*
G36*
X220750000Y-101180000D02*
G01*
X220150000Y-101180000D01*
X220150000Y-99730000D01*
X220750000Y-99730000D01*
X220750000Y-101180000D01*
G37*
G36*
X221550000Y-101180000D02*
G01*
X220950000Y-101180000D01*
X220950000Y-99730000D01*
X221550000Y-99730000D01*
X221550000Y-101180000D01*
G37*
G36*
X225836418Y-100779758D02*
G01*
X225856694Y-100793306D01*
X225870242Y-100813582D01*
X225875000Y-100837500D01*
X225875000Y-100962500D01*
X225870242Y-100986418D01*
X225856694Y-101006694D01*
X225836418Y-101020242D01*
X225812500Y-101025000D01*
X225137500Y-101025000D01*
X225113582Y-101020242D01*
X225093306Y-101006694D01*
X225079758Y-100986418D01*
X225075000Y-100962500D01*
X225075000Y-100837500D01*
X225079758Y-100813582D01*
X225093306Y-100793306D01*
X225113582Y-100779758D01*
X225137500Y-100775000D01*
X225812500Y-100775000D01*
X225836418Y-100779758D01*
G37*
G36*
X228736418Y-100779758D02*
G01*
X228756694Y-100793306D01*
X228770242Y-100813582D01*
X228775000Y-100837500D01*
X228775000Y-100962500D01*
X228770242Y-100986418D01*
X228756694Y-101006694D01*
X228736418Y-101020242D01*
X228712500Y-101025000D01*
X228037500Y-101025000D01*
X228013582Y-101020242D01*
X227993306Y-101006694D01*
X227979758Y-100986418D01*
X227975000Y-100962500D01*
X227975000Y-100837500D01*
X227979758Y-100813582D01*
X227993306Y-100793306D01*
X228013582Y-100779758D01*
X228037500Y-100775000D01*
X228712500Y-100775000D01*
X228736418Y-100779758D01*
G37*
G36*
X225836418Y-100279758D02*
G01*
X225856694Y-100293306D01*
X225870242Y-100313582D01*
X225875000Y-100337500D01*
X225875000Y-100462500D01*
X225870242Y-100486418D01*
X225856694Y-100506694D01*
X225836418Y-100520242D01*
X225812500Y-100525000D01*
X225137500Y-100525000D01*
X225113582Y-100520242D01*
X225093306Y-100506694D01*
X225079758Y-100486418D01*
X225075000Y-100462500D01*
X225075000Y-100337500D01*
X225079758Y-100313582D01*
X225093306Y-100293306D01*
X225113582Y-100279758D01*
X225137500Y-100275000D01*
X225812500Y-100275000D01*
X225836418Y-100279758D01*
G37*
G36*
X228736418Y-100279758D02*
G01*
X228756694Y-100293306D01*
X228770242Y-100313582D01*
X228775000Y-100337500D01*
X228775000Y-100462500D01*
X228770242Y-100486418D01*
X228756694Y-100506694D01*
X228736418Y-100520242D01*
X228712500Y-100525000D01*
X228037500Y-100525000D01*
X228013582Y-100520242D01*
X227993306Y-100506694D01*
X227979758Y-100486418D01*
X227975000Y-100462500D01*
X227975000Y-100337500D01*
X227979758Y-100313582D01*
X227993306Y-100293306D01*
X228013582Y-100279758D01*
X228037500Y-100275000D01*
X228712500Y-100275000D01*
X228736418Y-100279758D01*
G37*
G36*
X230723576Y-99750657D02*
G01*
X230768995Y-99781005D01*
X230799343Y-99826424D01*
X230810000Y-99880000D01*
X230810000Y-100160000D01*
X230799343Y-100213576D01*
X230768995Y-100258995D01*
X230723576Y-100289343D01*
X230670000Y-100300000D01*
X230330000Y-100300000D01*
X230276424Y-100289343D01*
X230231005Y-100258995D01*
X230200657Y-100213576D01*
X230190000Y-100160000D01*
X230190000Y-99880000D01*
X230200657Y-99826424D01*
X230231005Y-99781005D01*
X230276424Y-99750657D01*
X230330000Y-99740000D01*
X230670000Y-99740000D01*
X230723576Y-99750657D01*
G37*
G36*
X235662640Y-99107351D02*
G01*
X235758724Y-99162825D01*
X235837175Y-99241276D01*
X235892649Y-99337360D01*
X235921364Y-99444526D01*
X235921364Y-99555474D01*
X235892649Y-99662640D01*
X235837175Y-99758724D01*
X235758724Y-99837175D01*
X235662640Y-99892649D01*
X235555474Y-99921364D01*
X235444526Y-99921364D01*
X235337360Y-99892649D01*
X235241276Y-99837175D01*
X235162825Y-99758724D01*
X235107351Y-99662640D01*
X235078636Y-99555474D01*
X235078636Y-99444526D01*
X235107351Y-99337360D01*
X235162825Y-99241276D01*
X235241276Y-99162825D01*
X235337360Y-99107351D01*
X235444526Y-99078636D01*
X235555474Y-99078636D01*
X235662640Y-99107351D01*
G37*
G36*
X234107403Y-98461418D02*
G01*
X234156066Y-98493934D01*
X234188582Y-98542597D01*
X234200000Y-98600000D01*
X234200000Y-98900000D01*
X234188582Y-98957403D01*
X234156066Y-99006066D01*
X234107403Y-99038582D01*
X234050000Y-99050000D01*
X233050000Y-99050000D01*
X232992597Y-99038582D01*
X232943934Y-99006066D01*
X232911418Y-98957403D01*
X232900000Y-98900000D01*
X232900000Y-98600000D01*
X232911418Y-98542597D01*
X232943934Y-98493934D01*
X232992597Y-98461418D01*
X233050000Y-98450000D01*
X234050000Y-98450000D01*
X234107403Y-98461418D01*
G37*
G36*
X213186662Y-98190276D02*
G01*
X213230459Y-98219541D01*
X213259724Y-98263338D01*
X213270000Y-98315000D01*
X213270000Y-98685000D01*
X213259724Y-98736662D01*
X213230459Y-98780459D01*
X213186662Y-98809724D01*
X213135000Y-98820000D01*
X212865000Y-98820000D01*
X212813338Y-98809724D01*
X212769541Y-98780459D01*
X212740276Y-98736662D01*
X212730000Y-98685000D01*
X212730000Y-98315000D01*
X212740276Y-98263338D01*
X212769541Y-98219541D01*
X212813338Y-98190276D01*
X212865000Y-98180000D01*
X213135000Y-98180000D01*
X213186662Y-98190276D01*
G37*
G36*
X214206662Y-98190276D02*
G01*
X214250459Y-98219541D01*
X214279724Y-98263338D01*
X214290000Y-98315000D01*
X214290000Y-98685000D01*
X214279724Y-98736662D01*
X214250459Y-98780459D01*
X214206662Y-98809724D01*
X214155000Y-98820000D01*
X213885000Y-98820000D01*
X213833338Y-98809724D01*
X213789541Y-98780459D01*
X213760276Y-98736662D01*
X213750000Y-98685000D01*
X213750000Y-98315000D01*
X213760276Y-98263338D01*
X213789541Y-98219541D01*
X213833338Y-98190276D01*
X213885000Y-98180000D01*
X214155000Y-98180000D01*
X214206662Y-98190276D01*
G37*
G36*
X224676662Y-97904265D02*
G01*
X224720459Y-97933530D01*
X224749724Y-97977327D01*
X224760000Y-98028989D01*
X224760000Y-98398989D01*
X224749724Y-98450651D01*
X224720459Y-98494448D01*
X224676662Y-98523713D01*
X224625000Y-98533989D01*
X224355000Y-98533989D01*
X224303338Y-98523713D01*
X224259541Y-98494448D01*
X224230276Y-98450651D01*
X224220000Y-98398989D01*
X224220000Y-98028989D01*
X224230276Y-97977327D01*
X224259541Y-97933530D01*
X224303338Y-97904265D01*
X224355000Y-97893989D01*
X224625000Y-97893989D01*
X224676662Y-97904265D01*
G37*
G36*
X225696662Y-97904265D02*
G01*
X225740459Y-97933530D01*
X225769724Y-97977327D01*
X225780000Y-98028989D01*
X225780000Y-98398989D01*
X225769724Y-98450651D01*
X225740459Y-98494448D01*
X225696662Y-98523713D01*
X225645000Y-98533989D01*
X225375000Y-98533989D01*
X225323338Y-98523713D01*
X225279541Y-98494448D01*
X225250276Y-98450651D01*
X225240000Y-98398989D01*
X225240000Y-98028989D01*
X225250276Y-97977327D01*
X225279541Y-97933530D01*
X225323338Y-97904265D01*
X225375000Y-97893989D01*
X225645000Y-97893989D01*
X225696662Y-97904265D01*
G37*
G36*
X231155552Y-97758564D02*
G01*
X231192050Y-97782950D01*
X231216436Y-97819448D01*
X231225000Y-97862500D01*
X231225000Y-98237500D01*
X231216436Y-98280552D01*
X231192050Y-98317050D01*
X231155552Y-98341436D01*
X231112500Y-98350000D01*
X230887500Y-98350000D01*
X230844448Y-98341436D01*
X230807950Y-98317050D01*
X230783564Y-98280552D01*
X230775000Y-98237500D01*
X230775000Y-97862500D01*
X230783564Y-97819448D01*
X230807950Y-97782950D01*
X230844448Y-97758564D01*
X230887500Y-97750000D01*
X231112500Y-97750000D01*
X231155552Y-97758564D01*
G37*
G36*
X218676662Y-97690276D02*
G01*
X218720459Y-97719541D01*
X218749724Y-97763338D01*
X218760000Y-97815000D01*
X218760000Y-98185000D01*
X218749724Y-98236662D01*
X218720459Y-98280459D01*
X218676662Y-98309724D01*
X218625000Y-98320000D01*
X218355000Y-98320000D01*
X218303338Y-98309724D01*
X218259541Y-98280459D01*
X218230276Y-98236662D01*
X218220000Y-98185000D01*
X218220000Y-97815000D01*
X218230276Y-97763338D01*
X218259541Y-97719541D01*
X218303338Y-97690276D01*
X218355000Y-97680000D01*
X218625000Y-97680000D01*
X218676662Y-97690276D01*
G37*
G36*
X219696662Y-97690276D02*
G01*
X219740459Y-97719541D01*
X219769724Y-97763338D01*
X219780000Y-97815000D01*
X219780000Y-98185000D01*
X219769724Y-98236662D01*
X219740459Y-98280459D01*
X219696662Y-98309724D01*
X219645000Y-98320000D01*
X219375000Y-98320000D01*
X219323338Y-98309724D01*
X219279541Y-98280459D01*
X219250276Y-98236662D01*
X219240000Y-98185000D01*
X219240000Y-97815000D01*
X219250276Y-97763338D01*
X219279541Y-97719541D01*
X219323338Y-97690276D01*
X219375000Y-97680000D01*
X219645000Y-97680000D01*
X219696662Y-97690276D01*
G37*
G36*
X234641970Y-96813321D02*
G01*
X234698744Y-96851256D01*
X234736679Y-96908030D01*
X234750000Y-96975000D01*
X234750000Y-97675000D01*
X234736679Y-97741970D01*
X234698744Y-97798744D01*
X234641970Y-97836679D01*
X234575000Y-97850000D01*
X234225000Y-97850000D01*
X234158030Y-97836679D01*
X234101256Y-97798744D01*
X234063321Y-97741970D01*
X234050000Y-97675000D01*
X234050000Y-96975000D01*
X234063321Y-96908030D01*
X234101256Y-96851256D01*
X234158030Y-96813321D01*
X234225000Y-96800000D01*
X234575000Y-96800000D01*
X234641970Y-96813321D01*
G37*
G36*
X236841970Y-96813321D02*
G01*
X236898744Y-96851256D01*
X236936679Y-96908030D01*
X236950000Y-96975000D01*
X236950000Y-97675000D01*
X236936679Y-97741970D01*
X236898744Y-97798744D01*
X236841970Y-97836679D01*
X236775000Y-97850000D01*
X236425000Y-97850000D01*
X236358030Y-97836679D01*
X236301256Y-97798744D01*
X236263321Y-97741970D01*
X236250000Y-97675000D01*
X236250000Y-96975000D01*
X236263321Y-96908030D01*
X236301256Y-96851256D01*
X236358030Y-96813321D01*
X236425000Y-96800000D01*
X236775000Y-96800000D01*
X236841970Y-96813321D01*
G37*
G36*
X222713576Y-97200657D02*
G01*
X222758995Y-97231005D01*
X222789343Y-97276424D01*
X222800000Y-97330000D01*
X222800000Y-97670000D01*
X222789343Y-97723576D01*
X222758995Y-97768995D01*
X222713576Y-97799343D01*
X222660000Y-97810000D01*
X222380000Y-97810000D01*
X222326424Y-97799343D01*
X222281005Y-97768995D01*
X222250657Y-97723576D01*
X222240000Y-97670000D01*
X222240000Y-97330000D01*
X222250657Y-97276424D01*
X222281005Y-97231005D01*
X222326424Y-97200657D01*
X222380000Y-97190000D01*
X222660000Y-97190000D01*
X222713576Y-97200657D01*
G37*
G36*
X223673576Y-97200657D02*
G01*
X223718995Y-97231005D01*
X223749343Y-97276424D01*
X223760000Y-97330000D01*
X223760000Y-97670000D01*
X223749343Y-97723576D01*
X223718995Y-97768995D01*
X223673576Y-97799343D01*
X223620000Y-97810000D01*
X223340000Y-97810000D01*
X223286424Y-97799343D01*
X223241005Y-97768995D01*
X223210657Y-97723576D01*
X223200000Y-97670000D01*
X223200000Y-97330000D01*
X223210657Y-97276424D01*
X223241005Y-97231005D01*
X223286424Y-97200657D01*
X223340000Y-97190000D01*
X223620000Y-97190000D01*
X223673576Y-97200657D01*
G37*
G36*
X227180552Y-97283564D02*
G01*
X227217050Y-97307950D01*
X227241436Y-97344448D01*
X227250000Y-97387500D01*
X227250000Y-97612500D01*
X227241436Y-97655552D01*
X227217050Y-97692050D01*
X227180552Y-97716436D01*
X227137500Y-97725000D01*
X226762500Y-97725000D01*
X226719448Y-97716436D01*
X226682950Y-97692050D01*
X226658564Y-97655552D01*
X226650000Y-97612500D01*
X226650000Y-97387500D01*
X226658564Y-97344448D01*
X226682950Y-97307950D01*
X226719448Y-97283564D01*
X226762500Y-97275000D01*
X227137500Y-97275000D01*
X227180552Y-97283564D01*
G37*
G36*
X229280552Y-97283564D02*
G01*
X229317050Y-97307950D01*
X229341436Y-97344448D01*
X229350000Y-97387500D01*
X229350000Y-97612500D01*
X229341436Y-97655552D01*
X229317050Y-97692050D01*
X229280552Y-97716436D01*
X229237500Y-97725000D01*
X228862500Y-97725000D01*
X228819448Y-97716436D01*
X228782950Y-97692050D01*
X228758564Y-97655552D01*
X228750000Y-97612500D01*
X228750000Y-97387500D01*
X228758564Y-97344448D01*
X228782950Y-97307950D01*
X228819448Y-97283564D01*
X228862500Y-97275000D01*
X229237500Y-97275000D01*
X229280552Y-97283564D01*
G37*
G36*
X224911093Y-96492051D02*
G01*
X224956512Y-96522399D01*
X224986860Y-96567818D01*
X224997517Y-96621394D01*
X224997517Y-96961394D01*
X224986860Y-97014970D01*
X224956512Y-97060389D01*
X224911093Y-97090737D01*
X224857517Y-97101394D01*
X224577517Y-97101394D01*
X224523941Y-97090737D01*
X224478522Y-97060389D01*
X224448174Y-97014970D01*
X224437517Y-96961394D01*
X224437517Y-96621394D01*
X224448174Y-96567818D01*
X224478522Y-96522399D01*
X224523941Y-96492051D01*
X224577517Y-96481394D01*
X224857517Y-96481394D01*
X224911093Y-96492051D01*
G37*
G36*
X225871093Y-96492051D02*
G01*
X225916512Y-96522399D01*
X225946860Y-96567818D01*
X225957517Y-96621394D01*
X225957517Y-96961394D01*
X225946860Y-97014970D01*
X225916512Y-97060389D01*
X225871093Y-97090737D01*
X225817517Y-97101394D01*
X225537517Y-97101394D01*
X225483941Y-97090737D01*
X225438522Y-97060389D01*
X225408174Y-97014970D01*
X225397517Y-96961394D01*
X225397517Y-96621394D01*
X225408174Y-96567818D01*
X225438522Y-96522399D01*
X225483941Y-96492051D01*
X225537517Y-96481394D01*
X225817517Y-96481394D01*
X225871093Y-96492051D01*
G37*
G36*
X222832930Y-96191228D02*
G01*
X222880782Y-96223202D01*
X222912756Y-96271054D01*
X222923984Y-96327500D01*
X222923984Y-96672500D01*
X222912756Y-96728946D01*
X222880782Y-96776798D01*
X222832930Y-96808772D01*
X222776484Y-96820000D01*
X222481484Y-96820000D01*
X222425038Y-96808772D01*
X222377186Y-96776798D01*
X222345212Y-96728946D01*
X222333984Y-96672500D01*
X222333984Y-96327500D01*
X222345212Y-96271054D01*
X222377186Y-96223202D01*
X222425038Y-96191228D01*
X222481484Y-96180000D01*
X222776484Y-96180000D01*
X222832930Y-96191228D01*
G37*
G36*
X223802930Y-96191228D02*
G01*
X223850782Y-96223202D01*
X223882756Y-96271054D01*
X223893984Y-96327500D01*
X223893984Y-96672500D01*
X223882756Y-96728946D01*
X223850782Y-96776798D01*
X223802930Y-96808772D01*
X223746484Y-96820000D01*
X223451484Y-96820000D01*
X223395038Y-96808772D01*
X223347186Y-96776798D01*
X223315212Y-96728946D01*
X223303984Y-96672500D01*
X223303984Y-96327500D01*
X223315212Y-96271054D01*
X223347186Y-96223202D01*
X223395038Y-96191228D01*
X223451484Y-96180000D01*
X223746484Y-96180000D01*
X223802930Y-96191228D01*
G37*
G36*
X218757403Y-95486418D02*
G01*
X218806066Y-95518934D01*
X218838582Y-95567597D01*
X218850000Y-95625000D01*
X218850000Y-96650000D01*
X218838582Y-96707403D01*
X218806066Y-96756066D01*
X218757403Y-96788582D01*
X218700000Y-96800000D01*
X218400000Y-96800000D01*
X218342597Y-96788582D01*
X218293934Y-96756066D01*
X218261418Y-96707403D01*
X218250000Y-96650000D01*
X218250000Y-95625000D01*
X218261418Y-95567597D01*
X218293934Y-95518934D01*
X218342597Y-95486418D01*
X218400000Y-95475000D01*
X218700000Y-95475000D01*
X218757403Y-95486418D01*
G37*
G36*
X219707403Y-95486418D02*
G01*
X219756066Y-95518934D01*
X219788582Y-95567597D01*
X219800000Y-95625000D01*
X219800000Y-96650000D01*
X219788582Y-96707403D01*
X219756066Y-96756066D01*
X219707403Y-96788582D01*
X219650000Y-96800000D01*
X219350000Y-96800000D01*
X219292597Y-96788582D01*
X219243934Y-96756066D01*
X219211418Y-96707403D01*
X219200000Y-96650000D01*
X219200000Y-95625000D01*
X219211418Y-95567597D01*
X219243934Y-95518934D01*
X219292597Y-95486418D01*
X219350000Y-95475000D01*
X219650000Y-95475000D01*
X219707403Y-95486418D01*
G37*
G36*
X220657403Y-95486418D02*
G01*
X220706066Y-95518934D01*
X220738582Y-95567597D01*
X220750000Y-95625000D01*
X220750000Y-96650000D01*
X220738582Y-96707403D01*
X220706066Y-96756066D01*
X220657403Y-96788582D01*
X220600000Y-96800000D01*
X220300000Y-96800000D01*
X220242597Y-96788582D01*
X220193934Y-96756066D01*
X220161418Y-96707403D01*
X220150000Y-96650000D01*
X220150000Y-95625000D01*
X220161418Y-95567597D01*
X220193934Y-95518934D01*
X220242597Y-95486418D01*
X220300000Y-95475000D01*
X220600000Y-95475000D01*
X220657403Y-95486418D01*
G37*
G36*
X231155552Y-95658564D02*
G01*
X231192050Y-95682950D01*
X231216436Y-95719448D01*
X231225000Y-95762500D01*
X231225000Y-96137500D01*
X231216436Y-96180552D01*
X231192050Y-96217050D01*
X231155552Y-96241436D01*
X231112500Y-96250000D01*
X230887500Y-96250000D01*
X230844448Y-96241436D01*
X230807950Y-96217050D01*
X230783564Y-96180552D01*
X230775000Y-96137500D01*
X230775000Y-95762500D01*
X230783564Y-95719448D01*
X230807950Y-95682950D01*
X230844448Y-95658564D01*
X230887500Y-95650000D01*
X231112500Y-95650000D01*
X231155552Y-95658564D01*
G37*
G36*
X260054823Y-95383384D02*
G01*
X259554823Y-95383384D01*
X259554823Y-95083384D01*
X260054823Y-95083384D01*
X260054823Y-95383384D01*
G37*
G36*
X261454823Y-95383384D02*
G01*
X260954823Y-95383384D01*
X260954823Y-95083384D01*
X261454823Y-95083384D01*
X261454823Y-95383384D01*
G37*
G36*
X226932403Y-94661418D02*
G01*
X226981066Y-94693934D01*
X227013582Y-94742597D01*
X227025000Y-94800000D01*
X227025000Y-95100000D01*
X227013582Y-95157403D01*
X226981066Y-95206066D01*
X226932403Y-95238582D01*
X226875000Y-95250000D01*
X225850000Y-95250000D01*
X225792597Y-95238582D01*
X225743934Y-95206066D01*
X225711418Y-95157403D01*
X225700000Y-95100000D01*
X225700000Y-94800000D01*
X225711418Y-94742597D01*
X225743934Y-94693934D01*
X225792597Y-94661418D01*
X225850000Y-94650000D01*
X226875000Y-94650000D01*
X226932403Y-94661418D01*
G37*
G36*
X229207403Y-94661418D02*
G01*
X229256066Y-94693934D01*
X229288582Y-94742597D01*
X229300000Y-94800000D01*
X229300000Y-95100000D01*
X229288582Y-95157403D01*
X229256066Y-95206066D01*
X229207403Y-95238582D01*
X229150000Y-95250000D01*
X228125000Y-95250000D01*
X228067597Y-95238582D01*
X228018934Y-95206066D01*
X227986418Y-95157403D01*
X227975000Y-95100000D01*
X227975000Y-94800000D01*
X227986418Y-94742597D01*
X228018934Y-94693934D01*
X228067597Y-94661418D01*
X228125000Y-94650000D01*
X229150000Y-94650000D01*
X229207403Y-94661418D01*
G37*
G36*
X260054823Y-94583384D02*
G01*
X259554823Y-94583384D01*
X259554823Y-94283384D01*
X260054823Y-94283384D01*
X260054823Y-94583384D01*
G37*
G36*
X261454823Y-94583384D02*
G01*
X260954823Y-94583384D01*
X260954823Y-94283384D01*
X261454823Y-94283384D01*
X261454823Y-94583384D01*
G37*
G36*
X218757403Y-93211418D02*
G01*
X218806066Y-93243934D01*
X218838582Y-93292597D01*
X218850000Y-93350000D01*
X218850000Y-94375000D01*
X218838582Y-94432403D01*
X218806066Y-94481066D01*
X218757403Y-94513582D01*
X218700000Y-94525000D01*
X218400000Y-94525000D01*
X218342597Y-94513582D01*
X218293934Y-94481066D01*
X218261418Y-94432403D01*
X218250000Y-94375000D01*
X218250000Y-93350000D01*
X218261418Y-93292597D01*
X218293934Y-93243934D01*
X218342597Y-93211418D01*
X218400000Y-93200000D01*
X218700000Y-93200000D01*
X218757403Y-93211418D01*
G37*
G36*
X219707403Y-93211418D02*
G01*
X219756066Y-93243934D01*
X219788582Y-93292597D01*
X219800000Y-93350000D01*
X219800000Y-94375000D01*
X219788582Y-94432403D01*
X219756066Y-94481066D01*
X219707403Y-94513582D01*
X219650000Y-94525000D01*
X219350000Y-94525000D01*
X219292597Y-94513582D01*
X219243934Y-94481066D01*
X219211418Y-94432403D01*
X219200000Y-94375000D01*
X219200000Y-93350000D01*
X219211418Y-93292597D01*
X219243934Y-93243934D01*
X219292597Y-93211418D01*
X219350000Y-93200000D01*
X219650000Y-93200000D01*
X219707403Y-93211418D01*
G37*
G36*
X220657403Y-93211418D02*
G01*
X220706066Y-93243934D01*
X220738582Y-93292597D01*
X220750000Y-93350000D01*
X220750000Y-94375000D01*
X220738582Y-94432403D01*
X220706066Y-94481066D01*
X220657403Y-94513582D01*
X220600000Y-94525000D01*
X220300000Y-94525000D01*
X220242597Y-94513582D01*
X220193934Y-94481066D01*
X220161418Y-94432403D01*
X220150000Y-94375000D01*
X220150000Y-93350000D01*
X220161418Y-93292597D01*
X220193934Y-93243934D01*
X220242597Y-93211418D01*
X220300000Y-93200000D01*
X220600000Y-93200000D01*
X220657403Y-93211418D01*
G37*
G36*
X229207403Y-93711418D02*
G01*
X229256066Y-93743934D01*
X229288582Y-93792597D01*
X229300000Y-93850000D01*
X229300000Y-94150000D01*
X229288582Y-94207403D01*
X229256066Y-94256066D01*
X229207403Y-94288582D01*
X229150000Y-94300000D01*
X228125000Y-94300000D01*
X228067597Y-94288582D01*
X228018934Y-94256066D01*
X227986418Y-94207403D01*
X227975000Y-94150000D01*
X227975000Y-93850000D01*
X227986418Y-93792597D01*
X228018934Y-93743934D01*
X228067597Y-93711418D01*
X228125000Y-93700000D01*
X229150000Y-93700000D01*
X229207403Y-93711418D01*
G37*
G36*
X226932403Y-92761418D02*
G01*
X226981066Y-92793934D01*
X227013582Y-92842597D01*
X227025000Y-92900000D01*
X227025000Y-93200000D01*
X227013582Y-93257403D01*
X226981066Y-93306066D01*
X226932403Y-93338582D01*
X226875000Y-93350000D01*
X225850000Y-93350000D01*
X225792597Y-93338582D01*
X225743934Y-93306066D01*
X225711418Y-93257403D01*
X225700000Y-93200000D01*
X225700000Y-92900000D01*
X225711418Y-92842597D01*
X225743934Y-92793934D01*
X225792597Y-92761418D01*
X225850000Y-92750000D01*
X226875000Y-92750000D01*
X226932403Y-92761418D01*
G37*
G36*
X229207403Y-92761418D02*
G01*
X229256066Y-92793934D01*
X229288582Y-92842597D01*
X229300000Y-92900000D01*
X229300000Y-93200000D01*
X229288582Y-93257403D01*
X229256066Y-93306066D01*
X229207403Y-93338582D01*
X229150000Y-93350000D01*
X228125000Y-93350000D01*
X228067597Y-93338582D01*
X228018934Y-93306066D01*
X227986418Y-93257403D01*
X227975000Y-93200000D01*
X227975000Y-92900000D01*
X227986418Y-92842597D01*
X228018934Y-92793934D01*
X228067597Y-92761418D01*
X228125000Y-92750000D01*
X229150000Y-92750000D01*
X229207403Y-92761418D01*
G37*
G36*
X216676662Y-91690276D02*
G01*
X216720459Y-91719541D01*
X216749724Y-91763338D01*
X216760000Y-91815000D01*
X216760000Y-92185000D01*
X216749724Y-92236662D01*
X216720459Y-92280459D01*
X216676662Y-92309724D01*
X216625000Y-92320000D01*
X216355000Y-92320000D01*
X216303338Y-92309724D01*
X216259541Y-92280459D01*
X216230276Y-92236662D01*
X216220000Y-92185000D01*
X216220000Y-91815000D01*
X216230276Y-91763338D01*
X216259541Y-91719541D01*
X216303338Y-91690276D01*
X216355000Y-91680000D01*
X216625000Y-91680000D01*
X216676662Y-91690276D01*
G37*
G36*
X217696662Y-91690276D02*
G01*
X217740459Y-91719541D01*
X217769724Y-91763338D01*
X217780000Y-91815000D01*
X217780000Y-92185000D01*
X217769724Y-92236662D01*
X217740459Y-92280459D01*
X217696662Y-92309724D01*
X217645000Y-92320000D01*
X217375000Y-92320000D01*
X217323338Y-92309724D01*
X217279541Y-92280459D01*
X217250276Y-92236662D01*
X217240000Y-92185000D01*
X217240000Y-91815000D01*
X217250276Y-91763338D01*
X217279541Y-91719541D01*
X217323338Y-91690276D01*
X217375000Y-91680000D01*
X217645000Y-91680000D01*
X217696662Y-91690276D01*
G37*
G36*
X230213576Y-91700657D02*
G01*
X230258995Y-91731005D01*
X230289343Y-91776424D01*
X230300000Y-91830000D01*
X230300000Y-92170000D01*
X230289343Y-92223576D01*
X230258995Y-92268995D01*
X230213576Y-92299343D01*
X230160000Y-92310000D01*
X229880000Y-92310000D01*
X229826424Y-92299343D01*
X229781005Y-92268995D01*
X229750657Y-92223576D01*
X229740000Y-92170000D01*
X229740000Y-91830000D01*
X229750657Y-91776424D01*
X229781005Y-91731005D01*
X229826424Y-91700657D01*
X229880000Y-91690000D01*
X230160000Y-91690000D01*
X230213576Y-91700657D01*
G37*
G36*
X231173576Y-91700657D02*
G01*
X231218995Y-91731005D01*
X231249343Y-91776424D01*
X231260000Y-91830000D01*
X231260000Y-92170000D01*
X231249343Y-92223576D01*
X231218995Y-92268995D01*
X231173576Y-92299343D01*
X231120000Y-92310000D01*
X230840000Y-92310000D01*
X230786424Y-92299343D01*
X230741005Y-92268995D01*
X230710657Y-92223576D01*
X230700000Y-92170000D01*
X230700000Y-91830000D01*
X230710657Y-91776424D01*
X230741005Y-91731005D01*
X230786424Y-91700657D01*
X230840000Y-91690000D01*
X231120000Y-91690000D01*
X231173576Y-91700657D01*
G37*
G36*
X216676662Y-89690276D02*
G01*
X216720459Y-89719541D01*
X216749724Y-89763338D01*
X216760000Y-89815000D01*
X216760000Y-90185000D01*
X216749724Y-90236662D01*
X216720459Y-90280459D01*
X216676662Y-90309724D01*
X216625000Y-90320000D01*
X216355000Y-90320000D01*
X216303338Y-90309724D01*
X216259541Y-90280459D01*
X216230276Y-90236662D01*
X216220000Y-90185000D01*
X216220000Y-89815000D01*
X216230276Y-89763338D01*
X216259541Y-89719541D01*
X216303338Y-89690276D01*
X216355000Y-89680000D01*
X216625000Y-89680000D01*
X216676662Y-89690276D01*
G37*
G36*
X217696662Y-89690276D02*
G01*
X217740459Y-89719541D01*
X217769724Y-89763338D01*
X217780000Y-89815000D01*
X217780000Y-90185000D01*
X217769724Y-90236662D01*
X217740459Y-90280459D01*
X217696662Y-90309724D01*
X217645000Y-90320000D01*
X217375000Y-90320000D01*
X217323338Y-90309724D01*
X217279541Y-90280459D01*
X217250276Y-90236662D01*
X217240000Y-90185000D01*
X217240000Y-89815000D01*
X217250276Y-89763338D01*
X217279541Y-89719541D01*
X217323338Y-89690276D01*
X217375000Y-89680000D01*
X217645000Y-89680000D01*
X217696662Y-89690276D01*
G37*
G36*
X234176662Y-89690276D02*
G01*
X234220459Y-89719541D01*
X234249724Y-89763338D01*
X234260000Y-89815000D01*
X234260000Y-90185000D01*
X234249724Y-90236662D01*
X234220459Y-90280459D01*
X234176662Y-90309724D01*
X234125000Y-90320000D01*
X233855000Y-90320000D01*
X233803338Y-90309724D01*
X233759541Y-90280459D01*
X233730276Y-90236662D01*
X233720000Y-90185000D01*
X233720000Y-89815000D01*
X233730276Y-89763338D01*
X233759541Y-89719541D01*
X233803338Y-89690276D01*
X233855000Y-89680000D01*
X234125000Y-89680000D01*
X234176662Y-89690276D01*
G37*
G36*
X235196662Y-89690276D02*
G01*
X235240459Y-89719541D01*
X235269724Y-89763338D01*
X235280000Y-89815000D01*
X235280000Y-90185000D01*
X235269724Y-90236662D01*
X235240459Y-90280459D01*
X235196662Y-90309724D01*
X235145000Y-90320000D01*
X234875000Y-90320000D01*
X234823338Y-90309724D01*
X234779541Y-90280459D01*
X234750276Y-90236662D01*
X234740000Y-90185000D01*
X234740000Y-89815000D01*
X234750276Y-89763338D01*
X234779541Y-89719541D01*
X234823338Y-89690276D01*
X234875000Y-89680000D01*
X235145000Y-89680000D01*
X235196662Y-89690276D01*
G37*
G36*
X220713576Y-89700657D02*
G01*
X220758995Y-89731005D01*
X220789343Y-89776424D01*
X220800000Y-89830000D01*
X220800000Y-90170000D01*
X220789343Y-90223576D01*
X220758995Y-90268995D01*
X220713576Y-90299343D01*
X220660000Y-90310000D01*
X220380000Y-90310000D01*
X220326424Y-90299343D01*
X220281005Y-90268995D01*
X220250657Y-90223576D01*
X220240000Y-90170000D01*
X220240000Y-89830000D01*
X220250657Y-89776424D01*
X220281005Y-89731005D01*
X220326424Y-89700657D01*
X220380000Y-89690000D01*
X220660000Y-89690000D01*
X220713576Y-89700657D01*
G37*
G36*
X221673576Y-89700657D02*
G01*
X221718995Y-89731005D01*
X221749343Y-89776424D01*
X221760000Y-89830000D01*
X221760000Y-90170000D01*
X221749343Y-90223576D01*
X221718995Y-90268995D01*
X221673576Y-90299343D01*
X221620000Y-90310000D01*
X221340000Y-90310000D01*
X221286424Y-90299343D01*
X221241005Y-90268995D01*
X221210657Y-90223576D01*
X221200000Y-90170000D01*
X221200000Y-89830000D01*
X221210657Y-89776424D01*
X221241005Y-89731005D01*
X221286424Y-89700657D01*
X221340000Y-89690000D01*
X221620000Y-89690000D01*
X221673576Y-89700657D01*
G37*
G36*
X232193576Y-89700657D02*
G01*
X232238995Y-89731005D01*
X232269343Y-89776424D01*
X232280000Y-89830000D01*
X232280000Y-90170000D01*
X232269343Y-90223576D01*
X232238995Y-90268995D01*
X232193576Y-90299343D01*
X232140000Y-90310000D01*
X231860000Y-90310000D01*
X231806424Y-90299343D01*
X231761005Y-90268995D01*
X231730657Y-90223576D01*
X231720000Y-90170000D01*
X231720000Y-89830000D01*
X231730657Y-89776424D01*
X231761005Y-89731005D01*
X231806424Y-89700657D01*
X231860000Y-89690000D01*
X232140000Y-89690000D01*
X232193576Y-89700657D01*
G37*
G36*
X233153576Y-89700657D02*
G01*
X233198995Y-89731005D01*
X233229343Y-89776424D01*
X233240000Y-89830000D01*
X233240000Y-90170000D01*
X233229343Y-90223576D01*
X233198995Y-90268995D01*
X233153576Y-90299343D01*
X233100000Y-90310000D01*
X232820000Y-90310000D01*
X232766424Y-90299343D01*
X232721005Y-90268995D01*
X232690657Y-90223576D01*
X232680000Y-90170000D01*
X232680000Y-89830000D01*
X232690657Y-89776424D01*
X232721005Y-89731005D01*
X232766424Y-89700657D01*
X232820000Y-89690000D01*
X233100000Y-89690000D01*
X233153576Y-89700657D01*
G37*
G36*
X234218946Y-87691228D02*
G01*
X234266798Y-87723202D01*
X234298772Y-87771054D01*
X234310000Y-87827500D01*
X234310000Y-88172500D01*
X234298772Y-88228946D01*
X234266798Y-88276798D01*
X234218946Y-88308772D01*
X234162500Y-88320000D01*
X233867500Y-88320000D01*
X233811054Y-88308772D01*
X233763202Y-88276798D01*
X233731228Y-88228946D01*
X233720000Y-88172500D01*
X233720000Y-87827500D01*
X233731228Y-87771054D01*
X233763202Y-87723202D01*
X233811054Y-87691228D01*
X233867500Y-87680000D01*
X234162500Y-87680000D01*
X234218946Y-87691228D01*
G37*
G36*
X235188946Y-87691228D02*
G01*
X235236798Y-87723202D01*
X235268772Y-87771054D01*
X235280000Y-87827500D01*
X235280000Y-88172500D01*
X235268772Y-88228946D01*
X235236798Y-88276798D01*
X235188946Y-88308772D01*
X235132500Y-88320000D01*
X234837500Y-88320000D01*
X234781054Y-88308772D01*
X234733202Y-88276798D01*
X234701228Y-88228946D01*
X234690000Y-88172500D01*
X234690000Y-87827500D01*
X234701228Y-87771054D01*
X234733202Y-87723202D01*
X234781054Y-87691228D01*
X234837500Y-87680000D01*
X235132500Y-87680000D01*
X235188946Y-87691228D01*
G37*
G36*
X232213576Y-87700657D02*
G01*
X232258995Y-87731005D01*
X232289343Y-87776424D01*
X232300000Y-87830000D01*
X232300000Y-88170000D01*
X232289343Y-88223576D01*
X232258995Y-88268995D01*
X232213576Y-88299343D01*
X232160000Y-88310000D01*
X231880000Y-88310000D01*
X231826424Y-88299343D01*
X231781005Y-88268995D01*
X231750657Y-88223576D01*
X231740000Y-88170000D01*
X231740000Y-87830000D01*
X231750657Y-87776424D01*
X231781005Y-87731005D01*
X231826424Y-87700657D01*
X231880000Y-87690000D01*
X232160000Y-87690000D01*
X232213576Y-87700657D01*
G37*
G36*
X233173576Y-87700657D02*
G01*
X233218995Y-87731005D01*
X233249343Y-87776424D01*
X233260000Y-87830000D01*
X233260000Y-88170000D01*
X233249343Y-88223576D01*
X233218995Y-88268995D01*
X233173576Y-88299343D01*
X233120000Y-88310000D01*
X232840000Y-88310000D01*
X232786424Y-88299343D01*
X232741005Y-88268995D01*
X232710657Y-88223576D01*
X232700000Y-88170000D01*
X232700000Y-87830000D01*
X232710657Y-87776424D01*
X232741005Y-87731005D01*
X232786424Y-87700657D01*
X232840000Y-87690000D01*
X233120000Y-87690000D01*
X233173576Y-87700657D01*
G37*
G36*
X230390000Y-87850000D02*
G01*
X228690000Y-87850000D01*
X228690000Y-86150000D01*
X230390000Y-86150000D01*
X230390000Y-87850000D01*
G37*
G36*
X222166742Y-86186601D02*
G01*
X222320687Y-86250367D01*
X222459234Y-86342941D01*
X222577059Y-86460766D01*
X222669633Y-86599313D01*
X222733399Y-86753258D01*
X222765907Y-86916685D01*
X222765907Y-87083315D01*
X222733399Y-87246742D01*
X222669633Y-87400687D01*
X222577059Y-87539234D01*
X222459234Y-87657059D01*
X222320687Y-87749633D01*
X222166742Y-87813399D01*
X222003315Y-87845907D01*
X221836685Y-87845907D01*
X221673258Y-87813399D01*
X221519313Y-87749633D01*
X221380766Y-87657059D01*
X221262941Y-87539234D01*
X221170367Y-87400687D01*
X221106601Y-87246742D01*
X221074093Y-87083315D01*
X221074093Y-86916685D01*
X221106601Y-86753258D01*
X221170367Y-86599313D01*
X221262941Y-86460766D01*
X221380766Y-86342941D01*
X221519313Y-86250367D01*
X221673258Y-86186601D01*
X221836685Y-86154093D01*
X222003315Y-86154093D01*
X222166742Y-86186601D01*
G37*
G36*
X224706742Y-86186601D02*
G01*
X224860687Y-86250367D01*
X224999234Y-86342941D01*
X225117059Y-86460766D01*
X225209633Y-86599313D01*
X225273399Y-86753258D01*
X225305907Y-86916685D01*
X225305907Y-87083315D01*
X225273399Y-87246742D01*
X225209633Y-87400687D01*
X225117059Y-87539234D01*
X224999234Y-87657059D01*
X224860687Y-87749633D01*
X224706742Y-87813399D01*
X224543315Y-87845907D01*
X224376685Y-87845907D01*
X224213258Y-87813399D01*
X224059313Y-87749633D01*
X223920766Y-87657059D01*
X223802941Y-87539234D01*
X223710367Y-87400687D01*
X223646601Y-87246742D01*
X223614093Y-87083315D01*
X223614093Y-86916685D01*
X223646601Y-86753258D01*
X223710367Y-86599313D01*
X223802941Y-86460766D01*
X223920766Y-86342941D01*
X224059313Y-86250367D01*
X224213258Y-86186601D01*
X224376685Y-86154093D01*
X224543315Y-86154093D01*
X224706742Y-86186601D01*
G37*
G36*
X227246742Y-86186601D02*
G01*
X227400687Y-86250367D01*
X227539234Y-86342941D01*
X227657059Y-86460766D01*
X227749633Y-86599313D01*
X227813399Y-86753258D01*
X227845907Y-86916685D01*
X227845907Y-87083315D01*
X227813399Y-87246742D01*
X227749633Y-87400687D01*
X227657059Y-87539234D01*
X227539234Y-87657059D01*
X227400687Y-87749633D01*
X227246742Y-87813399D01*
X227083315Y-87845907D01*
X226916685Y-87845907D01*
X226753258Y-87813399D01*
X226599313Y-87749633D01*
X226460766Y-87657059D01*
X226342941Y-87539234D01*
X226250367Y-87400687D01*
X226186601Y-87246742D01*
X226154093Y-87083315D01*
X226154093Y-86916685D01*
X226186601Y-86753258D01*
X226250367Y-86599313D01*
X226342941Y-86460766D01*
X226460766Y-86342941D01*
X226599313Y-86250367D01*
X226753258Y-86186601D01*
X226916685Y-86154093D01*
X227083315Y-86154093D01*
X227246742Y-86186601D01*
G37*
%LPD*%
M02*
