%TF.GenerationSoftware,KiCad,Pcbnew,9.0.7*%
%TF.CreationDate,2026-02-11T09:18:12+01:00*%
%TF.ProjectId,przetwornik,70727a65-7477-46f7-926e-696b2e6b6963,rev?*%
%TF.SameCoordinates,Original*%
%TF.FileFunction,Profile,NP*%
%FSLAX46Y46*%
G04 Gerber Fmt 4.6, Leading zero omitted, Abs format (unit mm)*
G04 Created by KiCad (PCBNEW 9.0.7) date 2026-02-11 09:18:12*
%MOMM*%
%LPD*%
G01*
G04 APERTURE LIST*
%TA.AperFunction,Profile*%
%ADD10C,0.050000*%
%TD*%
G04 APERTURE END LIST*
D10*
X196000000Y-83500000D02*
X196000000Y-100000000D01*
X237500000Y-108000000D02*
X237500000Y-96000000D01*
X259000000Y-97000000D02*
X262500000Y-97000000D01*
X259000000Y-97000000D02*
X259000000Y-96000000D01*
X239000000Y-93500000D02*
X237500000Y-93500000D01*
X237500000Y-83500000D02*
X207500000Y-83500000D01*
X241000000Y-93500000D02*
X239000000Y-93500000D01*
X248000000Y-93500000D02*
X241000000Y-93500000D01*
X197000000Y-101000000D02*
X196500000Y-101000000D01*
X237500000Y-93500000D02*
X237500000Y-83500000D01*
X196000000Y-101000000D02*
X196500000Y-101000000D01*
X207000000Y-108000000D02*
X207500000Y-108000000D01*
X237500000Y-96000000D02*
X241000000Y-96000000D01*
X196500000Y-83500000D02*
X196000000Y-83500000D01*
X196000000Y-100000000D02*
X196000000Y-101000000D01*
X207000000Y-101000000D02*
X207000000Y-108000000D01*
X262500000Y-97000000D02*
X262500000Y-92500000D01*
X197000000Y-101000000D02*
X207000000Y-101000000D01*
X262500000Y-92500000D02*
X259000000Y-92500000D01*
X241000000Y-96000000D02*
X248000000Y-96000000D01*
X248000000Y-93500000D02*
X259000000Y-93500000D01*
X207500000Y-108000000D02*
X237500000Y-108000000D01*
X259000000Y-96000000D02*
X248000000Y-96000000D01*
X197000000Y-83500000D02*
X196500000Y-83500000D01*
X259000000Y-92500000D02*
X259000000Y-93500000D01*
X207500000Y-83500000D02*
X197000000Y-83500000D01*
M02*
