%TF.GenerationSoftware,KiCad,Pcbnew,9.0.7*%
%TF.CreationDate,2026-02-11T09:18:12+01:00*%
%TF.ProjectId,przetwornik,70727a65-7477-46f7-926e-696b2e6b6963,rev?*%
%TF.SameCoordinates,Original*%
%TF.FileFunction,Copper,L2,Inr*%
%TF.FilePolarity,Positive*%
%FSLAX46Y46*%
G04 Gerber Fmt 4.6, Leading zero omitted, Abs format (unit mm)*
G04 Created by KiCad (PCBNEW 9.0.7) date 2026-02-11 09:18:12*
%MOMM*%
%LPD*%
G01*
G04 APERTURE LIST*
%TA.AperFunction,ComponentPad*%
%ADD10R,1.700000X1.700000*%
%TD*%
%TA.AperFunction,ComponentPad*%
%ADD11C,1.700000*%
%TD*%
%TA.AperFunction,HeatsinkPad*%
%ADD12O,1.000000X1.600000*%
%TD*%
%TA.AperFunction,HeatsinkPad*%
%ADD13O,1.000000X2.100000*%
%TD*%
%TA.AperFunction,ViaPad*%
%ADD14C,0.600000*%
%TD*%
G04 APERTURE END LIST*
D10*
X228750000Y-105525000D03*
D11*
X226210000Y-105525000D03*
D12*
X222320000Y-105550000D03*
D13*
X222320000Y-101370000D03*
D12*
X213680000Y-105550000D03*
D13*
X213680000Y-101370000D03*
D14*
X223500000Y-89500000D03*
X236000000Y-86500000D03*
X208000000Y-107000000D03*
X233000000Y-105000000D03*
X231500000Y-107000000D03*
X235000000Y-95000000D03*
X236600000Y-94015628D03*
X236674265Y-94825735D03*
X231674265Y-99825735D03*
X229251977Y-101124802D03*
X219517431Y-96075321D03*
X219928062Y-98789276D03*
X222782843Y-91282843D03*
X222217157Y-90717157D03*
X212500000Y-85000000D03*
X211000000Y-87000000D03*
X212000000Y-91500000D03*
X210500000Y-91500000D03*
X209000000Y-91500000D03*
X209500000Y-94000000D03*
X209500000Y-87000000D03*
X233000000Y-87000000D03*
X224835000Y-92974685D03*
X221500000Y-104000000D03*
X223720000Y-98302510D03*
X218500000Y-91000000D03*
X216825000Y-88381298D03*
X232000000Y-87000000D03*
X214000000Y-93500000D03*
X216000000Y-91000000D03*
X220500000Y-91000000D03*
X224914714Y-88914714D03*
X207500000Y-91500000D03*
X207500000Y-88500000D03*
X219000000Y-102500000D03*
X226095000Y-90000000D03*
X207500000Y-85500000D03*
X213500000Y-96500000D03*
X229057783Y-99344221D03*
X232000000Y-92500000D03*
X207500000Y-97000000D03*
X222548231Y-89500000D03*
X207500000Y-99000000D03*
X207500000Y-96000000D03*
X220131374Y-98000000D03*
X223825735Y-102674265D03*
X228220114Y-99268119D03*
X226713374Y-99476475D03*
X207500000Y-100000000D03*
X207500000Y-89500000D03*
X207500000Y-95000000D03*
X215000000Y-97500000D03*
X228000000Y-95738298D03*
X227000000Y-104000000D03*
X231000000Y-90000000D03*
X207500000Y-90500000D03*
X214000000Y-90500000D03*
X225862965Y-99243332D03*
X214719265Y-87380735D03*
X207500000Y-98000000D03*
X223400000Y-101000000D03*
X207500000Y-86500000D03*
X215000000Y-85500000D03*
X213000000Y-103500000D03*
X207500000Y-84500000D03*
X207500000Y-94000000D03*
X217648690Y-102351310D03*
X207500000Y-87500000D03*
X231000000Y-104500000D03*
X231295235Y-102856235D03*
X216580000Y-98000000D03*
X222500000Y-85100000D03*
X216761881Y-95150000D03*
X236000000Y-85500000D03*
X229635000Y-90000000D03*
X223635000Y-94350000D03*
X224235000Y-92000000D03*
X223900000Y-95150003D03*
X234000000Y-93000000D03*
X233000000Y-91500000D03*
X231500000Y-93500000D03*
X233000000Y-95000000D03*
X219500000Y-106500000D03*
X220000000Y-104500000D03*
X218000000Y-105000000D03*
X215500000Y-106000000D03*
X215500000Y-103500000D03*
X209000000Y-85500000D03*
X211000000Y-85000000D03*
X212000000Y-88000000D03*
X210500000Y-89000000D03*
X209000000Y-88500000D03*
X209500000Y-90000000D03*
X211500000Y-90000000D03*
X211500000Y-94000000D03*
X209500000Y-95500000D03*
X209000000Y-97000000D03*
X210500000Y-97500000D03*
X212000000Y-97000000D03*
X211000000Y-99500000D03*
X209000000Y-99000000D03*
X208000000Y-103000000D03*
X208000000Y-101000000D03*
%TA.AperFunction,Conductor*%
G36*
X237142539Y-83820185D02*
G01*
X237188294Y-83872989D01*
X237199500Y-83924500D01*
X237199500Y-93539562D01*
X237202163Y-93549500D01*
X237219979Y-93615990D01*
X237219982Y-93615995D01*
X237259535Y-93684504D01*
X237259539Y-93684509D01*
X237259540Y-93684511D01*
X237315489Y-93740460D01*
X237315491Y-93740461D01*
X237315495Y-93740464D01*
X237366571Y-93769952D01*
X237384011Y-93780021D01*
X237460438Y-93800500D01*
X237460440Y-93800500D01*
X259039560Y-93800500D01*
X259039562Y-93800500D01*
X259115989Y-93780021D01*
X259184511Y-93740460D01*
X259240460Y-93684511D01*
X259280021Y-93615989D01*
X259300500Y-93539562D01*
X259300500Y-92924500D01*
X259320185Y-92857461D01*
X259372989Y-92811706D01*
X259424500Y-92800500D01*
X262075500Y-92800500D01*
X262142539Y-92820185D01*
X262188294Y-92872989D01*
X262199500Y-92924500D01*
X262199500Y-96575500D01*
X262179815Y-96642539D01*
X262127011Y-96688294D01*
X262075500Y-96699500D01*
X259424500Y-96699500D01*
X259357461Y-96679815D01*
X259311706Y-96627011D01*
X259300500Y-96575500D01*
X259300500Y-95960439D01*
X259297838Y-95950503D01*
X259280021Y-95884011D01*
X259265810Y-95859397D01*
X259240464Y-95815495D01*
X259240458Y-95815487D01*
X259184512Y-95759541D01*
X259184504Y-95759535D01*
X259115995Y-95719982D01*
X259115990Y-95719979D01*
X259090513Y-95713152D01*
X259039562Y-95699500D01*
X248039562Y-95699500D01*
X241039562Y-95699500D01*
X237539562Y-95699500D01*
X237460438Y-95699500D01*
X237422224Y-95709739D01*
X237384009Y-95719979D01*
X237384004Y-95719982D01*
X237315495Y-95759535D01*
X237315487Y-95759541D01*
X237259541Y-95815487D01*
X237259535Y-95815495D01*
X237219982Y-95884004D01*
X237219979Y-95884009D01*
X237210406Y-95919737D01*
X237202163Y-95950502D01*
X237199500Y-95960439D01*
X237199500Y-107575500D01*
X237179815Y-107642539D01*
X237127011Y-107688294D01*
X237075500Y-107699500D01*
X207424500Y-107699500D01*
X207357461Y-107679815D01*
X207311706Y-107627011D01*
X207300500Y-107575500D01*
X207300500Y-105948543D01*
X212679499Y-105948543D01*
X212717947Y-106141829D01*
X212717950Y-106141839D01*
X212793364Y-106323907D01*
X212793371Y-106323920D01*
X212902860Y-106487781D01*
X212902863Y-106487785D01*
X213042214Y-106627136D01*
X213042218Y-106627139D01*
X213206079Y-106736628D01*
X213206092Y-106736635D01*
X213388160Y-106812049D01*
X213388165Y-106812051D01*
X213388169Y-106812051D01*
X213388170Y-106812052D01*
X213581456Y-106850500D01*
X213581459Y-106850500D01*
X213778543Y-106850500D01*
X213908582Y-106824632D01*
X213971835Y-106812051D01*
X214153914Y-106736632D01*
X214317782Y-106627139D01*
X214457139Y-106487782D01*
X214566632Y-106323914D01*
X214642051Y-106141835D01*
X214680500Y-105948541D01*
X214680500Y-105151459D01*
X214680500Y-105151456D01*
X214642052Y-104958170D01*
X214642051Y-104958169D01*
X214642051Y-104958165D01*
X214609334Y-104879179D01*
X214566635Y-104776092D01*
X214566628Y-104776079D01*
X214457139Y-104612218D01*
X214457136Y-104612214D01*
X214317785Y-104472863D01*
X214317781Y-104472860D01*
X214153920Y-104363371D01*
X214153907Y-104363364D01*
X213971839Y-104287950D01*
X213971829Y-104287947D01*
X213778543Y-104249500D01*
X213778541Y-104249500D01*
X213581459Y-104249500D01*
X213581457Y-104249500D01*
X213388170Y-104287947D01*
X213388160Y-104287950D01*
X213206092Y-104363364D01*
X213206079Y-104363371D01*
X213042218Y-104472860D01*
X213042214Y-104472863D01*
X212902863Y-104612214D01*
X212902860Y-104612218D01*
X212793371Y-104776079D01*
X212793364Y-104776092D01*
X212717950Y-104958160D01*
X212717947Y-104958170D01*
X212679500Y-105151456D01*
X212679500Y-105151459D01*
X212679500Y-105948541D01*
X212679500Y-105948543D01*
X212679499Y-105948543D01*
X207300500Y-105948543D01*
X207300500Y-103921153D01*
X220699500Y-103921153D01*
X220699500Y-104078846D01*
X220730261Y-104233489D01*
X220730264Y-104233501D01*
X220790602Y-104379172D01*
X220790609Y-104379185D01*
X220878210Y-104510288D01*
X220878213Y-104510292D01*
X220989707Y-104621786D01*
X220989711Y-104621789D01*
X221120814Y-104709390D01*
X221120827Y-104709397D01*
X221250919Y-104763282D01*
X221266503Y-104769737D01*
X221274902Y-104771407D01*
X221336812Y-104803788D01*
X221371389Y-104864502D01*
X221367653Y-104934272D01*
X221365276Y-104940474D01*
X221357950Y-104958159D01*
X221357947Y-104958171D01*
X221319500Y-105151456D01*
X221319500Y-105151459D01*
X221319500Y-105948541D01*
X221319500Y-105948543D01*
X221319499Y-105948543D01*
X221357947Y-106141829D01*
X221357950Y-106141839D01*
X221433364Y-106323907D01*
X221433371Y-106323920D01*
X221542860Y-106487781D01*
X221542863Y-106487785D01*
X221682214Y-106627136D01*
X221682218Y-106627139D01*
X221846079Y-106736628D01*
X221846092Y-106736635D01*
X222028160Y-106812049D01*
X222028165Y-106812051D01*
X222028169Y-106812051D01*
X222028170Y-106812052D01*
X222221456Y-106850500D01*
X222221459Y-106850500D01*
X222418543Y-106850500D01*
X222548582Y-106824632D01*
X222611835Y-106812051D01*
X222793914Y-106736632D01*
X222957782Y-106627139D01*
X222967593Y-106617328D01*
X223079592Y-106505330D01*
X223097136Y-106487785D01*
X223097139Y-106487782D01*
X223206632Y-106323914D01*
X223282051Y-106141835D01*
X223320500Y-105948541D01*
X223320500Y-105418753D01*
X224860000Y-105418753D01*
X224860000Y-105631246D01*
X224893242Y-105841127D01*
X224893242Y-105841130D01*
X224958904Y-106043217D01*
X225055375Y-106232550D01*
X225094728Y-106286716D01*
X225727037Y-105654408D01*
X225744075Y-105717993D01*
X225809901Y-105832007D01*
X225902993Y-105925099D01*
X226017007Y-105990925D01*
X226080590Y-106007962D01*
X225448282Y-106640269D01*
X225448282Y-106640270D01*
X225502449Y-106679624D01*
X225691782Y-106776095D01*
X225893870Y-106841757D01*
X226103754Y-106875000D01*
X226316246Y-106875000D01*
X226526127Y-106841757D01*
X226526130Y-106841757D01*
X226728217Y-106776095D01*
X226917554Y-106679622D01*
X226971716Y-106640270D01*
X226971717Y-106640270D01*
X226339408Y-106007962D01*
X226402993Y-105990925D01*
X226517007Y-105925099D01*
X226610099Y-105832007D01*
X226675925Y-105717993D01*
X226692962Y-105654408D01*
X227363181Y-106324628D01*
X227396666Y-106385951D01*
X227399500Y-106412300D01*
X227399500Y-106422865D01*
X227399501Y-106422876D01*
X227405908Y-106482483D01*
X227456202Y-106617328D01*
X227456206Y-106617335D01*
X227542452Y-106732544D01*
X227542455Y-106732547D01*
X227657664Y-106818793D01*
X227657671Y-106818797D01*
X227792517Y-106869091D01*
X227792516Y-106869091D01*
X227799444Y-106869835D01*
X227852127Y-106875500D01*
X229647872Y-106875499D01*
X229707483Y-106869091D01*
X229842331Y-106818796D01*
X229957546Y-106732546D01*
X230043796Y-106617331D01*
X230094091Y-106482483D01*
X230100500Y-106422873D01*
X230100499Y-105003436D01*
X230120184Y-104936398D01*
X230172987Y-104890643D01*
X230242146Y-104880699D01*
X230305702Y-104909724D01*
X230327601Y-104934546D01*
X230378210Y-105010289D01*
X230489707Y-105121786D01*
X230489711Y-105121789D01*
X230620814Y-105209390D01*
X230620827Y-105209397D01*
X230766498Y-105269735D01*
X230766503Y-105269737D01*
X230921153Y-105300499D01*
X230921156Y-105300500D01*
X230921158Y-105300500D01*
X231078844Y-105300500D01*
X231078845Y-105300499D01*
X231233497Y-105269737D01*
X231379179Y-105209394D01*
X231510289Y-105121789D01*
X231621789Y-105010289D01*
X231709394Y-104879179D01*
X231769737Y-104733497D01*
X231800500Y-104578842D01*
X231800500Y-104421158D01*
X231800500Y-104421155D01*
X231800499Y-104421153D01*
X231790718Y-104371983D01*
X231769737Y-104266503D01*
X231755115Y-104231202D01*
X231709397Y-104120827D01*
X231709390Y-104120814D01*
X231621789Y-103989711D01*
X231621786Y-103989707D01*
X231510292Y-103878213D01*
X231472527Y-103852979D01*
X231427723Y-103799366D01*
X231419016Y-103730041D01*
X231449171Y-103667014D01*
X231508614Y-103630295D01*
X231517224Y-103628260D01*
X231528732Y-103625972D01*
X231674414Y-103565629D01*
X231805524Y-103478024D01*
X231917024Y-103366524D01*
X232004629Y-103235414D01*
X232006764Y-103230261D01*
X232064970Y-103089736D01*
X232064972Y-103089732D01*
X232095735Y-102935077D01*
X232095735Y-102777393D01*
X232095735Y-102777390D01*
X232095734Y-102777388D01*
X232079771Y-102697136D01*
X232064972Y-102622738D01*
X232041691Y-102566533D01*
X234824499Y-102566533D01*
X234850458Y-102697030D01*
X234850461Y-102697040D01*
X234901376Y-102819961D01*
X234901386Y-102819979D01*
X234975301Y-102930601D01*
X234975307Y-102930609D01*
X235069390Y-103024692D01*
X235069398Y-103024698D01*
X235180020Y-103098613D01*
X235180023Y-103098614D01*
X235180031Y-103098620D01*
X235302964Y-103149540D01*
X235302968Y-103149540D01*
X235302969Y-103149541D01*
X235433466Y-103175500D01*
X235433469Y-103175500D01*
X235566533Y-103175500D01*
X235654325Y-103158035D01*
X235697036Y-103149540D01*
X235819969Y-103098620D01*
X235930606Y-103024695D01*
X236024695Y-102930606D01*
X236098620Y-102819969D01*
X236149540Y-102697036D01*
X236175500Y-102566531D01*
X236175500Y-102433469D01*
X236175500Y-102433466D01*
X236149541Y-102302969D01*
X236149540Y-102302968D01*
X236149540Y-102302964D01*
X236149538Y-102302959D01*
X236098623Y-102180038D01*
X236098622Y-102180037D01*
X236098620Y-102180031D01*
X236076445Y-102146844D01*
X236024698Y-102069398D01*
X236024692Y-102069390D01*
X235930609Y-101975307D01*
X235930601Y-101975301D01*
X235819979Y-101901386D01*
X235819972Y-101901382D01*
X235819969Y-101901380D01*
X235819965Y-101901378D01*
X235819961Y-101901376D01*
X235697040Y-101850461D01*
X235697030Y-101850458D01*
X235566533Y-101824500D01*
X235566531Y-101824500D01*
X235433469Y-101824500D01*
X235433467Y-101824500D01*
X235302969Y-101850458D01*
X235302959Y-101850461D01*
X235180038Y-101901376D01*
X235180020Y-101901386D01*
X235069398Y-101975301D01*
X235069390Y-101975307D01*
X234975307Y-102069390D01*
X234975301Y-102069398D01*
X234901386Y-102180020D01*
X234901376Y-102180038D01*
X234850461Y-102302959D01*
X234850458Y-102302969D01*
X234824500Y-102433466D01*
X234824500Y-102433469D01*
X234824500Y-102566531D01*
X234824500Y-102566533D01*
X234824499Y-102566533D01*
X232041691Y-102566533D01*
X232004629Y-102477056D01*
X232004627Y-102477053D01*
X232004625Y-102477049D01*
X231917024Y-102345946D01*
X231917021Y-102345942D01*
X231805527Y-102234448D01*
X231805523Y-102234445D01*
X231674420Y-102146844D01*
X231674407Y-102146837D01*
X231528736Y-102086499D01*
X231528724Y-102086496D01*
X231374080Y-102055735D01*
X231374077Y-102055735D01*
X231216393Y-102055735D01*
X231216390Y-102055735D01*
X231061745Y-102086496D01*
X231061733Y-102086499D01*
X230916062Y-102146837D01*
X230916049Y-102146844D01*
X230784946Y-102234445D01*
X230784942Y-102234448D01*
X230673448Y-102345942D01*
X230673445Y-102345946D01*
X230585844Y-102477049D01*
X230585837Y-102477062D01*
X230525499Y-102622733D01*
X230525496Y-102622745D01*
X230494735Y-102777388D01*
X230494735Y-102935081D01*
X230525496Y-103089724D01*
X230525499Y-103089736D01*
X230585837Y-103235407D01*
X230585844Y-103235420D01*
X230673445Y-103366523D01*
X230673448Y-103366527D01*
X230784942Y-103478021D01*
X230784946Y-103478024D01*
X230822706Y-103503255D01*
X230867511Y-103556867D01*
X230876218Y-103626192D01*
X230846063Y-103689220D01*
X230786620Y-103725939D01*
X230778009Y-103727974D01*
X230766505Y-103730262D01*
X230766498Y-103730264D01*
X230620827Y-103790602D01*
X230620814Y-103790609D01*
X230489711Y-103878210D01*
X230489707Y-103878213D01*
X230378213Y-103989707D01*
X230378210Y-103989711D01*
X230290609Y-104120814D01*
X230290602Y-104120827D01*
X230230264Y-104266498D01*
X230230262Y-104266507D01*
X230219250Y-104321865D01*
X230186864Y-104383775D01*
X230126148Y-104418349D01*
X230056379Y-104414608D01*
X229999707Y-104373741D01*
X229998367Y-104371983D01*
X229957547Y-104317455D01*
X229957544Y-104317452D01*
X229842335Y-104231206D01*
X229842328Y-104231202D01*
X229707482Y-104180908D01*
X229707483Y-104180908D01*
X229647883Y-104174501D01*
X229647881Y-104174500D01*
X229647873Y-104174500D01*
X229647864Y-104174500D01*
X227852129Y-104174500D01*
X227852123Y-104174501D01*
X227792516Y-104180908D01*
X227657671Y-104231202D01*
X227657664Y-104231206D01*
X227542455Y-104317452D01*
X227542452Y-104317455D01*
X227456206Y-104432664D01*
X227456202Y-104432671D01*
X227405908Y-104567517D01*
X227399501Y-104627116D01*
X227399500Y-104627135D01*
X227399500Y-104637690D01*
X227379815Y-104704729D01*
X227363181Y-104725371D01*
X226692962Y-105395590D01*
X226675925Y-105332007D01*
X226610099Y-105217993D01*
X226517007Y-105124901D01*
X226402993Y-105059075D01*
X226339409Y-105042037D01*
X226971716Y-104409728D01*
X226917550Y-104370375D01*
X226728217Y-104273904D01*
X226526129Y-104208242D01*
X226316246Y-104175000D01*
X226103754Y-104175000D01*
X225893872Y-104208242D01*
X225893869Y-104208242D01*
X225691782Y-104273904D01*
X225502439Y-104370380D01*
X225448282Y-104409727D01*
X225448282Y-104409728D01*
X226080591Y-105042037D01*
X226017007Y-105059075D01*
X225902993Y-105124901D01*
X225809901Y-105217993D01*
X225744075Y-105332007D01*
X225727037Y-105395591D01*
X225094728Y-104763282D01*
X225094727Y-104763282D01*
X225055380Y-104817439D01*
X224958904Y-105006782D01*
X224893242Y-105208869D01*
X224893242Y-105208872D01*
X224860000Y-105418753D01*
X223320500Y-105418753D01*
X223320500Y-105151459D01*
X223320500Y-105151456D01*
X223282052Y-104958170D01*
X223282051Y-104958169D01*
X223282051Y-104958165D01*
X223249334Y-104879179D01*
X223206635Y-104776092D01*
X223206628Y-104776079D01*
X223097139Y-104612218D01*
X223097136Y-104612214D01*
X222957785Y-104472863D01*
X222957781Y-104472860D01*
X222793920Y-104363371D01*
X222793907Y-104363364D01*
X222611839Y-104287950D01*
X222611829Y-104287947D01*
X222418543Y-104249500D01*
X222418541Y-104249500D01*
X222417649Y-104249500D01*
X222417197Y-104249367D01*
X222412481Y-104248903D01*
X222412569Y-104248008D01*
X222350610Y-104229815D01*
X222304855Y-104177011D01*
X222294911Y-104107853D01*
X222296031Y-104101310D01*
X222300500Y-104078841D01*
X222300500Y-103921155D01*
X222300499Y-103921153D01*
X222274531Y-103790606D01*
X222269737Y-103766503D01*
X222269735Y-103766498D01*
X222209397Y-103620827D01*
X222209390Y-103620814D01*
X222121789Y-103489711D01*
X222121786Y-103489707D01*
X222010292Y-103378213D01*
X222010288Y-103378210D01*
X221879185Y-103290609D01*
X221879172Y-103290602D01*
X221733501Y-103230264D01*
X221733489Y-103230261D01*
X221578845Y-103199500D01*
X221578842Y-103199500D01*
X221421158Y-103199500D01*
X221421155Y-103199500D01*
X221266510Y-103230261D01*
X221266498Y-103230264D01*
X221120827Y-103290602D01*
X221120814Y-103290609D01*
X220989711Y-103378210D01*
X220989707Y-103378213D01*
X220878213Y-103489707D01*
X220878210Y-103489711D01*
X220790609Y-103620814D01*
X220790602Y-103620827D01*
X220730264Y-103766498D01*
X220730261Y-103766510D01*
X220699500Y-103921153D01*
X207300500Y-103921153D01*
X207300500Y-102018543D01*
X212679499Y-102018543D01*
X212717947Y-102211829D01*
X212717950Y-102211839D01*
X212793364Y-102393907D01*
X212793371Y-102393920D01*
X212902860Y-102557781D01*
X212902863Y-102557785D01*
X213042214Y-102697136D01*
X213042218Y-102697139D01*
X213206079Y-102806628D01*
X213206092Y-102806635D01*
X213388160Y-102882049D01*
X213388165Y-102882051D01*
X213388169Y-102882051D01*
X213388170Y-102882052D01*
X213581456Y-102920500D01*
X213581459Y-102920500D01*
X213778543Y-102920500D01*
X213908582Y-102894632D01*
X213971835Y-102882051D01*
X214153914Y-102806632D01*
X214317782Y-102697139D01*
X214457139Y-102557782D01*
X214566632Y-102393914D01*
X214566631Y-102393914D01*
X214570017Y-102388848D01*
X214571474Y-102389821D01*
X214614595Y-102345903D01*
X214682729Y-102330426D01*
X214748414Y-102354242D01*
X214750502Y-102355809D01*
X214756632Y-102360512D01*
X214756635Y-102360515D01*
X214887865Y-102436281D01*
X215034234Y-102475500D01*
X215034236Y-102475500D01*
X215185764Y-102475500D01*
X215185766Y-102475500D01*
X215332135Y-102436281D01*
X215463365Y-102360515D01*
X215570515Y-102253365D01*
X215646281Y-102122135D01*
X215685500Y-101975766D01*
X215685500Y-101824234D01*
X220314500Y-101824234D01*
X220314500Y-101975766D01*
X220325962Y-102018543D01*
X220353719Y-102122136D01*
X220387139Y-102180020D01*
X220429485Y-102253365D01*
X220536635Y-102360515D01*
X220667865Y-102436281D01*
X220814234Y-102475500D01*
X220814236Y-102475500D01*
X220965764Y-102475500D01*
X220965766Y-102475500D01*
X221112135Y-102436281D01*
X221243365Y-102360515D01*
X221243374Y-102360505D01*
X221249488Y-102355815D01*
X221314656Y-102330617D01*
X221383101Y-102344650D01*
X221429025Y-102389488D01*
X221429983Y-102388849D01*
X221433009Y-102393378D01*
X221433094Y-102393461D01*
X221433228Y-102393706D01*
X221542860Y-102557781D01*
X221542863Y-102557785D01*
X221682214Y-102697136D01*
X221682218Y-102697139D01*
X221846079Y-102806628D01*
X221846092Y-102806635D01*
X222028160Y-102882049D01*
X222028165Y-102882051D01*
X222028169Y-102882051D01*
X222028170Y-102882052D01*
X222221456Y-102920500D01*
X222221459Y-102920500D01*
X222418543Y-102920500D01*
X222548582Y-102894632D01*
X222611835Y-102882051D01*
X222793914Y-102806632D01*
X222957782Y-102697139D01*
X223097139Y-102557782D01*
X223206632Y-102393914D01*
X223282051Y-102211835D01*
X223294980Y-102146837D01*
X223320500Y-102018543D01*
X223320500Y-100721456D01*
X223282052Y-100528170D01*
X223282051Y-100528169D01*
X223282051Y-100528165D01*
X223248649Y-100447524D01*
X223206635Y-100346092D01*
X223206628Y-100346079D01*
X223097139Y-100182218D01*
X223097136Y-100182214D01*
X222957785Y-100042863D01*
X222957781Y-100042860D01*
X222793920Y-99933371D01*
X222793907Y-99933364D01*
X222611839Y-99857950D01*
X222611829Y-99857947D01*
X222418543Y-99819500D01*
X222418541Y-99819500D01*
X222221459Y-99819500D01*
X222221457Y-99819500D01*
X222028170Y-99857947D01*
X222028160Y-99857950D01*
X221846092Y-99933364D01*
X221846079Y-99933371D01*
X221682218Y-100042860D01*
X221682214Y-100042863D01*
X221542863Y-100182214D01*
X221542860Y-100182218D01*
X221433371Y-100346079D01*
X221433364Y-100346092D01*
X221357950Y-100528160D01*
X221357947Y-100528170D01*
X221319500Y-100721456D01*
X221319500Y-101268666D01*
X221299815Y-101335705D01*
X221247011Y-101381460D01*
X221177853Y-101391404D01*
X221133501Y-101376054D01*
X221112137Y-101363719D01*
X221007584Y-101335705D01*
X220965766Y-101324500D01*
X220814234Y-101324500D01*
X220667863Y-101363719D01*
X220536635Y-101439485D01*
X220536632Y-101439487D01*
X220429487Y-101546632D01*
X220429485Y-101546635D01*
X220353719Y-101677863D01*
X220314500Y-101824234D01*
X215685500Y-101824234D01*
X215646281Y-101677865D01*
X215570515Y-101546635D01*
X215463365Y-101439485D01*
X215380087Y-101391404D01*
X215332136Y-101363719D01*
X215227584Y-101335705D01*
X215185766Y-101324500D01*
X215034234Y-101324500D01*
X214887862Y-101363719D01*
X214866499Y-101376054D01*
X214798598Y-101392525D01*
X214732572Y-101369673D01*
X214689382Y-101314751D01*
X214680500Y-101268666D01*
X214680500Y-100721456D01*
X214642052Y-100528170D01*
X214642051Y-100528169D01*
X214642051Y-100528165D01*
X214608649Y-100447524D01*
X214566635Y-100346092D01*
X214566628Y-100346079D01*
X214457139Y-100182218D01*
X214457136Y-100182214D01*
X214317785Y-100042863D01*
X214317781Y-100042860D01*
X214153920Y-99933371D01*
X214153907Y-99933364D01*
X213971839Y-99857950D01*
X213971829Y-99857947D01*
X213778543Y-99819500D01*
X213778541Y-99819500D01*
X213581459Y-99819500D01*
X213581457Y-99819500D01*
X213388170Y-99857947D01*
X213388160Y-99857950D01*
X213206092Y-99933364D01*
X213206079Y-99933371D01*
X213042218Y-100042860D01*
X213042214Y-100042863D01*
X212902863Y-100182214D01*
X212902860Y-100182218D01*
X212793371Y-100346079D01*
X212793364Y-100346092D01*
X212717950Y-100528160D01*
X212717947Y-100528170D01*
X212679500Y-100721456D01*
X212679500Y-100721459D01*
X212679500Y-102018541D01*
X212679500Y-102018543D01*
X212679499Y-102018543D01*
X207300500Y-102018543D01*
X207300500Y-100960439D01*
X207280020Y-100884009D01*
X207280017Y-100884004D01*
X207240464Y-100815495D01*
X207240458Y-100815487D01*
X207237708Y-100812737D01*
X207184511Y-100759540D01*
X207115989Y-100719979D01*
X207073586Y-100708617D01*
X207057573Y-100698458D01*
X207046536Y-100685870D01*
X207032245Y-100677159D01*
X207023981Y-100660146D01*
X207011510Y-100645923D01*
X207009030Y-100629368D01*
X207001717Y-100614312D01*
X207000000Y-100593751D01*
X207000000Y-99746888D01*
X230873765Y-99746888D01*
X230873765Y-99904581D01*
X230904526Y-100059224D01*
X230904529Y-100059236D01*
X230964867Y-100204907D01*
X230964874Y-100204920D01*
X231052475Y-100336023D01*
X231052478Y-100336027D01*
X231163972Y-100447521D01*
X231163976Y-100447524D01*
X231295079Y-100535125D01*
X231295092Y-100535132D01*
X231436613Y-100593751D01*
X231440768Y-100595472D01*
X231595418Y-100626234D01*
X231595421Y-100626235D01*
X231595423Y-100626235D01*
X231753109Y-100626235D01*
X231753110Y-100626234D01*
X231907762Y-100595472D01*
X232053444Y-100535129D01*
X232184554Y-100447524D01*
X232296054Y-100336024D01*
X232383659Y-100204914D01*
X232444002Y-100059232D01*
X232474765Y-99904577D01*
X232474765Y-99746893D01*
X232474765Y-99746890D01*
X232474764Y-99746888D01*
X232444002Y-99592238D01*
X232433355Y-99566533D01*
X234824499Y-99566533D01*
X234850458Y-99697030D01*
X234850461Y-99697040D01*
X234901376Y-99819961D01*
X234901386Y-99819979D01*
X234975301Y-99930601D01*
X234975307Y-99930609D01*
X235069390Y-100024692D01*
X235069398Y-100024698D01*
X235180020Y-100098613D01*
X235180023Y-100098614D01*
X235180031Y-100098620D01*
X235302964Y-100149540D01*
X235302968Y-100149540D01*
X235302969Y-100149541D01*
X235433466Y-100175500D01*
X235433469Y-100175500D01*
X235566533Y-100175500D01*
X235654325Y-100158035D01*
X235697036Y-100149540D01*
X235819969Y-100098620D01*
X235930606Y-100024695D01*
X236024695Y-99930606D01*
X236098620Y-99819969D01*
X236149540Y-99697036D01*
X236170385Y-99592245D01*
X236175500Y-99566533D01*
X236175500Y-99433466D01*
X236149541Y-99302969D01*
X236149540Y-99302968D01*
X236149540Y-99302964D01*
X236098620Y-99180031D01*
X236090889Y-99168461D01*
X236024698Y-99069398D01*
X236024692Y-99069390D01*
X235930609Y-98975307D01*
X235930601Y-98975301D01*
X235819979Y-98901386D01*
X235819972Y-98901382D01*
X235819969Y-98901380D01*
X235819965Y-98901378D01*
X235819961Y-98901376D01*
X235697040Y-98850461D01*
X235697030Y-98850458D01*
X235566533Y-98824500D01*
X235566531Y-98824500D01*
X235433469Y-98824500D01*
X235433467Y-98824500D01*
X235302969Y-98850458D01*
X235302959Y-98850461D01*
X235180038Y-98901376D01*
X235180020Y-98901386D01*
X235069398Y-98975301D01*
X235069390Y-98975307D01*
X234975307Y-99069390D01*
X234975301Y-99069398D01*
X234901386Y-99180020D01*
X234901376Y-99180038D01*
X234850461Y-99302959D01*
X234850458Y-99302969D01*
X234824500Y-99433466D01*
X234824500Y-99433469D01*
X234824500Y-99566531D01*
X234824500Y-99566533D01*
X234824499Y-99566533D01*
X232433355Y-99566533D01*
X232383659Y-99446556D01*
X232383655Y-99446549D01*
X232296054Y-99315446D01*
X232296051Y-99315442D01*
X232184557Y-99203948D01*
X232184553Y-99203945D01*
X232053450Y-99116344D01*
X232053437Y-99116337D01*
X231907766Y-99055999D01*
X231907754Y-99055996D01*
X231753110Y-99025235D01*
X231753107Y-99025235D01*
X231595423Y-99025235D01*
X231595420Y-99025235D01*
X231440775Y-99055996D01*
X231440763Y-99055999D01*
X231295092Y-99116337D01*
X231295079Y-99116344D01*
X231163976Y-99203945D01*
X231163972Y-99203948D01*
X231052478Y-99315442D01*
X231052475Y-99315446D01*
X230964874Y-99446549D01*
X230964867Y-99446562D01*
X230904529Y-99592233D01*
X230904526Y-99592245D01*
X230873765Y-99746888D01*
X207000000Y-99746888D01*
X207000000Y-97921153D01*
X215779500Y-97921153D01*
X215779500Y-98078846D01*
X215810261Y-98233489D01*
X215810264Y-98233501D01*
X215870602Y-98379172D01*
X215870609Y-98379185D01*
X215958210Y-98510288D01*
X215958213Y-98510292D01*
X216069707Y-98621786D01*
X216069711Y-98621789D01*
X216200814Y-98709390D01*
X216200827Y-98709397D01*
X216346498Y-98769735D01*
X216346503Y-98769737D01*
X216501153Y-98800499D01*
X216501156Y-98800500D01*
X216501158Y-98800500D01*
X216658844Y-98800500D01*
X216658845Y-98800499D01*
X216813497Y-98769737D01*
X216956668Y-98710434D01*
X216956680Y-98710429D01*
X219127562Y-98710429D01*
X219127562Y-98868122D01*
X219158323Y-99022765D01*
X219158326Y-99022777D01*
X219218664Y-99168448D01*
X219218671Y-99168461D01*
X219306272Y-99299564D01*
X219306275Y-99299568D01*
X219417769Y-99411062D01*
X219417773Y-99411065D01*
X219548876Y-99498666D01*
X219548889Y-99498673D01*
X219694560Y-99559011D01*
X219694565Y-99559013D01*
X219849215Y-99589775D01*
X219849218Y-99589776D01*
X219849220Y-99589776D01*
X220006906Y-99589776D01*
X220006907Y-99589775D01*
X220161559Y-99559013D01*
X220307241Y-99498670D01*
X220438351Y-99411065D01*
X220549851Y-99299565D01*
X220637456Y-99168455D01*
X220697799Y-99022773D01*
X220728562Y-98868118D01*
X220728562Y-98710434D01*
X220728562Y-98710431D01*
X220728561Y-98710429D01*
X220710929Y-98621789D01*
X220697799Y-98555779D01*
X220678956Y-98510288D01*
X220637459Y-98410103D01*
X220637452Y-98410090D01*
X220554849Y-98286467D01*
X220554848Y-98286465D01*
X220549852Y-98278988D01*
X220549848Y-98278983D01*
X220494528Y-98223663D01*
X222919500Y-98223663D01*
X222919500Y-98381356D01*
X222950261Y-98535999D01*
X222950264Y-98536011D01*
X223010602Y-98681682D01*
X223010609Y-98681695D01*
X223098210Y-98812798D01*
X223098213Y-98812802D01*
X223209707Y-98924296D01*
X223209711Y-98924299D01*
X223340814Y-99011900D01*
X223340827Y-99011907D01*
X223479615Y-99069394D01*
X223486503Y-99072247D01*
X223641153Y-99103009D01*
X223641156Y-99103010D01*
X223641158Y-99103010D01*
X223798844Y-99103010D01*
X223798845Y-99103009D01*
X223953497Y-99072247D01*
X224099179Y-99011904D01*
X224230289Y-98924299D01*
X224341789Y-98812799D01*
X224429394Y-98681689D01*
X224489737Y-98536007D01*
X224520500Y-98381352D01*
X224520500Y-98223668D01*
X224520500Y-98223665D01*
X224520499Y-98223663D01*
X224509325Y-98167487D01*
X224489737Y-98069013D01*
X224469245Y-98019540D01*
X224429397Y-97923337D01*
X224429390Y-97923324D01*
X224341789Y-97792221D01*
X224341786Y-97792217D01*
X224230292Y-97680723D01*
X224230288Y-97680720D01*
X224099185Y-97593119D01*
X224099172Y-97593112D01*
X223953501Y-97532774D01*
X223953489Y-97532771D01*
X223798845Y-97502010D01*
X223798842Y-97502010D01*
X223641158Y-97502010D01*
X223641155Y-97502010D01*
X223486510Y-97532771D01*
X223486498Y-97532774D01*
X223340827Y-97593112D01*
X223340814Y-97593119D01*
X223209711Y-97680720D01*
X223209707Y-97680723D01*
X223098213Y-97792217D01*
X223098210Y-97792221D01*
X223010609Y-97923324D01*
X223010602Y-97923337D01*
X222950264Y-98069008D01*
X222950261Y-98069020D01*
X222919500Y-98223663D01*
X220494528Y-98223663D01*
X220438354Y-98167489D01*
X220438350Y-98167486D01*
X220307247Y-98079885D01*
X220307234Y-98079878D01*
X220161563Y-98019540D01*
X220161551Y-98019537D01*
X220006907Y-97988776D01*
X220006904Y-97988776D01*
X219849220Y-97988776D01*
X219849217Y-97988776D01*
X219694572Y-98019537D01*
X219694560Y-98019540D01*
X219548889Y-98079878D01*
X219548876Y-98079885D01*
X219417773Y-98167486D01*
X219417769Y-98167489D01*
X219306275Y-98278983D01*
X219306272Y-98278987D01*
X219218671Y-98410090D01*
X219218664Y-98410103D01*
X219158326Y-98555774D01*
X219158323Y-98555786D01*
X219127562Y-98710429D01*
X216956680Y-98710429D01*
X216959172Y-98709397D01*
X216959172Y-98709396D01*
X216959179Y-98709394D01*
X217090289Y-98621789D01*
X217090292Y-98621786D01*
X217095418Y-98616661D01*
X217201786Y-98510292D01*
X217201789Y-98510289D01*
X217289394Y-98379179D01*
X217349737Y-98233497D01*
X217380500Y-98078842D01*
X217380500Y-97921158D01*
X217380500Y-97921155D01*
X217380499Y-97921153D01*
X217349737Y-97766503D01*
X217314206Y-97680723D01*
X217289397Y-97620827D01*
X217289390Y-97620814D01*
X217201789Y-97489711D01*
X217201786Y-97489707D01*
X217090292Y-97378213D01*
X217090288Y-97378210D01*
X216959185Y-97290609D01*
X216959172Y-97290602D01*
X216813501Y-97230264D01*
X216813489Y-97230261D01*
X216658845Y-97199500D01*
X216658842Y-97199500D01*
X216501158Y-97199500D01*
X216501155Y-97199500D01*
X216346510Y-97230261D01*
X216346498Y-97230264D01*
X216200827Y-97290602D01*
X216200814Y-97290609D01*
X216069711Y-97378210D01*
X216069707Y-97378213D01*
X215958213Y-97489707D01*
X215958210Y-97489711D01*
X215870609Y-97620814D01*
X215870602Y-97620827D01*
X215810264Y-97766498D01*
X215810261Y-97766510D01*
X215779500Y-97921153D01*
X207000000Y-97921153D01*
X207000000Y-95071153D01*
X215961381Y-95071153D01*
X215961381Y-95228846D01*
X215992142Y-95383489D01*
X215992145Y-95383501D01*
X216052483Y-95529172D01*
X216052490Y-95529185D01*
X216140091Y-95660288D01*
X216140094Y-95660292D01*
X216251588Y-95771786D01*
X216251592Y-95771789D01*
X216382695Y-95859390D01*
X216382708Y-95859397D01*
X216528379Y-95919735D01*
X216528384Y-95919737D01*
X216683034Y-95950499D01*
X216683037Y-95950500D01*
X216683039Y-95950500D01*
X216840725Y-95950500D01*
X216840726Y-95950499D01*
X216995378Y-95919737D01*
X217141060Y-95859394D01*
X217272170Y-95771789D01*
X217383670Y-95660289D01*
X217471275Y-95529179D01*
X217531618Y-95383497D01*
X217562381Y-95228842D01*
X217562381Y-95071158D01*
X217562381Y-95071156D01*
X217562381Y-95071155D01*
X217562380Y-95071153D01*
X217544587Y-94981702D01*
X217531618Y-94916503D01*
X217478496Y-94788253D01*
X217471278Y-94770827D01*
X217471271Y-94770814D01*
X217383670Y-94639711D01*
X217383667Y-94639707D01*
X217272173Y-94528213D01*
X217272169Y-94528210D01*
X217141066Y-94440609D01*
X217141053Y-94440602D01*
X216995382Y-94380264D01*
X216995370Y-94380261D01*
X216840726Y-94349500D01*
X216840723Y-94349500D01*
X216683039Y-94349500D01*
X216683036Y-94349500D01*
X216528391Y-94380261D01*
X216528379Y-94380264D01*
X216382708Y-94440602D01*
X216382695Y-94440609D01*
X216251592Y-94528210D01*
X216251588Y-94528213D01*
X216140094Y-94639707D01*
X216140091Y-94639711D01*
X216052490Y-94770814D01*
X216052483Y-94770827D01*
X215992145Y-94916498D01*
X215992142Y-94916510D01*
X215961381Y-95071153D01*
X207000000Y-95071153D01*
X207000000Y-93421153D01*
X213199500Y-93421153D01*
X213199500Y-93578846D01*
X213230261Y-93733489D01*
X213230264Y-93733501D01*
X213290602Y-93879172D01*
X213290609Y-93879185D01*
X213378210Y-94010288D01*
X213378213Y-94010292D01*
X213489707Y-94121786D01*
X213489711Y-94121789D01*
X213620814Y-94209390D01*
X213620827Y-94209397D01*
X213766498Y-94269735D01*
X213766503Y-94269737D01*
X213921153Y-94300499D01*
X213921156Y-94300500D01*
X213921158Y-94300500D01*
X214078844Y-94300500D01*
X214078845Y-94300499D01*
X214233497Y-94269737D01*
X214379179Y-94209394D01*
X214510289Y-94121789D01*
X214621789Y-94010289D01*
X214709394Y-93879179D01*
X214769737Y-93733497D01*
X214800500Y-93578842D01*
X214800500Y-93421158D01*
X214800500Y-93421155D01*
X214800499Y-93421153D01*
X214769738Y-93266510D01*
X214769737Y-93266503D01*
X214769735Y-93266498D01*
X214709397Y-93120827D01*
X214709390Y-93120814D01*
X214621789Y-92989711D01*
X214621786Y-92989707D01*
X214510292Y-92878213D01*
X214510288Y-92878210D01*
X214379185Y-92790609D01*
X214379172Y-92790602D01*
X214233501Y-92730264D01*
X214233489Y-92730261D01*
X214078845Y-92699500D01*
X214078842Y-92699500D01*
X213921158Y-92699500D01*
X213921155Y-92699500D01*
X213766510Y-92730261D01*
X213766498Y-92730264D01*
X213620827Y-92790602D01*
X213620814Y-92790609D01*
X213489711Y-92878210D01*
X213489707Y-92878213D01*
X213378213Y-92989707D01*
X213378210Y-92989711D01*
X213290609Y-93120814D01*
X213290602Y-93120827D01*
X213230264Y-93266498D01*
X213230261Y-93266510D01*
X213199500Y-93421153D01*
X207000000Y-93421153D01*
X207000000Y-90921153D01*
X215199500Y-90921153D01*
X215199500Y-91078846D01*
X215230261Y-91233489D01*
X215230264Y-91233501D01*
X215290602Y-91379172D01*
X215290609Y-91379185D01*
X215378210Y-91510288D01*
X215378213Y-91510292D01*
X215489707Y-91621786D01*
X215489711Y-91621789D01*
X215620814Y-91709390D01*
X215620827Y-91709397D01*
X215758683Y-91766498D01*
X215766503Y-91769737D01*
X215884112Y-91793131D01*
X215921153Y-91800499D01*
X215921156Y-91800500D01*
X215921158Y-91800500D01*
X216078844Y-91800500D01*
X216078845Y-91800499D01*
X216233497Y-91769737D01*
X216379179Y-91709394D01*
X216510289Y-91621789D01*
X216621789Y-91510289D01*
X216709394Y-91379179D01*
X216769737Y-91233497D01*
X216800500Y-91078842D01*
X216800500Y-90921158D01*
X216800500Y-90921155D01*
X216800499Y-90921153D01*
X217699500Y-90921153D01*
X217699500Y-91078846D01*
X217730261Y-91233489D01*
X217730264Y-91233501D01*
X217790602Y-91379172D01*
X217790609Y-91379185D01*
X217878210Y-91510288D01*
X217878213Y-91510292D01*
X217989707Y-91621786D01*
X217989711Y-91621789D01*
X218120814Y-91709390D01*
X218120827Y-91709397D01*
X218258683Y-91766498D01*
X218266503Y-91769737D01*
X218384112Y-91793131D01*
X218421153Y-91800499D01*
X218421156Y-91800500D01*
X218421158Y-91800500D01*
X218578844Y-91800500D01*
X218578845Y-91800499D01*
X218733497Y-91769737D01*
X218879179Y-91709394D01*
X219010289Y-91621789D01*
X219121789Y-91510289D01*
X219209394Y-91379179D01*
X219269737Y-91233497D01*
X219300500Y-91078842D01*
X219300500Y-90921158D01*
X219300500Y-90921155D01*
X219300499Y-90921153D01*
X219275604Y-90795999D01*
X219269737Y-90766503D01*
X219216638Y-90638310D01*
X221416657Y-90638310D01*
X221416657Y-90796003D01*
X221447418Y-90950646D01*
X221447421Y-90950658D01*
X221507759Y-91096329D01*
X221507766Y-91096342D01*
X221595367Y-91227445D01*
X221595370Y-91227449D01*
X221706864Y-91338943D01*
X221706868Y-91338946D01*
X221837971Y-91426547D01*
X221837983Y-91426554D01*
X221925522Y-91462812D01*
X221957027Y-91475862D01*
X222011431Y-91519702D01*
X222024136Y-91542970D01*
X222073447Y-91662019D01*
X222073452Y-91662028D01*
X222161053Y-91793131D01*
X222161056Y-91793135D01*
X222272550Y-91904629D01*
X222272554Y-91904632D01*
X222403657Y-91992233D01*
X222403670Y-91992240D01*
X222524192Y-92042161D01*
X222549346Y-92052580D01*
X222701769Y-92082899D01*
X222703996Y-92083342D01*
X222703999Y-92083343D01*
X222704001Y-92083343D01*
X222861687Y-92083343D01*
X222861688Y-92083342D01*
X223016340Y-92052580D01*
X223162022Y-91992237D01*
X223167399Y-91988644D01*
X223241609Y-91939059D01*
X223308286Y-91918181D01*
X223375667Y-91936665D01*
X223422357Y-91988644D01*
X223434500Y-92042161D01*
X223434500Y-92078846D01*
X223465261Y-92233489D01*
X223465264Y-92233501D01*
X223525602Y-92379172D01*
X223525609Y-92379185D01*
X223613210Y-92510288D01*
X223613213Y-92510292D01*
X223724707Y-92621786D01*
X223724711Y-92621789D01*
X223855814Y-92709390D01*
X223855827Y-92709397D01*
X223961144Y-92753020D01*
X224015548Y-92796860D01*
X224037613Y-92863154D01*
X224035310Y-92891769D01*
X224034500Y-92895841D01*
X224034500Y-93053531D01*
X224065261Y-93208174D01*
X224065264Y-93208186D01*
X224125602Y-93353857D01*
X224125609Y-93353870D01*
X224215268Y-93488054D01*
X224236146Y-93554732D01*
X224217661Y-93622112D01*
X224165682Y-93668802D01*
X224096712Y-93679978D01*
X224043275Y-93660047D01*
X224014184Y-93640609D01*
X224014172Y-93640602D01*
X223868501Y-93580264D01*
X223868489Y-93580261D01*
X223713845Y-93549500D01*
X223713842Y-93549500D01*
X223556158Y-93549500D01*
X223556155Y-93549500D01*
X223401510Y-93580261D01*
X223401498Y-93580264D01*
X223255827Y-93640602D01*
X223255814Y-93640609D01*
X223124711Y-93728210D01*
X223124707Y-93728213D01*
X223013213Y-93839707D01*
X223013210Y-93839711D01*
X222925609Y-93970814D01*
X222925602Y-93970827D01*
X222865264Y-94116498D01*
X222865261Y-94116510D01*
X222834500Y-94271153D01*
X222834500Y-94428846D01*
X222865261Y-94583489D01*
X222865264Y-94583501D01*
X222925602Y-94729172D01*
X222925609Y-94729185D01*
X223013209Y-94860287D01*
X223013210Y-94860288D01*
X223013211Y-94860289D01*
X223073303Y-94920381D01*
X223106787Y-94981702D01*
X223107239Y-95032250D01*
X223099500Y-95071160D01*
X223099500Y-95228849D01*
X223130261Y-95383492D01*
X223130264Y-95383504D01*
X223190602Y-95529175D01*
X223190609Y-95529188D01*
X223278210Y-95660291D01*
X223278213Y-95660295D01*
X223389707Y-95771789D01*
X223389711Y-95771792D01*
X223520814Y-95859393D01*
X223520827Y-95859400D01*
X223666491Y-95919735D01*
X223666503Y-95919740D01*
X223821138Y-95950499D01*
X223821153Y-95950502D01*
X223821156Y-95950503D01*
X223821158Y-95950503D01*
X223978844Y-95950503D01*
X223978845Y-95950502D01*
X224133497Y-95919740D01*
X224279179Y-95859397D01*
X224410289Y-95771792D01*
X224521789Y-95660292D01*
X224609394Y-95529182D01*
X224669737Y-95383500D01*
X224700500Y-95228845D01*
X224700500Y-95071161D01*
X224700500Y-95071160D01*
X224700500Y-95071158D01*
X224700499Y-95071156D01*
X224669738Y-94916513D01*
X224669737Y-94916506D01*
X224664796Y-94904577D01*
X224616614Y-94788253D01*
X224609395Y-94770827D01*
X224609394Y-94770824D01*
X224609392Y-94770821D01*
X224609390Y-94770817D01*
X224593401Y-94746888D01*
X235873765Y-94746888D01*
X235873765Y-94904581D01*
X235904526Y-95059224D01*
X235904529Y-95059236D01*
X235964867Y-95204907D01*
X235964874Y-95204920D01*
X236052475Y-95336023D01*
X236052478Y-95336027D01*
X236163972Y-95447521D01*
X236163976Y-95447524D01*
X236295079Y-95535125D01*
X236295092Y-95535132D01*
X236440763Y-95595470D01*
X236440768Y-95595472D01*
X236595418Y-95626234D01*
X236595421Y-95626235D01*
X236595423Y-95626235D01*
X236753109Y-95626235D01*
X236753110Y-95626234D01*
X236907762Y-95595472D01*
X237053444Y-95535129D01*
X237184554Y-95447524D01*
X237296054Y-95336024D01*
X237383659Y-95204914D01*
X237444002Y-95059232D01*
X237474765Y-94904577D01*
X237474765Y-94746893D01*
X237474765Y-94746890D01*
X237474764Y-94746888D01*
X237471240Y-94729172D01*
X237444002Y-94592238D01*
X237417482Y-94528213D01*
X237383662Y-94446562D01*
X237383655Y-94446549D01*
X237296054Y-94315446D01*
X237296051Y-94315442D01*
X237184557Y-94203948D01*
X237184553Y-94203945D01*
X237053450Y-94116344D01*
X237053437Y-94116337D01*
X236907766Y-94055999D01*
X236907754Y-94055996D01*
X236753110Y-94025235D01*
X236753107Y-94025235D01*
X236595423Y-94025235D01*
X236595420Y-94025235D01*
X236440775Y-94055996D01*
X236440763Y-94055999D01*
X236295092Y-94116337D01*
X236295079Y-94116344D01*
X236163976Y-94203945D01*
X236163972Y-94203948D01*
X236052478Y-94315442D01*
X236052475Y-94315446D01*
X235964874Y-94446549D01*
X235964867Y-94446562D01*
X235904529Y-94592233D01*
X235904526Y-94592245D01*
X235873765Y-94746888D01*
X224593401Y-94746888D01*
X224521789Y-94639714D01*
X224521786Y-94639710D01*
X224461697Y-94579621D01*
X224428212Y-94518298D01*
X224427761Y-94467747D01*
X224435500Y-94428843D01*
X224435500Y-94271155D01*
X224435499Y-94271153D01*
X224422131Y-94203948D01*
X224404737Y-94116503D01*
X224379675Y-94055998D01*
X224344397Y-93970827D01*
X224344390Y-93970814D01*
X224254731Y-93836630D01*
X224233853Y-93769952D01*
X224252338Y-93702572D01*
X224304316Y-93655882D01*
X224373286Y-93644706D01*
X224426725Y-93664638D01*
X224455812Y-93684074D01*
X224455827Y-93684082D01*
X224575137Y-93733501D01*
X224601503Y-93744422D01*
X224729850Y-93769952D01*
X224756153Y-93775184D01*
X224756156Y-93775185D01*
X224756158Y-93775185D01*
X224913844Y-93775185D01*
X224913845Y-93775184D01*
X225068497Y-93744422D01*
X225214179Y-93684079D01*
X225345289Y-93596474D01*
X225456789Y-93484974D01*
X225544394Y-93353864D01*
X225604737Y-93208182D01*
X225635500Y-93053527D01*
X225635500Y-92895843D01*
X225635500Y-92895841D01*
X225635500Y-92895840D01*
X225635499Y-92895838D01*
X225627865Y-92857461D01*
X225604737Y-92741188D01*
X225591566Y-92709390D01*
X225544397Y-92595512D01*
X225544390Y-92595499D01*
X225456789Y-92464396D01*
X225456786Y-92464392D01*
X225345292Y-92352898D01*
X225345288Y-92352895D01*
X225214185Y-92265294D01*
X225214176Y-92265289D01*
X225108854Y-92221664D01*
X225054451Y-92177823D01*
X225032386Y-92111529D01*
X225034691Y-92082907D01*
X225035500Y-92078842D01*
X225035500Y-91921158D01*
X225035500Y-91921155D01*
X225035499Y-91921153D01*
X225010034Y-91793132D01*
X225004737Y-91766503D01*
X224981080Y-91709390D01*
X224944397Y-91620827D01*
X224944390Y-91620814D01*
X224856789Y-91489711D01*
X224856786Y-91489707D01*
X224745292Y-91378213D01*
X224745288Y-91378210D01*
X224614185Y-91290609D01*
X224614172Y-91290602D01*
X224468501Y-91230264D01*
X224468489Y-91230261D01*
X224313845Y-91199500D01*
X224313842Y-91199500D01*
X224156158Y-91199500D01*
X224156155Y-91199500D01*
X224001510Y-91230261D01*
X224001498Y-91230264D01*
X223855827Y-91290602D01*
X223855816Y-91290608D01*
X223776233Y-91343784D01*
X223709556Y-91364661D01*
X223642176Y-91346176D01*
X223595486Y-91294197D01*
X223583343Y-91240681D01*
X223583343Y-91203998D01*
X223583342Y-91203996D01*
X223561927Y-91096336D01*
X223552580Y-91049346D01*
X223552578Y-91049341D01*
X223492240Y-90903670D01*
X223492233Y-90903657D01*
X223404632Y-90772554D01*
X223404629Y-90772550D01*
X223293135Y-90661056D01*
X223293131Y-90661053D01*
X223162028Y-90573452D01*
X223162019Y-90573447D01*
X223042970Y-90524136D01*
X222988567Y-90480295D01*
X222975862Y-90457027D01*
X222926554Y-90337983D01*
X222926547Y-90337971D01*
X222838946Y-90206868D01*
X222838943Y-90206864D01*
X222727449Y-90095370D01*
X222727445Y-90095367D01*
X222611909Y-90018168D01*
X222596342Y-90007766D01*
X222596329Y-90007759D01*
X222450658Y-89947421D01*
X222450646Y-89947418D01*
X222318605Y-89921153D01*
X228834500Y-89921153D01*
X228834500Y-90078846D01*
X228865261Y-90233489D01*
X228865264Y-90233501D01*
X228925602Y-90379172D01*
X228925609Y-90379185D01*
X229013210Y-90510288D01*
X229013213Y-90510292D01*
X229124707Y-90621786D01*
X229124711Y-90621789D01*
X229255814Y-90709390D01*
X229255827Y-90709397D01*
X229393683Y-90766498D01*
X229401503Y-90769737D01*
X229556153Y-90800499D01*
X229556156Y-90800500D01*
X229556158Y-90800500D01*
X229713844Y-90800500D01*
X229713845Y-90800499D01*
X229868497Y-90769737D01*
X230014179Y-90709394D01*
X230145289Y-90621789D01*
X230256789Y-90510289D01*
X230344394Y-90379179D01*
X230404737Y-90233497D01*
X230435500Y-90078842D01*
X230435500Y-89921158D01*
X230435500Y-89921155D01*
X230435499Y-89921153D01*
X230404738Y-89766510D01*
X230404737Y-89766503D01*
X230404735Y-89766498D01*
X230344397Y-89620827D01*
X230344390Y-89620814D01*
X230256789Y-89489711D01*
X230256786Y-89489707D01*
X230145292Y-89378213D01*
X230145288Y-89378210D01*
X230014185Y-89290609D01*
X230014172Y-89290602D01*
X229868501Y-89230264D01*
X229868489Y-89230261D01*
X229713845Y-89199500D01*
X229713842Y-89199500D01*
X229556158Y-89199500D01*
X229556155Y-89199500D01*
X229401510Y-89230261D01*
X229401498Y-89230264D01*
X229255827Y-89290602D01*
X229255814Y-89290609D01*
X229124711Y-89378210D01*
X229124707Y-89378213D01*
X229013213Y-89489707D01*
X229013210Y-89489711D01*
X228925609Y-89620814D01*
X228925602Y-89620827D01*
X228865264Y-89766498D01*
X228865261Y-89766510D01*
X228834500Y-89921153D01*
X222318605Y-89921153D01*
X222296002Y-89916657D01*
X222295999Y-89916657D01*
X222138315Y-89916657D01*
X222138312Y-89916657D01*
X221983667Y-89947418D01*
X221983655Y-89947421D01*
X221837984Y-90007759D01*
X221837971Y-90007766D01*
X221706868Y-90095367D01*
X221706864Y-90095370D01*
X221595370Y-90206864D01*
X221595367Y-90206868D01*
X221507766Y-90337971D01*
X221507759Y-90337984D01*
X221447421Y-90483655D01*
X221447418Y-90483667D01*
X221416657Y-90638310D01*
X219216638Y-90638310D01*
X219209394Y-90620821D01*
X219209392Y-90620818D01*
X219209390Y-90620814D01*
X219121789Y-90489711D01*
X219121786Y-90489707D01*
X219010292Y-90378213D01*
X219010288Y-90378210D01*
X218879185Y-90290609D01*
X218879172Y-90290602D01*
X218733501Y-90230264D01*
X218733489Y-90230261D01*
X218578845Y-90199500D01*
X218578842Y-90199500D01*
X218421158Y-90199500D01*
X218421155Y-90199500D01*
X218266510Y-90230261D01*
X218266498Y-90230264D01*
X218120827Y-90290602D01*
X218120814Y-90290609D01*
X217989711Y-90378210D01*
X217989707Y-90378213D01*
X217878213Y-90489707D01*
X217878210Y-90489711D01*
X217790609Y-90620814D01*
X217790602Y-90620827D01*
X217730264Y-90766498D01*
X217730261Y-90766510D01*
X217699500Y-90921153D01*
X216800499Y-90921153D01*
X216775604Y-90795999D01*
X216769737Y-90766503D01*
X216726059Y-90661053D01*
X216709397Y-90620827D01*
X216709390Y-90620814D01*
X216621789Y-90489711D01*
X216621786Y-90489707D01*
X216510292Y-90378213D01*
X216510288Y-90378210D01*
X216379185Y-90290609D01*
X216379172Y-90290602D01*
X216233501Y-90230264D01*
X216233489Y-90230261D01*
X216078845Y-90199500D01*
X216078842Y-90199500D01*
X215921158Y-90199500D01*
X215921155Y-90199500D01*
X215766510Y-90230261D01*
X215766498Y-90230264D01*
X215620827Y-90290602D01*
X215620814Y-90290609D01*
X215489711Y-90378210D01*
X215489707Y-90378213D01*
X215378213Y-90489707D01*
X215378210Y-90489711D01*
X215290609Y-90620814D01*
X215290602Y-90620827D01*
X215230264Y-90766498D01*
X215230261Y-90766510D01*
X215199500Y-90921153D01*
X207000000Y-90921153D01*
X207000000Y-88302451D01*
X216024500Y-88302451D01*
X216024500Y-88460144D01*
X216055261Y-88614787D01*
X216055264Y-88614799D01*
X216115602Y-88760470D01*
X216115609Y-88760483D01*
X216203210Y-88891586D01*
X216203213Y-88891590D01*
X216314707Y-89003084D01*
X216314711Y-89003087D01*
X216445814Y-89090688D01*
X216445827Y-89090695D01*
X216591498Y-89151033D01*
X216591503Y-89151035D01*
X216746153Y-89181797D01*
X216746156Y-89181798D01*
X216746158Y-89181798D01*
X216903844Y-89181798D01*
X216903845Y-89181797D01*
X217058497Y-89151035D01*
X217204179Y-89090692D01*
X217335289Y-89003087D01*
X217446789Y-88891587D01*
X217534394Y-88760477D01*
X217594737Y-88614795D01*
X217625500Y-88460140D01*
X217625500Y-88302456D01*
X217625500Y-88302453D01*
X217625499Y-88302451D01*
X217594738Y-88147808D01*
X217594737Y-88147801D01*
X217594735Y-88147796D01*
X217534397Y-88002125D01*
X217534390Y-88002112D01*
X217446789Y-87871009D01*
X217446786Y-87871005D01*
X217335292Y-87759511D01*
X217335288Y-87759508D01*
X217204185Y-87671907D01*
X217204172Y-87671900D01*
X217058501Y-87611562D01*
X217058489Y-87611559D01*
X216903845Y-87580798D01*
X216903842Y-87580798D01*
X216746158Y-87580798D01*
X216746155Y-87580798D01*
X216591510Y-87611559D01*
X216591498Y-87611562D01*
X216445827Y-87671900D01*
X216445814Y-87671907D01*
X216314711Y-87759508D01*
X216314707Y-87759511D01*
X216203213Y-87871005D01*
X216203210Y-87871009D01*
X216115609Y-88002112D01*
X216115602Y-88002125D01*
X216055264Y-88147796D01*
X216055261Y-88147808D01*
X216024500Y-88302451D01*
X207000000Y-88302451D01*
X207000000Y-87098543D01*
X220919499Y-87098543D01*
X220957947Y-87291829D01*
X220957950Y-87291839D01*
X221033364Y-87473907D01*
X221033371Y-87473920D01*
X221142860Y-87637781D01*
X221142863Y-87637785D01*
X221282214Y-87777136D01*
X221282218Y-87777139D01*
X221446079Y-87886628D01*
X221446092Y-87886635D01*
X221628160Y-87962049D01*
X221628165Y-87962051D01*
X221628169Y-87962051D01*
X221628170Y-87962052D01*
X221821456Y-88000500D01*
X221821459Y-88000500D01*
X222018543Y-88000500D01*
X222148582Y-87974632D01*
X222211835Y-87962051D01*
X222393914Y-87886632D01*
X222557782Y-87777139D01*
X222697139Y-87637782D01*
X222806632Y-87473914D01*
X222882051Y-87291835D01*
X222920500Y-87098543D01*
X223459499Y-87098543D01*
X223497947Y-87291829D01*
X223497950Y-87291839D01*
X223573364Y-87473907D01*
X223573371Y-87473920D01*
X223682860Y-87637781D01*
X223682863Y-87637785D01*
X223822214Y-87777136D01*
X223822218Y-87777139D01*
X223986079Y-87886628D01*
X223986092Y-87886635D01*
X224168160Y-87962049D01*
X224168165Y-87962051D01*
X224168169Y-87962051D01*
X224168170Y-87962052D01*
X224361456Y-88000500D01*
X224361459Y-88000500D01*
X224558543Y-88000500D01*
X224688582Y-87974632D01*
X224751835Y-87962051D01*
X224933914Y-87886632D01*
X225097782Y-87777139D01*
X225237139Y-87637782D01*
X225346632Y-87473914D01*
X225422051Y-87291835D01*
X225460500Y-87098541D01*
X225460500Y-86901504D01*
X226000000Y-86901504D01*
X226000000Y-87098495D01*
X226038427Y-87291681D01*
X226038430Y-87291693D01*
X226113807Y-87473671D01*
X226113814Y-87473684D01*
X226223248Y-87637462D01*
X226223251Y-87637466D01*
X226362533Y-87776748D01*
X226362537Y-87776751D01*
X226526315Y-87886185D01*
X226526328Y-87886192D01*
X226708306Y-87961569D01*
X226708318Y-87961572D01*
X226901504Y-87999999D01*
X226901508Y-88000000D01*
X227098492Y-88000000D01*
X227098495Y-87999999D01*
X227291681Y-87961572D01*
X227291693Y-87961569D01*
X227473671Y-87886192D01*
X227473684Y-87886185D01*
X227637462Y-87776751D01*
X227637466Y-87776748D01*
X227776748Y-87637466D01*
X227776751Y-87637462D01*
X227886185Y-87473684D01*
X227886192Y-87473671D01*
X227961569Y-87291693D01*
X227961572Y-87291681D01*
X227999989Y-87098543D01*
X228539499Y-87098543D01*
X228577947Y-87291829D01*
X228577950Y-87291839D01*
X228653364Y-87473907D01*
X228653371Y-87473920D01*
X228762860Y-87637781D01*
X228762863Y-87637785D01*
X228902214Y-87777136D01*
X228902218Y-87777139D01*
X229066079Y-87886628D01*
X229066092Y-87886635D01*
X229248160Y-87962049D01*
X229248165Y-87962051D01*
X229248169Y-87962051D01*
X229248170Y-87962052D01*
X229441456Y-88000500D01*
X229441459Y-88000500D01*
X229638543Y-88000500D01*
X229768582Y-87974632D01*
X229831835Y-87962051D01*
X230013914Y-87886632D01*
X230177782Y-87777139D01*
X230317139Y-87637782D01*
X230426632Y-87473914D01*
X230502051Y-87291835D01*
X230540500Y-87098541D01*
X230540500Y-86921153D01*
X231199500Y-86921153D01*
X231199500Y-87078846D01*
X231230261Y-87233489D01*
X231230264Y-87233501D01*
X231290602Y-87379172D01*
X231290609Y-87379185D01*
X231378210Y-87510288D01*
X231378213Y-87510292D01*
X231489707Y-87621786D01*
X231489711Y-87621789D01*
X231620814Y-87709390D01*
X231620827Y-87709397D01*
X231741810Y-87759509D01*
X231766503Y-87769737D01*
X231921153Y-87800499D01*
X231921156Y-87800500D01*
X231921158Y-87800500D01*
X232078844Y-87800500D01*
X232078845Y-87800499D01*
X232233497Y-87769737D01*
X232379179Y-87709394D01*
X232431110Y-87674694D01*
X232497785Y-87653816D01*
X232565165Y-87672300D01*
X232568863Y-87674676D01*
X232620821Y-87709394D01*
X232620823Y-87709395D01*
X232620825Y-87709396D01*
X232741808Y-87759508D01*
X232766503Y-87769737D01*
X232921153Y-87800499D01*
X232921156Y-87800500D01*
X232921158Y-87800500D01*
X233078844Y-87800500D01*
X233078845Y-87800499D01*
X233233497Y-87769737D01*
X233379179Y-87709394D01*
X233510289Y-87621789D01*
X233621789Y-87510289D01*
X233709394Y-87379179D01*
X233769737Y-87233497D01*
X233800500Y-87078842D01*
X233800500Y-86921158D01*
X233800500Y-86921155D01*
X233800499Y-86921153D01*
X233796591Y-86901505D01*
X233769737Y-86766503D01*
X233745571Y-86708160D01*
X233709397Y-86620827D01*
X233709390Y-86620814D01*
X233621789Y-86489711D01*
X233621786Y-86489707D01*
X233510292Y-86378213D01*
X233510288Y-86378210D01*
X233379185Y-86290609D01*
X233379172Y-86290602D01*
X233233501Y-86230264D01*
X233233489Y-86230261D01*
X233078845Y-86199500D01*
X233078842Y-86199500D01*
X232921158Y-86199500D01*
X232921155Y-86199500D01*
X232766510Y-86230261D01*
X232766498Y-86230264D01*
X232620827Y-86290602D01*
X232620814Y-86290609D01*
X232568891Y-86325304D01*
X232502214Y-86346182D01*
X232434833Y-86327698D01*
X232431109Y-86325304D01*
X232379185Y-86290609D01*
X232379172Y-86290602D01*
X232233501Y-86230264D01*
X232233489Y-86230261D01*
X232078845Y-86199500D01*
X232078842Y-86199500D01*
X231921158Y-86199500D01*
X231921155Y-86199500D01*
X231766510Y-86230261D01*
X231766498Y-86230264D01*
X231620827Y-86290602D01*
X231620814Y-86290609D01*
X231489711Y-86378210D01*
X231489707Y-86378213D01*
X231378213Y-86489707D01*
X231378210Y-86489711D01*
X231290609Y-86620814D01*
X231290602Y-86620827D01*
X231230264Y-86766498D01*
X231230261Y-86766510D01*
X231199500Y-86921153D01*
X230540500Y-86921153D01*
X230540500Y-86901459D01*
X230540500Y-86901456D01*
X230502052Y-86708170D01*
X230502051Y-86708169D01*
X230502051Y-86708165D01*
X230465872Y-86620821D01*
X230426635Y-86526092D01*
X230426628Y-86526079D01*
X230317139Y-86362218D01*
X230317136Y-86362214D01*
X230177785Y-86222863D01*
X230177781Y-86222860D01*
X230013920Y-86113371D01*
X230013907Y-86113364D01*
X229831839Y-86037950D01*
X229831829Y-86037947D01*
X229638543Y-85999500D01*
X229638541Y-85999500D01*
X229441459Y-85999500D01*
X229441457Y-85999500D01*
X229248170Y-86037947D01*
X229248160Y-86037950D01*
X229066092Y-86113364D01*
X229066079Y-86113371D01*
X228902218Y-86222860D01*
X228902214Y-86222863D01*
X228762863Y-86362214D01*
X228762860Y-86362218D01*
X228653371Y-86526079D01*
X228653364Y-86526092D01*
X228577950Y-86708160D01*
X228577947Y-86708170D01*
X228539500Y-86901456D01*
X228539500Y-86901459D01*
X228539500Y-87098541D01*
X228539500Y-87098543D01*
X228539499Y-87098543D01*
X227999989Y-87098543D01*
X227999999Y-87098495D01*
X228000000Y-87098492D01*
X228000000Y-86901507D01*
X227999999Y-86901505D01*
X227961572Y-86708318D01*
X227961569Y-86708306D01*
X227886192Y-86526328D01*
X227886185Y-86526315D01*
X227776751Y-86362537D01*
X227776748Y-86362533D01*
X227637466Y-86223251D01*
X227637462Y-86223248D01*
X227473684Y-86113814D01*
X227473671Y-86113807D01*
X227291693Y-86038430D01*
X227291681Y-86038427D01*
X227098495Y-86000000D01*
X226901504Y-86000000D01*
X226708318Y-86038427D01*
X226708306Y-86038430D01*
X226526328Y-86113807D01*
X226526315Y-86113814D01*
X226362537Y-86223248D01*
X226362533Y-86223251D01*
X226223251Y-86362533D01*
X226223248Y-86362537D01*
X226113814Y-86526315D01*
X226113807Y-86526328D01*
X226038430Y-86708306D01*
X226038427Y-86708318D01*
X226000000Y-86901504D01*
X225460500Y-86901504D01*
X225460500Y-86901459D01*
X225460500Y-86901456D01*
X225422052Y-86708170D01*
X225422051Y-86708169D01*
X225422051Y-86708165D01*
X225385872Y-86620821D01*
X225346635Y-86526092D01*
X225346628Y-86526079D01*
X225237139Y-86362218D01*
X225237136Y-86362214D01*
X225097785Y-86222863D01*
X225097781Y-86222860D01*
X224933920Y-86113371D01*
X224933907Y-86113364D01*
X224751839Y-86037950D01*
X224751829Y-86037947D01*
X224558543Y-85999500D01*
X224558541Y-85999500D01*
X224361459Y-85999500D01*
X224361457Y-85999500D01*
X224168170Y-86037947D01*
X224168160Y-86037950D01*
X223986092Y-86113364D01*
X223986079Y-86113371D01*
X223822218Y-86222860D01*
X223822214Y-86222863D01*
X223682863Y-86362214D01*
X223682860Y-86362218D01*
X223573371Y-86526079D01*
X223573364Y-86526092D01*
X223497950Y-86708160D01*
X223497947Y-86708170D01*
X223459500Y-86901456D01*
X223459500Y-86901459D01*
X223459500Y-87098541D01*
X223459500Y-87098543D01*
X223459499Y-87098543D01*
X222920500Y-87098543D01*
X222920500Y-87098541D01*
X222920500Y-86901459D01*
X222920500Y-86901456D01*
X222882052Y-86708170D01*
X222882051Y-86708169D01*
X222882051Y-86708165D01*
X222845872Y-86620821D01*
X222806635Y-86526092D01*
X222806628Y-86526079D01*
X222697139Y-86362218D01*
X222697136Y-86362214D01*
X222557785Y-86222863D01*
X222557781Y-86222860D01*
X222415218Y-86127602D01*
X222370413Y-86073990D01*
X222361706Y-86004665D01*
X222391861Y-85941637D01*
X222451304Y-85904918D01*
X222484109Y-85900500D01*
X222578844Y-85900500D01*
X222578845Y-85900499D01*
X222733497Y-85869737D01*
X222879179Y-85809394D01*
X223010289Y-85721789D01*
X223121789Y-85610289D01*
X223209394Y-85479179D01*
X223233429Y-85421153D01*
X235199500Y-85421153D01*
X235199500Y-85578846D01*
X235230261Y-85733489D01*
X235230264Y-85733501D01*
X235290602Y-85879172D01*
X235290609Y-85879185D01*
X235378210Y-86010288D01*
X235378213Y-86010292D01*
X235489707Y-86121786D01*
X235489711Y-86121789D01*
X235620814Y-86209390D01*
X235620827Y-86209397D01*
X235766498Y-86269735D01*
X235766503Y-86269737D01*
X235921153Y-86300499D01*
X235921156Y-86300500D01*
X235921158Y-86300500D01*
X236078844Y-86300500D01*
X236078845Y-86300499D01*
X236233497Y-86269737D01*
X236379179Y-86209394D01*
X236510289Y-86121789D01*
X236621789Y-86010289D01*
X236709394Y-85879179D01*
X236769737Y-85733497D01*
X236800500Y-85578842D01*
X236800500Y-85421158D01*
X236800500Y-85421155D01*
X236800499Y-85421153D01*
X236769738Y-85266510D01*
X236769737Y-85266503D01*
X236733427Y-85178842D01*
X236709397Y-85120827D01*
X236709390Y-85120814D01*
X236621789Y-84989711D01*
X236621786Y-84989707D01*
X236510292Y-84878213D01*
X236510288Y-84878210D01*
X236379185Y-84790609D01*
X236379172Y-84790602D01*
X236233501Y-84730264D01*
X236233489Y-84730261D01*
X236078845Y-84699500D01*
X236078842Y-84699500D01*
X235921158Y-84699500D01*
X235921155Y-84699500D01*
X235766510Y-84730261D01*
X235766498Y-84730264D01*
X235620827Y-84790602D01*
X235620814Y-84790609D01*
X235489711Y-84878210D01*
X235489707Y-84878213D01*
X235378213Y-84989707D01*
X235378210Y-84989711D01*
X235290609Y-85120814D01*
X235290602Y-85120827D01*
X235230264Y-85266498D01*
X235230261Y-85266510D01*
X235199500Y-85421153D01*
X223233429Y-85421153D01*
X223255603Y-85367621D01*
X223255605Y-85367614D01*
X223269737Y-85333497D01*
X223300500Y-85178842D01*
X223300500Y-85021158D01*
X223300500Y-85021155D01*
X223300499Y-85021153D01*
X223272066Y-84878211D01*
X223269737Y-84866503D01*
X223238298Y-84790602D01*
X223209397Y-84720827D01*
X223209390Y-84720814D01*
X223121789Y-84589711D01*
X223121786Y-84589707D01*
X223010292Y-84478213D01*
X223010288Y-84478210D01*
X222879185Y-84390609D01*
X222879172Y-84390602D01*
X222733501Y-84330264D01*
X222733489Y-84330261D01*
X222578845Y-84299500D01*
X222578842Y-84299500D01*
X222421158Y-84299500D01*
X222421155Y-84299500D01*
X222266510Y-84330261D01*
X222266498Y-84330264D01*
X222120827Y-84390602D01*
X222120814Y-84390609D01*
X221989711Y-84478210D01*
X221989707Y-84478213D01*
X221878213Y-84589707D01*
X221878210Y-84589711D01*
X221790609Y-84720814D01*
X221790602Y-84720827D01*
X221730264Y-84866498D01*
X221730261Y-84866510D01*
X221699500Y-85021153D01*
X221699500Y-85178846D01*
X221730261Y-85333489D01*
X221730264Y-85333501D01*
X221790602Y-85479172D01*
X221790609Y-85479185D01*
X221878210Y-85610288D01*
X221878213Y-85610292D01*
X221989707Y-85721786D01*
X221989711Y-85721789D01*
X222065452Y-85772398D01*
X222110257Y-85826010D01*
X222118964Y-85895335D01*
X222088810Y-85958363D01*
X222029366Y-85995082D01*
X221996561Y-85999500D01*
X221821457Y-85999500D01*
X221628170Y-86037947D01*
X221628160Y-86037950D01*
X221446092Y-86113364D01*
X221446079Y-86113371D01*
X221282218Y-86222860D01*
X221282214Y-86222863D01*
X221142863Y-86362214D01*
X221142860Y-86362218D01*
X221033371Y-86526079D01*
X221033364Y-86526092D01*
X220957950Y-86708160D01*
X220957947Y-86708170D01*
X220919500Y-86901456D01*
X220919500Y-86901459D01*
X220919500Y-87098541D01*
X220919500Y-87098543D01*
X220919499Y-87098543D01*
X207000000Y-87098543D01*
X207000000Y-83924500D01*
X207019685Y-83857461D01*
X207072489Y-83811706D01*
X207124000Y-83800500D01*
X207460438Y-83800500D01*
X237075500Y-83800500D01*
X237142539Y-83820185D01*
G37*
%TD.AperFunction*%
M02*
