M48
; DRILL file {KiCad 9.0.7} date 2026-02-11T09:15:24+0100
; FORMAT={-:-/ absolute / metric / decimal}
; #@! TF.CreationDate,2026-02-11T09:15:24+01:00
; #@! TF.GenerationSoftware,Kicad,Pcbnew,9.0.7
; #@! TF.FileFunction,Plated,1,4,PTH
FMAT,2
METRIC
; #@! TA.AperFunction,Plated,PTH,ViaDrill
T1C0.300
; #@! TA.AperFunction,Plated,PTH,ComponentDrill
T2C0.600
; #@! TA.AperFunction,Plated,PTH,ComponentDrill
T3C1.000
%
G90
G05
T1
X207.5Y-84.5
X207.5Y-85.5
X207.5Y-86.5
X207.5Y-87.5
X207.5Y-88.5
X207.5Y-89.5
X207.5Y-90.5
X207.5Y-91.5
X207.5Y-94.0
X207.5Y-95.0
X207.5Y-96.0
X207.5Y-97.0
X207.5Y-98.0
X207.5Y-99.0
X207.5Y-100.0
X208.0Y-101.0
X208.0Y-103.0
X208.0Y-107.0
X209.0Y-85.5
X209.0Y-88.5
X209.0Y-91.5
X209.0Y-97.0
X209.0Y-99.0
X209.5Y-87.0
X209.5Y-90.0
X209.5Y-94.0
X209.5Y-95.5
X210.5Y-89.0
X210.5Y-91.5
X210.5Y-97.5
X211.0Y-85.0
X211.0Y-87.0
X211.0Y-99.5
X211.5Y-90.0
X211.5Y-94.0
X212.0Y-88.0
X212.0Y-91.5
X212.0Y-97.0
X212.5Y-85.0
X213.0Y-103.5
X213.5Y-96.5
X214.0Y-90.5
X214.0Y-93.5
X214.719Y-87.381
X215.0Y-85.5
X215.0Y-97.5
X215.5Y-103.5
X215.5Y-106.0
X216.0Y-91.0
X216.58Y-98.0
X216.762Y-95.15
X216.825Y-88.381
X217.649Y-102.351
X218.0Y-105.0
X218.5Y-91.0
X219.0Y-102.5
X219.5Y-106.5
X219.517Y-96.075
X219.928Y-98.789
X220.0Y-104.5
X220.131Y-98.0
X220.5Y-91.0
X221.5Y-104.0
X222.217Y-90.717
X222.5Y-85.1
X222.548Y-89.5
X222.783Y-91.283
X223.4Y-101.0
X223.5Y-89.5
X223.635Y-94.35
X223.72Y-98.303
X223.826Y-102.674
X223.9Y-95.15
X224.235Y-92.0
X224.835Y-92.975
X224.915Y-88.915
X225.863Y-99.243
X226.095Y-90.0
X226.713Y-99.476
X227.0Y-104.0
X228.0Y-95.738
X228.22Y-99.268
X229.058Y-99.344
X229.252Y-101.125
X229.635Y-90.0
X231.0Y-90.0
X231.0Y-104.5
X231.295Y-102.856
X231.5Y-93.5
X231.5Y-107.0
X231.674Y-99.826
X232.0Y-87.0
X232.0Y-92.5
X233.0Y-87.0
X233.0Y-91.5
X233.0Y-95.0
X233.0Y-105.0
X234.0Y-93.0
X235.0Y-95.0
X236.0Y-85.5
X236.0Y-86.5
X236.6Y-94.016
X236.674Y-94.826
T3
X221.92Y-87.0
X224.46Y-87.0
X226.21Y-105.525
X227.0Y-87.0
X228.75Y-105.525
X229.54Y-87.0
T2
X213.68Y-101.92G85X213.68Y-100.82
G05
X213.68Y-105.85G85X213.68Y-105.25
G05
X222.32Y-101.92G85X222.32Y-100.82
G05
X222.32Y-105.85G85X222.32Y-105.25
G05
M30
