%TF.GenerationSoftware,KiCad,Pcbnew,9.0.7*%
%TF.CreationDate,2026-02-11T09:18:12+01:00*%
%TF.ProjectId,przetwornik,70727a65-7477-46f7-926e-696b2e6b6963,rev?*%
%TF.SameCoordinates,Original*%
%TF.FileFunction,Paste,Bot*%
%TF.FilePolarity,Positive*%
%FSLAX46Y46*%
G04 Gerber Fmt 4.6, Leading zero omitted, Abs format (unit mm)*
G04 Created by KiCad (PCBNEW 9.0.7) date 2026-02-11 09:18:12*
%MOMM*%
%LPD*%
G01*
G04 APERTURE LIST*
G04 Aperture macros list*
%AMRoundRect*
0 Rectangle with rounded corners*
0 $1 Rounding radius*
0 $2 $3 $4 $5 $6 $7 $8 $9 X,Y pos of 4 corners*
0 Add a 4 corners polygon primitive as box body*
4,1,4,$2,$3,$4,$5,$6,$7,$8,$9,$2,$3,0*
0 Add four circle primitives for the rounded corners*
1,1,$1+$1,$2,$3*
1,1,$1+$1,$4,$5*
1,1,$1+$1,$6,$7*
1,1,$1+$1,$8,$9*
0 Add four rect primitives between the rounded corners*
20,1,$1+$1,$2,$3,$4,$5,0*
20,1,$1+$1,$4,$5,$6,$7,0*
20,1,$1+$1,$6,$7,$8,$9,0*
20,1,$1+$1,$8,$9,$2,$3,0*%
G04 Aperture macros list end*
%ADD10RoundRect,0.150000X0.150000X-0.512500X0.150000X0.512500X-0.150000X0.512500X-0.150000X-0.512500X0*%
%ADD11RoundRect,0.140000X0.140000X0.170000X-0.140000X0.170000X-0.140000X-0.170000X0.140000X-0.170000X0*%
%ADD12RoundRect,0.135000X0.135000X0.185000X-0.135000X0.185000X-0.135000X-0.185000X0.135000X-0.185000X0*%
%ADD13RoundRect,0.150000X0.512500X0.150000X-0.512500X0.150000X-0.512500X-0.150000X0.512500X-0.150000X0*%
%ADD14RoundRect,0.147500X0.147500X0.172500X-0.147500X0.172500X-0.147500X-0.172500X0.147500X-0.172500X0*%
%ADD15RoundRect,0.140000X-0.170000X0.140000X-0.170000X-0.140000X0.170000X-0.140000X0.170000X0.140000X0*%
%ADD16RoundRect,0.112500X0.187500X0.112500X-0.187500X0.112500X-0.187500X-0.112500X0.187500X-0.112500X0*%
%ADD17RoundRect,0.112500X-0.112500X0.187500X-0.112500X-0.187500X0.112500X-0.187500X0.112500X0.187500X0*%
%ADD18RoundRect,0.140000X0.170000X-0.140000X0.170000X0.140000X-0.170000X0.140000X-0.170000X-0.140000X0*%
%ADD19RoundRect,0.140000X-0.140000X-0.170000X0.140000X-0.170000X0.140000X0.170000X-0.140000X0.170000X0*%
%ADD20RoundRect,0.150000X-0.500000X0.150000X-0.500000X-0.150000X0.500000X-0.150000X0.500000X0.150000X0*%
%ADD21RoundRect,0.175000X-0.175000X0.350000X-0.175000X-0.350000X0.175000X-0.350000X0.175000X0.350000X0*%
%ADD22RoundRect,0.147500X-0.147500X-0.172500X0.147500X-0.172500X0.147500X0.172500X-0.147500X0.172500X0*%
%ADD23RoundRect,0.135000X-0.135000X-0.185000X0.135000X-0.185000X0.135000X0.185000X-0.135000X0.185000X0*%
%ADD24RoundRect,0.140000X0.205000X0.140000X-0.205000X0.140000X-0.205000X-0.140000X0.205000X-0.140000X0*%
%ADD25RoundRect,0.062500X0.337500X0.062500X-0.337500X0.062500X-0.337500X-0.062500X0.337500X-0.062500X0*%
%ADD26R,0.500000X0.300000*%
%ADD27R,0.600000X1.450000*%
%ADD28R,0.300000X1.450000*%
G04 APERTURE END LIST*
D10*
X220450000Y-93862500D03*
X219500000Y-93862500D03*
X218550000Y-93862500D03*
X218550000Y-96137500D03*
X219500000Y-96137500D03*
X220450000Y-96137500D03*
D11*
X221480000Y-90000000D03*
X220520000Y-90000000D03*
X232960000Y-90000000D03*
X232000000Y-90000000D03*
D12*
X217510000Y-92000000D03*
X216490000Y-92000000D03*
D11*
X225677517Y-96791394D03*
X224717517Y-96791394D03*
D13*
X228637500Y-93050000D03*
X228637500Y-94000000D03*
X228637500Y-94950000D03*
X226362500Y-94950000D03*
X226362500Y-93050000D03*
D14*
X234985000Y-88000000D03*
X234015000Y-88000000D03*
D15*
X230500000Y-100020000D03*
X230500000Y-100980000D03*
D16*
X229050000Y-97500000D03*
X226950000Y-97500000D03*
D17*
X231000000Y-95950000D03*
X231000000Y-98050000D03*
D18*
X230500000Y-102980000D03*
X230500000Y-102020000D03*
D19*
X222520000Y-97500000D03*
X223480000Y-97500000D03*
X230020000Y-92000000D03*
X230980000Y-92000000D03*
D12*
X225510000Y-103500000D03*
X224490000Y-103500000D03*
X217510000Y-90000000D03*
X216490000Y-90000000D03*
D20*
X233550000Y-98750000D03*
X233550000Y-101750000D03*
X233550000Y-103250000D03*
D21*
X236600000Y-97325000D03*
X234400000Y-97325000D03*
X236600000Y-104675000D03*
X234400000Y-104675000D03*
D22*
X222628984Y-96500000D03*
X223598984Y-96500000D03*
D12*
X225510000Y-98213989D03*
X224490000Y-98213989D03*
D11*
X232980000Y-88000000D03*
X232020000Y-88000000D03*
D23*
X218490000Y-98000000D03*
X219510000Y-98000000D03*
D12*
X214020000Y-98500000D03*
X213000000Y-98500000D03*
D24*
X227350000Y-101500000D03*
X227350000Y-100800000D03*
X226500000Y-101500000D03*
X226500000Y-100800000D03*
D25*
X228375000Y-100400000D03*
X228375000Y-100900000D03*
X228375000Y-101400000D03*
X228375000Y-101900000D03*
X225475000Y-101900000D03*
X225475000Y-101400000D03*
X225475000Y-100900000D03*
X225475000Y-100400000D03*
D12*
X235010000Y-90000000D03*
X233990000Y-90000000D03*
D26*
X261204823Y-94433384D03*
X261204823Y-95233384D03*
X259804823Y-95233384D03*
X259804823Y-94433384D03*
D22*
X228015000Y-103500000D03*
X228985000Y-103500000D03*
D27*
X221250000Y-100455000D03*
X220450000Y-100455000D03*
D28*
X219250000Y-100455000D03*
X218250000Y-100455000D03*
X217750000Y-100455000D03*
X216750000Y-100455000D03*
D27*
X215550000Y-100455000D03*
X214750000Y-100455000D03*
X214750000Y-100455000D03*
X215550000Y-100455000D03*
D28*
X216250000Y-100455000D03*
X217250000Y-100455000D03*
X218750000Y-100455000D03*
X219750000Y-100455000D03*
D27*
X220450000Y-100455000D03*
X221250000Y-100455000D03*
M02*
